<?xml version="1.0" encoding="UTF-8" ?>
<!DOCTYPE svg PUBLIC "-//W3C//DTD SVG 1.1//EN" "http://www.w3.org/Graphics/SVG/1.1/DTD/svg11.dtd">
<svg width="992pt" height="1000pt" viewBox="0 0 992 1000" version="1.1" xmlns="http://www.w3.org/2000/svg">
<g id="#2ba7dfff">
<path fill="#2ba7df" opacity="1.00" d=" M 58.17 110.56 C 315.82 73.86 573.47 37.19 831.11 0.49 C 845.88 -1.33 861.24 3.82 872.17 13.87 C 882.57 23.29 888.96 37.01 889.28 51.06 C 889.21 105.12 889.27 159.18 889.25 213.25 C 749.82 322.18 629.21 455.07 534.00 604.19 C 520.19 590.83 506.06 577.77 493.16 563.52 C 518.39 544.71 536.73 516.79 543.61 486.05 C 547.55 467.80 545.04 448.68 538.76 431.26 C 531.73 411.42 520.96 393.25 511.41 374.58 C 503.45 359.41 492.84 345.11 478.43 335.53 C 467.25 328.03 453.46 324.37 440.05 325.99 C 424.79 327.69 409.39 334.39 400.03 346.95 C 389.50 360.82 387.15 379.17 389.06 396.07 C 390.54 411.15 396.35 425.26 402.11 439.12 C 413.61 466.79 427.37 493.51 443.11 519.01 C 412.23 536.64 377.75 546.86 343.08 553.92 C 230.05 576.20 112.53 574.14 0.00 549.90 L 0.00 161.37 C 1.40 142.14 13.89 124.20 31.59 116.46 C 39.90 112.48 49.20 111.93 58.17 110.56 M 439.51 233.07 C 432.57 240.85 426.35 249.28 421.43 258.49 C 419.75 261.99 414.93 263.53 411.61 261.40 C 403.05 256.18 394.67 250.65 386.08 245.48 C 378.69 254.18 372.89 264.08 366.75 273.66 C 363.22 279.63 359.24 285.41 356.67 291.87 C 370.02 300.25 383.28 308.78 396.67 317.11 C 403.72 309.05 409.97 300.28 415.20 290.93 C 417.03 287.14 422.27 285.82 425.67 288.33 C 434.00 293.37 442.53 298.05 451.08 302.70 C 456.73 296.89 460.70 289.72 465.15 283.00 C 470.46 274.21 476.23 265.61 480.44 256.22 C 466.75 248.60 453.28 240.55 439.51 233.07 Z" />
<path fill="#2ba7df" opacity="1.00" d=" M 956.87 65.26 C 963.72 63.13 971.49 63.55 977.68 67.35 C 984.74 71.40 989.24 79.23 989.58 87.33 C 989.24 334.87 988.91 582.41 988.55 829.95 C 989.14 840.44 983.31 851.18 973.75 855.76 C 964.69 860.22 952.92 858.32 945.92 850.99 C 955.69 848.30 964.00 840.70 967.10 830.99 C 969.03 825.84 968.41 820.29 968.50 814.92 C 968.50 572.29 968.49 329.67 968.50 87.05 C 968.68 78.36 963.88 70.18 956.87 65.26 Z" />
<path fill="#2ba7df" opacity="1.00" d=" M 563.05 663.46 C 651.64 525.27 762.05 401.06 889.25 297.29 C 889.26 471.20 889.24 645.10 889.25 819.01 C 889.06 830.11 885.84 841.07 880.61 850.84 C 873.66 863.71 862.66 875.22 848.40 879.66 C 841.81 881.86 834.81 881.15 827.99 881.25 C 719.03 881.25 610.08 881.26 501.12 881.24 C 460.11 920.83 419.12 960.43 378.11 1000.00 L 375.14 1000.00 C 356.89 960.42 338.60 920.86 320.36 881.27 C 234.91 881.22 149.46 881.27 64.01 881.25 C 55.23 881.05 46.20 882.17 37.73 879.23 C 17.19 873.25 1.67 853.89 0.00 832.60 L 0.00 609.60 C 16.95 613.32 33.90 617.11 51.01 620.04 C 144.70 636.50 241.17 637.93 335.12 622.65 C 371.08 617.21 406.34 607.18 439.75 592.81 C 453.63 586.72 467.50 580.39 480.31 572.21 C 505.86 604.41 535.05 633.44 563.05 663.46 Z" />
<path fill="#2ba7df" opacity="1.00" d=" M 452.91 394.76 C 468.76 389.10 486.91 390.39 501.80 398.25 C 508.12 401.69 512.28 408.81 512.02 416.03 C 511.69 428.95 507.37 441.38 502.07 453.04 C 491.54 475.60 474.08 494.80 452.71 507.54 C 447.65 500.79 442.76 493.90 437.95 486.97 C 432.44 478.84 426.06 470.90 423.84 461.11 C 420.42 446.22 420.69 429.78 427.87 416.00 C 433.00 405.97 442.27 398.33 452.91 394.76 Z" />
</g>
<g id="#ffffffff">
<path fill="#ffffff" opacity="1.00" d=" M 879.79 16.02 C 904.19 33.04 928.53 50.16 952.93 67.18 C 959.33 70.90 964.12 77.60 964.58 85.10 C 964.94 241.06 964.56 397.02 964.87 552.98 C 964.87 643.67 964.89 734.37 964.87 825.06 C 964.72 832.19 959.91 838.35 954.25 842.26 C 948.87 846.19 942.37 847.93 936.20 850.15 C 913.14 858.19 890.11 866.28 867.05 874.29 C 883.17 860.78 892.84 840.04 893.37 819.06 C 893.38 563.70 893.38 308.34 893.37 52.98 C 893.10 39.59 888.03 26.52 879.79 16.02 Z" />
<path fill="#ffffff" opacity="1.00" d=" M 534.00 604.19 C 629.21 455.07 749.82 322.18 889.25 213.25 C 889.25 241.26 889.25 269.28 889.25 297.29 C 762.05 401.06 651.64 525.27 563.05 663.46 C 535.05 633.44 505.86 604.41 480.31 572.21 C 467.50 580.39 453.63 586.72 439.75 592.81 C 406.34 607.18 371.08 617.21 335.12 622.65 C 241.17 637.93 144.70 636.50 51.01 620.04 C 33.90 617.11 16.95 613.32 0.00 609.60 L 0.00 549.90 C 112.53 574.14 230.05 576.20 343.08 553.92 C 377.75 546.86 412.23 536.64 443.11 519.01 C 427.37 493.51 413.61 466.79 402.11 439.12 C 396.35 425.26 390.54 411.15 389.06 396.07 C 387.15 379.17 389.50 360.82 400.03 346.95 C 409.39 334.39 424.79 327.69 440.05 325.99 C 453.46 324.37 467.25 328.03 478.43 335.53 C 492.84 345.11 503.45 359.41 511.41 374.58 C 520.96 393.25 531.73 411.42 538.76 431.26 C 545.04 448.68 547.55 467.80 543.61 486.05 C 536.73 516.79 518.39 544.71 493.16 563.52 C 506.06 577.77 520.19 590.83 534.00 604.19 M 452.91 394.76 C 442.27 398.33 433.00 405.97 427.87 416.00 C 420.69 429.78 420.42 446.22 423.84 461.11 C 426.06 470.90 432.44 478.84 437.95 486.97 C 442.76 493.90 447.65 500.79 452.71 507.54 C 474.08 494.80 491.54 475.60 502.07 453.04 C 507.37 441.38 511.69 428.95 512.02 416.03 C 512.28 408.81 508.12 401.69 501.80 398.25 C 486.91 390.39 468.76 389.10 452.91 394.76 Z" />
<path fill="#ffffff" opacity="1.00" d=" M 439.51 233.07 C 453.28 240.55 466.75 248.60 480.44 256.22 C 476.23 265.61 470.46 274.21 465.15 283.00 C 460.70 289.72 456.73 296.89 451.08 302.70 C 442.53 298.05 434.00 293.37 425.67 288.33 C 422.27 285.82 417.03 287.14 415.20 290.93 C 409.97 300.28 403.72 309.05 396.67 317.11 C 383.28 308.78 370.02 300.25 356.67 291.87 C 359.24 285.41 363.22 279.63 366.75 273.66 C 372.89 264.08 378.69 254.18 386.08 245.48 C 394.67 250.65 403.05 256.18 411.61 261.40 C 414.93 263.53 419.75 261.99 421.43 258.49 C 426.35 249.28 432.57 240.85 439.51 233.07 Z" />
</g>
</svg>
