<svg viewBox="0 0 1263 1263" xmlns="http://www.w3.org/2000/svg"><path d="M600.56 6.87c89.41-4.38 179.79 10.31 262.92 43.67 99.97 39.79 189.1 106.13 256.29 190.12 50.04 62.34 87.97 134.37 110.87 210.96 27.9 92.81 33.49 192.12 17.01 287.58-13.78 79.64-43.31 156.51-86.42 224.88-42.08 67-97.04 125.85-160.9 172.54-60.8 44.54-129.76 77.92-202.44 97.9-94.43 26.01-194.99 29.31-290.98 9.96-79.81-16.06-156.34-48.11-223.87-93.55-74.93-50.33-138.81-117.03-185.79-194.11-42.23-69.11-70.76-146.55-83.39-226.56-15.37-97.45-7.85-198.58 22.81-292.41 23.65-72.94 61.05-141.37 109.47-200.81 47.34-58.21 105.18-107.86 169.96-145.73 86.16-50.55 184.68-79.75 284.46-84.44m-332.8 232.64l-4.42.16c.05.18.15.56.2.74-1.27.31-2.51.67-3.76 1.03-1.14.63-2.26 1.3-3.4 1.91-.83.42-1.65.84-2.47 1.27a54.029 54.029 0 0 0-9.29 9.28c-1 1.97-1.97 3.95-3.11 5.83-.45 1.22-.85 2.46-1.13 3.74l-.72.03-.18 4.3c-.23-.12-.68-.38-.91-.5-.21 3.89-.53 7.79-.57 11.7v664.02c.23 17.43-.52 34.89.51 52.3.29.05.87.13 1.15.18-.06.72-.17 2.15-.23 2.87.26.1.79.31 1.06.41-.08 1.98.88 3.72 2.09 5.25l-.06.86c.78 1.16 1.53 2.35 2.26 3.58.98 1.23 1.97 2.47 2.89 3.77a41.2 41.2 0 0 0 3.03 3.18c.26.2.78.62 1.04.83 1.45 1.21 2.9 2.41 4.4 3.57 1.39.7 2.8 1.37 4.23 2.01l.13.6c2.75.77 5.37 2.01 8.24 2.32l-.49.69c3.58.15 7.16.51 10.75.56h685.03c10.29-.09 20.6.31 30.87-.54l-.88-.81c.91-.08 2.74-.24 3.66-.31l-.21-.61c2.3-.47 4.43-1.48 6.44-2.68 1.23-.82 2.49-1.59 3.76-2.34 4.17-3.14 7.84-6.91 11.06-11.01 1.78-3.24 4.34-6.24 4.82-10.02.23-.06.69-.17.92-.22.05-1.04.14-3.11.19-4.15l.92 1.84c.89-25.36.2-50.76.42-76.14v-608c-.18-14.3.46-28.62-.56-42.9l-.78.81-.32-3.12c-.89-1.69-1.46-3.5-1.91-5.33l-.59-.09c-.65-1.43-1.33-2.82-2.01-4.2-1.14-1.52-2.35-2.97-3.54-4.43-1.12-1.33-2.31-2.6-3.67-3.66l-.17-.27c-1.37-.99-2.69-2.02-4.01-3.04-1.2-.71-2.36-1.49-3.48-2.28l-.9.08c-1.54-1.25-3.35-2.11-5.35-2.16-.06-.23-.19-.7-.26-.93-.79.03-2.39.09-3.18.11l.5-.93c-5.26-.55-10.54-.76-15.81-.67-233.65.01-467.3 0-700.96 0-3.89.04-7.77.38-11.66.53.11.25.32.74.42.98z"/><path d="M316.63 316.63c210.25-.04 420.49-.04 630.74 0 .08 131.31-.03 262.61.06 393.92-210.29.09-420.57.09-630.86 0 .09-131.31-.02-262.61.06-393.92m237.73 89.87l-.72-.12c-.53 14.87-.11 29.77-.24 44.66v97.93c.15 23.18-.32 46.37.25 69.54l.79-.04c.34 1.21.72 2.42 1.07 3.64 2.49 2.95 4.94 6.67 8.97 7.52l.02.75c3.89.34 7.8.42 11.7.05 1.63-.91 3.31-1.76 4.87-2.8.25-.03.73-.08.98-.1 1.29-1.07 2.62-2.08 3.91-3.14l.98.04c.75-1.05 1.8-1.74 2.95-2.28.51-.34 1.54-1 2.05-1.33 2.02-1.33 4.1-2.59 5.92-4.2l1.13-.16c1.51-1.32 3.19-2.41 4.91-3.44 2.71-1.88 5.69-3.4 8.14-5.64.23.05.68.15.9.2.73-1.11 1.82-1.82 3.01-2.36 2.61-1.88 5.57-3.3 7.94-5.52.3-.04.9-.11 1.2-.15 1.27-1.07 2.58-2.09 3.87-3.15.22.02.66.07.88.1 2.5-2.29 5.65-3.68 8.18-5.94.24-.01.73-.03.98-.05 1.21-1.04 2.5-1.99 3.83-2.88 3.07-1.89 6.11-3.84 9.11-5.85 1.07-.65 2.08-1.41 3.03-2.23.24-.03.72-.07.96-.09 2.59-2.14 5.61-3.67 8.15-5.86h.97c1.32-1.1 2.66-2.17 3.97-3.29.22.07.66.22.88.3.72-1.14 1.81-1.87 3-2.43 3.33-2.16 6.65-4.33 9.95-6.54 1.34-.85 2.68-1.7 4.04-2.52 1.41-.98 2.85-1.92 4.35-2.77 1.28-.92 2.55-1.87 3.77-2.89l.92.08c2.47-2.2 5.4-3.76 8.1-5.64 1.75-1.02 3.45-2.13 4.97-3.47.26.01.78.05 1.04.06.44-.52 1.32-1.56 1.77-2.08l1.07.08c2.49-2.22 5.58-3.61 8.03-5.87l1.11-.12c1.22-1.02 2.52-1.92 3.85-2.8 4.73-2.9 9.3-6.05 13.96-9.07 1.12-.75 2.25-1.52 3.41-2.24.37-.43 1.12-1.29 1.49-1.72 2.97-3.02 5.08-6.97 5.07-11.29l.65.21c0-.79-.01-2.37-.01-3.17l-.65.14c-.11-2.69-.53-5.48-2.35-7.59.05-.34.14-1.01.19-1.34l-1.1-.01.03-1.1h-.67c-1.46-2.76-4.34-4.13-6.76-5.89-2.01-1.3-4.07-2.49-6.12-3.71-1.23-.79-2.51-1.55-3.75-2.3-1.42-.8-2.82-1.63-4.24-2.39-1.36-.87-2.71-1.77-3.96-2.76l-1 .04c-1.35-1.06-2.72-2.06-4.05-3.11-.24.03-.74.1-.98.13-1.35-1.07-2.71-2.1-4.03-3.16-.23.04-.69.13-.92.18-1.33-1.09-2.73-2.07-4.06-3.13l-1.05.12c-1.28-1.12-2.64-2.13-3.98-3.15l-.96.18c-.64-.57-1.28-1.13-1.91-1.67-.55-.36-1.65-1.06-2.21-1.42-.27.01-.83.04-1.11.05-.44-.53-1.33-1.59-1.77-2.12-.26.07-.76.21-1.01.28-1.41-1.02-2.8-2.04-4.1-3.17-.23.03-.69.07-.91.1-1.13-.94-2.36-1.72-3.64-2.39l-.01-.82c-.35.05-1.04.16-1.39.21-1.09-.97-2.33-1.74-3.62-2.36v-.85l-1.38.16c-1.13-.91-2.37-1.67-3.64-2.33l-.04-.39c-1.6-.7-3.1-1.57-4.6-2.43-1.26-.79-2.53-1.51-3.74-2.34-2.08-1.25-4.16-2.47-6.24-3.7-3.34-2.04-6.71-4.04-10.06-6.04-3.57-2.09-7.06-4.31-10.63-6.39-1.24-.8-2.51-1.56-3.77-2.31-1.7-.96-3.38-1.96-5.03-2.99-1.39-.85-2.78-1.68-4.21-2.42-1.39-.88-2.75-1.79-4.01-2.81-.23.04-.69.11-.92.15-1.35-1.08-2.72-2.12-4.07-3.19-.24.05-.74.13-.99.17-1.34-1.08-2.7-2.12-4.02-3.18-.24.04-.7.13-.94.18-1.31-1.09-2.69-2.06-4.01-3.11l-1.19.04c-1.24-1.08-2.54-2.07-3.84-3.06-.28.02-.84.08-1.12.11-.44-.44-1.33-1.3-1.77-1.73-1.12-.5-2.23-1.01-3.32-1.51-.45-.45-1.33-1.36-1.77-1.81-.27.03-.79.1-1.06.14-1.66-1.2-3.38-2.29-5.12-3.35a96.3 96.3 0 0 0-3.52-2.02l.01-.84-1.38.2c-1.22-1.23-2.82-1.81-4.44-2.23l.01-.81c-3.27-.21-6.55-.29-9.82.01-5.81 2.42-11.64 6.53-13.36 12.92zm-158.8 383.06c26.29-.06 52.59-.06 78.88 0 .05 13.07.07 26.14-.01 39.21 11.85.21 23.7.5 35.57.26 5.66.09 11.33-.28 17-.03 13.32.07 26.65.08 39.98-.08 4.39.63 8.81-.42 13.22.03 8.59.1 17.19.4 25.78-.07 2.92.4 5.88.3 8.82.07 7.39-.51 14.79.58 22.18.02 7.61.35 15.23-.54 22.84.08 8.73.56 17.47-.67 26.19.05 31.02-.14 62.02-.28 93.03 0 6.32-.73 12.64.35 18.97-.01 28.01-.35 55.99.2 84.01-.19 1.3.08 2.62.12 3.95.14 3.67-.36 7.35.31 11.04.08 6.59-.12 13.2-.58 19.79-.06 10.22-.08 20.42-.31 30.65.18-.1 26.1-.07 52.21-.02 78.31-157.64.13-315.28.01-472.92.06-.1 13.25.02 26.5-.06 39.75-26.3.06-52.6.06-78.9 0-.08-13.25.04-26.5-.06-39.75-26.31-.05-52.61.07-78.92-.06.04-26.08.1-52.16-.03-78.24 5.12-.99 10.31.3 15.46-.36 9 .24 17.98-.22 26.98.22 6.99-.5 14-.39 20.99-.04 5.2-.41 10.42-.2 15.63-.38-.15-13.06-.07-26.13-.04-39.19z"/></svg>