<svg viewBox="0 0 1263 1263" xmlns="http://www.w3.org/2000/svg"><path d="M600.61 6.87c89.43-4.38 179.82 10.32 262.95 43.7 102.5 40.8 193.58 109.54 261.33 196.56 47.67 61.01 83.85 130.96 105.95 205.16 27.15 90.67 33 187.52 17.82 280.9-13.22 81.2-42.81 159.69-86.5 229.41-39.12 62.69-89.52 118.29-147.91 163.55-62.04 48.12-133.22 84.43-208.66 106.19-88.48 25.66-182.63 31.12-273.57 16.69-80.22-12.77-157.84-41.51-227.05-84.02-79.23-48.53-147.42-114.94-198.05-192.85-44.46-68.22-75.33-145.25-90.2-225.32C-1.6 648.16 3.83 545.05 33.14 449.01c21.09-69.35 54.47-134.93 98.05-192.85 44.82-59.68 100.37-111.3 163.22-151.56 91.17-58.65 197.91-92.69 306.2-97.73M326.99 251.86c-2.81-.24-5.63-.14-8.44-.11-.05.34-.16 1.04-.21 1.39l-1.58-1.03c-.03.35-.08 1.03-.11 1.38-1.75.09-3.49.2-5.23.29.04.37.13 1.09.17 1.46l-4.12.51c.02.39.07 1.16.1 1.54-.81.07-2.41.22-3.22.3l.28 1.1-1.23-.34-.01 1.29c-.36-.09-1.07-.27-1.43-.37-2.02 1.99-4.09 3.93-6.36 5.61l-.06.3-1.4 1.36-.78-.05-.08 1.31c-2.31 1.93-4.34 4.16-6.17 6.54l-.77.05.17.72c-.33.37-1 1.12-1.33 1.5l-.82-.06c0 .33-.02 1-.03 1.33-1.66 1.23-3.06 2.76-4.2 4.49l-.72.1.14.72c-.32.29-.96.86-1.28 1.14-1.41 1.7-2.84 3.39-4.15 5.18l-.33.11c-.84 1.26-1.73 2.5-2.59 3.76l-.71.12.04 1.09-.75.03c-.88 1.27-1.79 2.51-2.65 3.8l-.73-.02.16 1.18-1.19-.09.12 1.85c-.47.08-1.42.23-1.89.31l-.04 1.37c-1.38 1.5-2.67 3.09-3.83 4.76-.78 1.15-1.6 2.27-2.38 3.42-.93 1.26-1.91 2.49-2.92 3.7l-.08.97c-.9.68-1.61 1.53-2.13 2.54l-.67.14.04 1.17-1.19-.07c.07.35.2 1.03.27 1.38-1.44 1.61-2.81 3.27-4.2 4.92.06.36.17 1.07.23 1.43l-.81-.06c-.78 1.3-1.65 2.52-2.56 3.73.08.33.22.98.29 1.31l-1.22-.04.05 1.22-1.26.08.48 1.73-1.26-.02.05 1.22-1.26.04c.14.43.43 1.3.58 1.74h-1.32l.05 1.24-1.2.11c.11.44.31 1.3.41 1.74l-1.33-.07.24 1.19c-.34.04-1 .11-1.33.15l.54 1.6-1.02.09c-.32.45-.96 1.35-1.27 1.79l.25 1.18c-.39.08-1.16.25-1.55.34l.38 1.31c-.77.94-1.55 1.89-2.33 2.83.06.37.18 1.11.25 1.47l-1.2.07.13 1.24-1.32.02c.12.33.34 1 .45 1.33-1.25 1.28-2.14 2.82-2.58 4.56-.31 0-.93.01-1.25.01-.08.77-.26 2.3-.34 3.07l-1.12-.16.35 1.19-1.21-.04c.07.36.2 1.08.27 1.44-.78.99-1.53 2-2.29 3l.34 1.3-1.46.29c.08.45.23 1.35.3 1.79l-1.14.27-.04 1.17c-.52 1.03-1.04 2.06-1.55 3.1-1.08.94-1.44 2.29-1.68 3.66l-.4.05c-.48.82-.97 1.64-1.47 2.46l.51 1.22-1.14.09c-.51 1.2-1.05 2.4-1.61 3.58-1.13 1.54-1.77 3.36-2.61 5.06-.02.21-.07.63-.09.84-.27.64-.79 1.92-1.06 2.56l-.6.16c-.49 1.59-1.04 3.17-1.53 4.77l-.78-.08c-.04.82-.13 2.45-.17 3.27-.38-.03-1.14-.1-1.52-.13l-.44 4.1c-.3-.05-.91-.16-1.21-.22l.67 1.19-.9-.09a8.017 8.017 0 0 1-1.5 3.72l.06.55c-.62 1.23-.96 2.57-1.24 3.91l-1.01-.05c.06.31.17.93.23 1.25-.45 1.22-.86 2.46-1.24 3.72l-.51-.21c-.46 1.66-.96 3.33-1.37 5.02l-.65.08c-.43 1.67-.95 3.33-1.39 5.01l-.52-.07c-.26 1.33-.69 2.61-1.26 3.84l-.04.52c-.88 1.11-.92 2.55-1.17 3.88l-.96.06c.15.44.46 1.32.61 1.76l-1.24-.07c-.06 1.06-.19 3.17-.25 4.23-.32.01-.95.04-1.26.05.16.42.5 1.26.67 1.68l-1.15.12c-.08 1.04-.23 3.11-.3 4.15-.33 0-.97-.01-1.3-.01.09.3.26.9.35 1.2a76.04 76.04 0 0 0-1.18 3.9l-.53-.31c-.18.9-.53 2.71-.7 3.61-.31 1.18-.55 2.38-.79 3.58l-.6-.32c-.18 1.68-.5 3.37-1.17 4.95.12.31.34.92.46 1.23l-1.3-.1c-.12 1.72-.23 3.44-.34 5.17-.33.04-.98.1-1.3.14l.93 1.69-1.33-.02c-.06 1.44-.12 2.89-.17 4.35l-.86-.28c-.03.81-.09 2.43-.13 3.24l-.82-.26-.18 5.3c-.16-.06-.48-.2-.63-.27-.32 1.19-.67 2.38-1.04 3.57-.15 1.58-.27 3.18-.38 4.78l-.61-.49c-.26 1.26-.57 2.52-.92 3.77-.2 1.54-.36 3.1-.5 4.66l-.8-.46c-.15 2.39-.31 4.79-.41 7.2-.42.07-1.28.22-1.7.3.46.39 1.39 1.17 1.86 1.57l-1.67.02c-.14 2.4-.31 4.81-.4 7.22l-.79-.26.03 3.4-.87-.39c-.13 2.78-.3 5.55-.39 8.34l-1.68-.24c.39.5 1.17 1.51 1.56 2.01l-1.41-.06c-.11 3.42-.32 6.84-.39 10.26-.22-.08-.65-.26-.87-.35 0 1.08-.01 3.24-.01 4.32l-.82-.23c-.01 2.13-.08 4.28-.09 6.43l-.76-.26c-.13 3-.33 6.01-.44 9.03l-.63-.11c.01 4.08-.31 8.16-.35 12.25l-.83-.55c-.03 2.12-.11 4.25-.14 6.39l-.62-.01c.08 5.52-.37 11.05-.24 16.58l-.94-2.05c-.62 23.15-.7 46.33.08 69.48l1.18-5.43c-.75 6.13.05 12.29-.08 18.44l.58.02c.06 2.44.18 4.89.23 7.34l.79-.58c.07 4.11.36 8.22.36 12.34l.66-.19c.08 2.42.21 4.85.27 7.28l.77-.41c.06 2.78.22 5.57.26 8.36l.75-.27c.06 1.75.15 3.5.21 5.27l.77-.32c.04 2.79.19 5.57.26 8.37l.77-.4.24 5.23.71-.15c.08 2.38.24 4.76.37 7.15.23-.08.7-.24.94-.32l-.08 3.26.73-.01c.1 2.06.23 4.12.34 6.19l.77-.53c.08 1.61.24 3.24.73 4.8.2 1.55.36 3.11.5 4.69.2-.09.61-.26.82-.34.09 1.73.19 3.46.28 5.21l.77-.08.03 3.17.91-.3c.1 2.07.22 4.16.32 6.26l1.25-.09c-.19.49-.57 1.46-.76 1.94l1.17-.05c.07 1.73.14 3.47.22 5.22l1.27.04c-.22.45-.66 1.34-.88 1.79l1.28-.01c.1 1.73.23 3.49.34 5.24l1.29-.13-.8 1.84 1.14.05c.12 1.72.26 3.47.4 5.21l1.87-.03-1.14 1.1c.9 1.5 1.12 3.2 1.24 4.93.16-.08.48-.23.63-.3.29 1.6.68 3.18 1.18 4.74-.07.36-.2 1.08-.26 1.44l.99-.07c.42 2.05.99 4.08 1.48 6.12l.61-.13c.21 1.18.46 2.37.74 3.55.93 1.79 1.54 3.7 1.78 5.72l.98-.01c-.16.43-.48 1.31-.64 1.74l1.22.03c.06 1.04.18 3.13.23 4.18.32 0 .95 0 1.26-.01-.07.3-.21.88-.28 1.18.48 1.24.89 2.51 1.25 3.81l.97-.01c-.06.31-.18.92-.23 1.22.44 1.24.85 2.5 1.24 3.78l.4-.27 1.36 3.71c-.06.34-.2 1.03-.27 1.38l.91.01 1.32 3.57c-.03.34-.11 1.01-.14 1.35l.86.07c.33 1.27.75 2.53 1.27 3.76l-.2 1.04c.36.09 1.07.29 1.42.39-.07.35-.23 1.05-.3 1.4.33.59 1.01 1.78 1.34 2.38l.64.05.2 3.23 1.28-.39-.72 1.24 1.17.01c.04.76.14 2.29.18 3.05l1.29.03-.48 1.62c.32.11.97.32 1.3.43l-.44 1.75 1.4.25-.2 1.38c.73 1.35 1.47 2.72 2.29 4.04l-.15.75c.44.83.87 1.67 1.29 2.52l.69-.01c.06.79.2 2.37.26 3.16.39-.01 1.17-.02 1.56-.03l.28 3.1 1.14-.07-.63 1.19 1.23-.26c.06.79.19 2.37.25 3.16l1.13-.19-.42 1.19.73-.02c.44 1.64 1.27 3.13 2.32 4.48l-.08 1.03c.73.95 1.46 1.92 2.19 2.9-.03.25-.08.76-.11 1.01.89 1.33 1.74 2.71 2.57 4.09.82 1.34 1.66 2.68 2.59 3.98-.05.33-.15.99-.2 1.33l1.18.1-.17 1.22 1.25-.09c-.07.4-.22 1.2-.29 1.6.78.89 1.56 1.79 2.34 2.71-.11.37-.33 1.11-.44 1.49l1.11-.04c.45 1.1.9 2.21 1.34 3.34l.46-.01c.73 1.46 1.57 2.87 2.47 4.26l.24.92c1.13 1.38 2.2 2.83 3.31 4.25.18.45.53 1.37.71 1.83 1.06.91 1.76 2.07 2.12 3.48.2-.02.6-.07.8-.09l-.27 1.16 1.31.14-.55 1.63.95.01 1.4 1.72-.28 1.35.95.03c1.08 2.08 2.36 4.09 4.06 5.74.05.26.14.78.18 1.05 1.38 1.61 2.75 3.24 4.18 4.83l-.4 1.3c.35 0 1.05.01 1.4.02l-.2 1.13.75.11c.85 1.31 1.73 2.6 2.56 3.93l.92.12c-.06.42-.17 1.27-.23 1.69l.84.01c.24.4.73 1.18.97 1.58 1.35 1.73 2.8 3.38 4.29 5-.01.35-.04 1.06-.05 1.41.48.1 1.46.28 1.95.37l-.16 1.74 1.21-.03-.09 1.11.67.1c1.25 1.64 2.55 3.25 3.75 4.94l.28.09c.87 1.25 1.78 2.48 2.66 3.74l.79.04-.15.81c1.86 1.96 3.64 3.99 5.54 5.93l.64 1.52.44-.08c1.92 2.47 4.15 4.67 6.24 7.01l1.29 1.25-.14.73 1.17-.01.08 1.25c.77.69 1.53 1.4 2.29 2.14.99 1.03 1.98 2.06 3 3.08a150.2 150.2 0 0 1 3.91 4.07c1.35 1.18 2.72 2.35 4.06 3.56.35-.07 1.06-.22 1.42-.3l-.02 1.21 1.26-.1-.04 1.33c.45-.15 1.34-.44 1.79-.59l.01 1.32 1.23-.21-.15 1.13c.8.02 2.4.05 3.2.07l-.05 1.24c.44-.16 1.32-.47 1.76-.63v1.14c1.79.16 3.58.36 5.37.58-.18.32-.54.95-.72 1.27 1.63-.56 3.24-.52 4.82.11 3.56.31 7.12.16 10.68.07l-.06-.66c1.06-.01 3.18-.02 4.24-.03l-.31-.98c1.38-.12 2.76-.22 4.14-.31l-.03-1.09c.43.08 1.31.24 1.75.32l.33-1.35c.46.14 1.37.43 1.82.58l.11-1.24 1.17.1v-1.4l1.22.49c1.76-1.67 3.63-3.22 5.61-4.62l-.14-.77.75.1c.84-1.3 1.75-2.55 2.62-3.82l.39-.12c1.24-1.65 2.53-3.25 3.68-4.95l.29-.15c1.4-1.93 2.99-3.71 4.63-5.43-.06-.22-.19-.68-.25-.91 1.1-1.33 2.1-2.75 2.38-4.48h.81l-.43-1.2 1.16.17c.04-.8.1-2.4.14-3.19l.88.26.16-3.16.8.14c.05-1.44.1-2.87.16-4.28l1.3.1-.84-1.95 1.21.07c.14-6.66.11-13.32-.05-19.97-.38.03-1.14.1-1.52.13-.14-1.78-.26-3.54-.37-5.29l-1.17.01c.19-.46.56-1.38.75-1.84l-1.07.01c-.32-1.66-.22-3.55-1.77-4.6-.45-1.01-.9-2.01-1.36-2.99-.53-.99-1.05-1.94-1.57-2.91-.67-.8-1.34-1.61-1.98-2.41l-.68-.06.02-.83a38.88 38.88 0 0 1-3.34-4.15l-.83.02.45-1.21-1.2.09.09-1.16h-.72c-1.53-2.28-3.59-4.11-5.24-6.28-.87-1.16-1.74-2.31-2.59-3.46l-.74-.02.15-.75c-.32-.34-.97-1.03-1.3-1.37h-.64l.08-1.11-.74-.05c-.89-1.28-1.81-2.52-2.67-3.79l-.7-.1.11-1.16-1.29.09c.11-.44.33-1.32.43-1.76l-1.29.04.07-1.17-.71-.13c-.88-1.27-1.8-2.51-2.65-3.78l-.41-.16c-1.13-1.73-2.35-3.38-3.54-5.04l-.98-.07c.11-.43.32-1.28.43-1.71l-1.24.04.08-1.22-1.39-.07.66-1.58c-.25-.03-.76-.11-1.02-.14-.37-.42-1.12-1.25-1.49-1.67l.43-1.28h-1.39l.19-1.15-1.25-.13.21-1.23c-1.09-1.03-2.12-2.14-3.15-3.2l.34-1.3c-.32-.03-.95-.1-1.27-.14l.22-1.17-1.38-.01.46-1.59c-.32-.06-.95-.19-1.27-.25l.16-1.21-1.34.06c.13-.44.41-1.32.54-1.76l-1.23-.08.16-1.16-1.06.07c-.1-.74-.3-2.22-.41-2.96l-1.25.08c-.4-1.42-.77-2.91-2.17-3.65-.13-.59-.38-1.79-.5-2.39l-1.07.21.31-1.21-1.26-.24.42-1.56c-.39-.08-1.17-.25-1.56-.33l.38-1.63c-.3-.07-.89-.2-1.19-.26l.26-1.15-1.29.01.28-1.5c-.77-.94-1.54-1.87-2.31-2.79.09-.38.25-1.13.34-1.51l-1.24.05.34-1.19-1.09.17c-.1-.8-.28-2.38-.37-3.17-.38.03-1.15.09-1.53.11l-.32-3.1-1.14.16.5-1.17-1.11.17c-.08-.78-.22-2.35-.29-3.13l-1.14.22.4-1.2-1.2-.09.32-1.44c-.72-.98-1.44-1.95-2.15-2.92v-1c-.88-1.49-1.63-3.04-2.31-4.61l-.74.03c-.05-.74-.15-2.21-.19-2.95l-1.17.07.61-1.18-1.24.15c-.03-.78-.1-2.34-.13-3.12l-1.12-.04.12-1.14c-.56-1.24-.99-2.5-1.28-3.81l-1.06-.01.26-1.11c-.53-1.23-.9-2.51-1.23-3.79l-.61-.02c-.25-.66-.76-1.97-1.01-2.62.08-.33.23-.99.31-1.32l-.99-.03c-.43-1.25-.88-2.49-1.34-3.7.06-.3.19-.89.25-1.19l-1.25-.06c-.05-.76-.13-2.28-.17-3.04l-1.08.01c.16-.31.49-.94.65-1.26l-.99.18c-.35-1.26-.76-2.5-1.21-3.72.02-.29.05-.87.07-1.16l-1.18-.03c-.03-.8-.1-2.39-.14-3.18h-1.17l.52-1.72h-1.18l-.28-4.15c-.38-.03-1.15-.08-1.53-.1l.68-1.08c-.85-1.53-1.05-3.25-1.25-4.94l-1.13.1.36-1.33c-.71-1.53-.99-3.18-1.16-4.83l-.59.38c-.29-1.21-.59-2.4-.93-3.58-.13-.75-.4-2.25-.53-3-.25.13-.76.39-1.02.52l.2-2.65-1.24-3.59-.63.28-.21-4.24-1.16-.1c.18-.45.54-1.35.72-1.79l-1.29.11-.21-4.26c-.32-.05-.98-.14-1.31-.19l1.03-1.59c-.36-.03-1.08-.07-1.44-.1-.08-2.09-.19-4.18-.26-6.25l-.8.38c-.09-1.4-.16-2.8-.24-4.18l-.76.1c-.03-1.76-.1-3.52-.14-5.27-.18.08-.55.22-.73.3-.5-3.99-1.29-7.94-2.43-11.79-.5-2.17-.83-4.38-.98-6.59l-.71.55c-.12-1.64-.25-3.26-.44-4.88-.71-2.15-.77-4.42-.84-6.64l-.74.53c-.07-3.14-.26-6.28-.29-9.41l-.69.27c-.06-2.13-.18-4.25-.24-6.36l-.77.43c-.06-3.48-.26-6.96-.29-10.43l-.78.46c-.05-1.82-.11-3.63-.14-5.44l-.78.37c-.07-6.81-.33-13.61-.26-20.42l-.75.5c.03-5.81-.31-11.62-.27-17.43l-.69.31c.03-4.75.03-9.51 0-14.26l.69.3c-.04-5.81.31-11.61.25-17.41l.77.5c-.08-6.14.2-12.28.16-18.41l.68.02c.14-2.66.33-5.31.44-7.96l.71.28c.04-3.77.28-7.53.37-11.29l.81.49c.04-1.77.1-3.55.16-5.31l.66.01c.03-3.11.24-6.21.32-9.31l.74.57c.05-1.94.16-3.89.78-5.72.18-1.61.31-3.22.43-4.82l.71.51c.16-1.59.35-3.2.85-4.72.14-1.31.26-2.62.37-3.93l.74.53c.13-1.62.28-3.23.46-4.83.4-1.54.69-3.1.93-4.66l.65.55c.15-2.4-.05-4.94 1.23-7.08l-1.14-1.33 1.82.33c.13-2.44.3-4.88.42-7.32l1.25.01c-.23-.43-.7-1.3-.93-1.74.34-.01 1.03-.05 1.37-.07.04-1.04.12-3.12.15-4.16.16 0 .47.02.63.03.29-.84.88-2.51 1.17-3.35.06-.69.17-2.09.22-2.79l1.18.09c-.16-.47-.49-1.4-.66-1.87l1.13.02.44-4.61 1.33.77c-.77-1.66-.3-3.4.58-4.91l-.72-1.18 1.45-.04c.15-1.21.31-2.42.49-3.62.27-.87.8-2.61 1.06-3.47l.65.23c.05-.94.11-1.87.18-2.8.29-.86.89-2.58 1.18-3.44l.64.21c.02-.82.05-2.45.06-3.26l1.18-.05c-.12-.43-.37-1.29-.5-1.72h1.21l.16-3.27 1.22.04c-.07-.32-.2-.96-.27-1.27.71-1.52 1.34-3.12 2.57-4.3.17-1.17.33-2.33.49-3.49l1.13.04c-.08-.39-.23-1.16-.31-1.55.72-1.31 1.47-2.6 2.25-3.87-.09-.31-.26-.93-.34-1.23.32-.13.97-.39 1.3-.52l-.28-1.13c.79-1.37 1.49-2.78 2.21-4.19-.09-.32-.27-.96-.35-1.29l1.24.06.16-3.3 1.15.06-.32-1.74 1.29-.29c-.1-.39-.3-1.16-.4-1.54.76-.94 1.52-1.87 2.3-2.8-.11-.34-.33-1.04-.44-1.38.25-.09.75-.28 1-.37.33-.6 1-1.79 1.33-2.39l-.34-1.21c.28-.08.85-.22 1.13-.29.43-1.3.91-2.57 1.34-3.86l1.13-.25-.41-1.29c.76-1 1.51-2.03 2.3-3.01-.08-.36-.25-1.08-.34-1.44l1.18-.07-.21-1.21.77.05c.41-1.68 1.38-3.1 2.49-4.38-.04-.22-.11-.65-.15-.87 1.47-2.04 2.65-4.26 4.25-6.21l-.37-.69c1.27-1.72 2.42-3.51 3.53-5.32.78-1.27 1.56-2.54 2.3-3.82.97-1.46 1.92-2.95 3.14-4.22.05-.28.13-.85.17-1.14.73-.87 1.47-1.73 2.22-2.59-.05-.37-.16-1.13-.21-1.5l1.24.14-.17-1.23 1.3-.19-.57-1.57c.35-.01 1.05-.04 1.4-.06l-.14-1.13 1.08-.1-.2-1.2 1.3.09c-.06-.35-.17-1.06-.23-1.41 1.41-1.64 2.79-3.31 4.23-4.93-.07-.35-.21-1.07-.28-1.43l1.22.17-.08-1.19.7-.09c.81-1.34 1.68-2.63 2.5-3.96l.77-.01-.1-1.19 1.24.05c-.1-.44-.3-1.32-.41-1.76l1.36.1-.13-.89c1.59-1.67 3.12-3.41 4.41-5.33l.28-.13c.83-1.19 1.7-2.36 2.56-3.52 1.41-1.75 2.86-3.47 4.23-5.26l.81-.02-.44-1.16.83.04c1.55-2.25 3.47-4.19 5.38-6.13l-.04-.45c.32-.3.95-.9 1.27-1.2 1.66-1.97 3.38-3.88 5.19-5.7.18-.41.53-1.23.71-1.64l.45.03c1.22-1.67 2.5-3.3 3.73-4.96l.95-.02c-.1-.36-.28-1.1-.37-1.46.8-.99 1.6-1.98 2.41-2.96l-.47-.88c.7-.91 1.4-1.81 2.09-2.72.43-1.63.93-3.24 1.34-4.88l.61.08c.03-1.07.09-3.21.13-4.28l.96.39c-.01-.85-.02-2.56-.02-3.41.19.08.59.23.79.3.26-5.78-.38-11.62.52-17.35l-.13-.33-1.44-1.64-.58.44c-.11-1.72-.2-3.45-.29-5.17-.29-.03-.89-.1-1.18-.14.19-.44.59-1.32.78-1.76l-1.25.03c-.07-.8-.22-2.39-.29-3.19-.54-.6-1.08-1.2-1.61-1.8-.27-1.43-.61-2.9-1.97-3.68-.11-.61-.32-1.85-.43-2.46l-1.08.24.23-1.18-1.1-.02.14-1.16-1.16.05-.16-1.36a5.96 5.96 0 0 1-2.19-2.48l-.77-.02.26-.84c-.36-.21-1.1-.63-1.47-.84-1.67-1.44-3.29-2.92-4.89-4.42l-.88.03.09-1.36c-.45.14-1.35.41-1.8.54l-.04-1.3-1.24.35.35-1.1c-.82-.08-2.46-.25-3.28-.33.02-.39.07-1.18.1-1.57-.79-.06-2.36-.19-3.15-.25l-.06-1.23c-.42.16-1.27.5-1.69.67l-.04-1.19c-1.73-.12-3.46-.25-5.19-.38.03-.38.07-1.14.09-1.52-3.11-.08-6.24-.22-9.35.02.16-.27.46-.8.61-1.07-.88.01-2.64.01-3.52.02.2.26.6.8.8 1.07m597.3.7c.06.21.19.64.26.85-1.03.04-3.09.13-4.12.17l-.06.46c-1.22.38-2.37.88-3.45 1.52-.24-.05-.74-.15-.98-.19-1 .81-1.99 1.6-2.97 2.41l-1.34-.58v1.38l-1.24-.13.01 1.25-1.78-.59.05 1.38-.89-.01c-1.57 1.5-3.19 2.93-4.85 4.31-.3.28-.89.84-1.18 1.12-1.17 1.39-2.35 2.77-3.55 4.12-.25.39-.74 1.16-.98 1.55l-.72-.03.1 1.19-1.28-.12c.06.35.17 1.05.23 1.41-.34.58-1.02 1.75-1.36 2.34l-.38.19c-1.04 2.29-2.25 4.52-2.73 7.02-.26.02-.78.04-1.04.05.21.43.65 1.29.86 1.72l-1.22.09c-.11 1.72-.21 3.45-.3 5.18l-.91-.39c-.06 2.09-.14 4.18-.16 6.27l-.64-.03c0 3.02-.01 6.05-.01 9.09l.62-.07c.04 2.37.16 4.73.29 7.1l.92-.28c.03 1.06.09 3.18.11 4.24l.84-.11c.04.78.11 2.34.15 3.12l.89-.23c.04.79.1 2.37.13 3.16l1.15-.12-.31 1.22 1.27-.05c-.11.38-.33 1.14-.45 1.52.77.94 1.54 1.89 2.32 2.84-.09.36-.28 1.1-.38 1.47l1.3-.04v.87c1.56 1.67 3.04 3.41 4.35 5.29l.24.1c1.23 1.63 2.55 3.2 3.81 4.81l.7.06-.13.68 1.26 1.26c1.42 1.64 2.85 3.28 4.14 5.04l.28.15c1.41 1.95 3.06 3.7 4.63 5.53 1.13 1.57 2.3 3.11 3.5 4.65.84 1.2 1.73 2.37 2.58 3.59l.72.03-.12 1.13.61.13c.57.93 1.29 1.75 2.14 2.46.05.24.13.72.17.96 2.9 3.15 5.17 6.81 7.44 10.42l.72-.05-.18 1.21 1.23-.06-.24 1.37c1.78 1.86 3.18 4.04 4.62 6.18.85 1.28 1.72 2.57 2.65 3.82-.05.34-.14 1.01-.18 1.34l.81.01c.36.42 1.1 1.27 1.46 1.69-.11.36-.33 1.08-.44 1.43l1.27-.12-.08 1.25 1.26.07-.51 1.74 1.28.01-.04 1.24 1.23.03c-.09.31-.26.94-.35 1.26.91 1.17 1.8 2.39 2.52 3.71l.29.03c.7 1.56 1.56 3.06 2.54 4.49l-.35 1.13c.31.05.95.14 1.27.19l-.24 1.14.78-.01c.89 1.98 1.89 3.91 2.75 5.91l.7-.11-.19 1.21 1.36.06-.56 1.3c.77.98 1.59 1.92 2.38 2.91-.07.37-.23 1.13-.31 1.51l.95.24c.31.6.92 1.81 1.23 2.41-.03.35-.08 1.04-.1 1.39l1 .14c.41 1.31.89 2.61 1.32 3.93l1.06.11c-.08.39-.23 1.15-.31 1.54.74.94 1.49 1.88 2.26 2.82l-.22.93c.45.8.92 1.61 1.38 2.42l.84.25c-.07.36-.19 1.09-.26 1.45.32.62.94 1.85 1.25 2.47l.69-.04.16 3.26 1.24-.04c-.15.42-.44 1.28-.59 1.71l1.18.05.2 3.23 1.25-.04c-.1.33-.28 1-.38 1.33.7 1.38 1.41 2.78 2.21 4.12l-.11.79c.35.73.71 1.47 1.07 2.22.63 1.34 1.26 2.7 1.92 4.05-.08.31-.25.95-.33 1.26l1.26-.03.2 3.32h1.26l-.45 1.1c.74 1.43 1.44 2.89 2.17 4.34l.12.58c.45 1.28.78 2.6 1.09 3.93l1.07-.08-.76 1.81 1.17.04c.07 1.42.14 2.85.23 4.28l.75-.29c.47 2.12 1.04 4.23 1.42 6.39l.58-.4c.18 1.19.39 2.38.62 3.57.83 2.4 1.67 4.79 2.58 7.18-.11.35-.31 1.04-.42 1.38l1.23-.13c.1 1.23.23 2.47.38 3.72.41 1.15.8 2.31 1.17 3.49l.61-.24c.04 1.06.11 3.18.15 4.24.34.01 1.02.02 1.35.02-.22.45-.68 1.34-.9 1.79l1.26-.05c.07 2.1.18 4.2.28 6.31.16-.08.5-.24.66-.32.22 1.52.54 3.02.98 4.5.21 2.02.37 4.04.57 6.08.32-.22.94-.65 1.25-.87-.47 1.32-.44 2.62.11 3.9.18 1.57.35 3.15.5 4.74l.67-.48c.26 3.18 1.07 6.29 1.41 9.47l.71-.43c.12 2.54.28 5.09.4 7.64l1.21-.89c-.64 1.8-.43 3.71-.45 5.59l.84-.38c.06 3.47.25 6.94.29 10.41l.79-.47c.03 1.78.07 3.56.15 5.37l.76-.25c.02 3.45.21 6.91.27 10.37l.82-.49c.03 1.78.08 3.54.15 5.33l.74-.13c.03 7.87.37 15.73-.2 23.59.34-3.13.64-6.26.89-9.39.29 7.36.46 14.73.52 22.1l.68-.26c-.05 4.08-.03 8.16.02 12.25l-.66-.23c.17 3.21-.69 6.6.58 9.69-.36-.22-1.08-.67-1.44-.89-.1 9.49-.34 18.98-.4 28.48l-.75-.18c-.05 1.74-.09 3.49-.11 5.25-.21-.09-.63-.26-.84-.35-.07 3.78-.29 7.55-.34 11.34l-.72-.42c-.15 2.74-.32 5.5-.5 8.26l-.92-5.75c.35 3.45.47 6.93.24 10.4-.59 1.83-.52 4.08-2 5.49l-.19.49c.27 2.49.35 5 .22 7.52l-.77-.45c-.21 1.27-.4 2.56-.63 3.85-.43 1.83-.63 3.71-.79 5.6l-.71-.43c-.11 1.58-.28 3.14-.43 4.73-.22.93-.66 2.8-.87 3.73-.17-.09-.49-.28-.66-.38-.11 2.05-.24 4.1-.32 6.16l-.72-.02-.24 4.14-.84-.38c-.04 1.76-.11 3.52-.11 5.31-.21-.05-.62-.14-.83-.19l-.16 3.21-.87-.25-.16 4.2c-.33.01-1 .02-1.33.02.19.44.58 1.32.77 1.76l-1.18.03c-.1 1.42-.19 2.85-.26 4.3l-1.23-.18c.16.48.46 1.42.62 1.9l-1.08.07c-.11 1.41-.2 2.83-.28 4.26l-.9-.39c-.19 1.99-.36 4-.48 6.01-.33.01-.97.02-1.3.02-.31 1.64-.66 3.3-1.31 4.86.13.3.38.89.51 1.19l-1.36-.07c-.06 1.06-.19 3.17-.26 4.23l-1.08.04c.16.46.47 1.38.63 1.84l-1.21-.1c-.17 1.68-.34 3.39-.49 5.1-.38-.02-1.14-.07-1.52-.1-.05.84-.16 2.51-.21 3.35h-1.14l.28 1.23c-.74 1.37-1.42 2.78-2.14 4.18-.02.17-.05.51-.07.68-.46 1.23-.88 2.47-1.26 3.74l-.53-.11c-.27.68-.8 2.03-1.07 2.71l.34 1.26c-.26.01-.78.02-1.04.03-.42 1.26-.86 2.52-1.32 3.77l.2 1.21-1.21-.03-.16 3.15-1.14-.07.7 1.2-1.24-.2c-.1 1.04-.29 3.12-.39 4.16-.37-.04-1.12-.1-1.49-.13-.14 1.32-.26 2.66-.38 4.01l-.66.03c-.32.61-.97 1.81-1.3 2.42.05.36.14 1.07.18 1.43l-1.04.02c-.48 1.31-.97 2.62-1.39 3.96l-.52.03c-1.06 2.43-2.3 4.77-3.36 7.2-.18-.02-.56-.05-.74-.07-.06.75-.19 2.24-.25 2.99l-1.08-.12.26 1.21-1.32.05c.1.32.28.97.38 1.29-1 1.26-1.88 2.6-2.68 4-.8 1.06-1.41 2.22-1.66 3.55h-.45c-.85 1.97-1.98 3.79-3.25 5.51l.12 1.37-1.38.15c.06.43.17 1.3.23 1.74l-1.13.12.08 1.21-1.33.03c.15.44.43 1.32.58 1.76l-1.27-.02.07 1.23-1.28.02c.12.43.37 1.3.49 1.73l-1.26.05.05 1.23-1.29-.01c.15.44.46 1.32.61 1.76l-1.33.03.1 1.18c-.33.05-1 .14-1.33.19l.63 1.61-1.41.05.17 1.17c-.33.02-.99.08-1.32.1l.38 1.16c-.93 1.11-1.82 2.25-2.64 3.45l-.32.24c-1.08 1.75-2.26 3.43-3.4 5.14l-1.12.08.66 1.58-1.36.13.06 1.21-1.2-.1c.05.34.13 1.02.18 1.36a38.626 38.626 0 0 0-3.41 4.35l-.28.25c-1.3 1.83-2.75 3.54-4.16 5.29-1.01 1.32-2.06 2.61-3.02 3.98-1.4 1.85-2.99 3.55-4.37 5.42-1.42 1.68-2.92 3.31-4.19 5.12l-.4.02c-.3.38-.91 1.13-1.22 1.51l.1.72-.73.03c-1.48 2.01-3.35 3.7-4.77 5.76h-.73l.06.71c-.29.39-.88 1.17-1.18 1.56h-.37c-1.02 1.45-2.15 2.81-3.34 4.13l.02.83-.68.06c-.66.8-1.31 1.6-1.96 2.41-.58.94-1.04 1.95-1.61 2.92-.46.98-.9 1.98-1.34 2.99-1.56 1.03-1.48 2.94-1.77 4.59h-1.07c.19.45.56 1.36.75 1.82l-1.18.01c-.12 1.72-.23 3.46-.34 5.21l-1.36-.07c.25.46.75 1.39 1 1.85-.31.02-.93.07-1.24.09-.12 6.01-.1 12.02.01 18.03l1.2-.06c-.2.49-.62 1.47-.82 1.96l1.3-.12c.03 1.06.1 3.17.13 4.22.21-.01.62-.04.82-.05l.16 3.15.88-.28c.04.8.1 2.4.14 3.2l1.15-.17-.4 1.22 1.3-.02c-.09.4-.27 1.18-.37 1.58.76.92 1.52 1.85 2.3 2.78l-.28 1.07c1.62 1.71 3.23 3.48 4.61 5.42l.79.13c-.01.33-.02.99-.03 1.32.93.63 1.68 1.44 2.25 2.43l.63.12-.03 1.11.73.06c.86 1.28 1.77 2.54 2.63 3.84l.74-.1-.12.76c1.89 1.38 3.71 2.87 5.45 4.46.28.01.83.02 1.11.03.56 2.11 2.84 1.84 4.57 2.22l-.38 1.12 1.33-.77-.14 1.16c1.03.07 3.1.23 4.13.3l-.24 1c1.4-.01 2.82 0 4.24.02l-.11.66c5.47.47 10.89-.17 16.3-.87l-.39-.82c1.4-.11 2.81-.21 4.23-.29l.03-1.16c.45.14 1.34.43 1.79.58l-.09-1.22c.8-.01 2.41-.05 3.21-.07l-.15-1.13 1.23.21.01-1.32 1.79.6-.04-1.34 1.25.1v-1.21c.35.08 1.07.23 1.43.31 2.04-1.8 4.06-3.64 5.98-5.58 1.65-1.72 3.32-3.42 4.96-5.15.75-.73 1.51-1.44 2.3-2.13.02-.31.06-.94.09-1.25l.84.03c.25-.39.74-1.16.98-1.55 2.28-2.48 4.71-4.82 6.74-7.5l.87.02-.62-1.15.88.03c1.64-2.22 3.55-4.21 5.47-6.19l-.15-.84.79-.05c.88-1.26 1.8-2.5 2.69-3.76l.77-.02-.3-1.21.76.04c.83-1.21 1.74-2.37 2.65-3.51.25-.37.76-1.09 1.01-1.46l.93-.06c-.05-.43-.14-1.28-.18-1.7l1.98-.36c-.03-.45-.11-1.36-.15-1.81l.81.01c1.2-1.68 2.47-3.29 3.66-4.98l.49-.03c.47-1.02.96-2.03 1.45-3.03l.5.02c.8-1.33 1.68-2.62 2.52-3.92l.73-.1-.12-1.2 1.19.2-.08-1.78c1.43-1.49 2.78-3.04 4.14-4.58l-.18-1.4c.49-.1 1.47-.31 1.96-.41l-.12-1.34c1.03-1.38 2.06-2.75 3.18-4.05v-1.3l1.07-.1-.09-1.19h1.3c-.11-.43-.35-1.29-.46-1.72l1.22-.06-.1-1.23 1.3.08-.4-1.4c.36-.41 1.09-1.25 1.46-1.67l.88-.03c-.07-.33-.23-.99-.31-1.32a41.02 41.02 0 0 0 4.37-6.47l.92-.21-.21-1.58 1.14-.18-.24-1.29.77.07c.59-1.6 1.42-3.1 2.52-4.41l-.28-1.33 1.22.01-.25-1.19 1.09.09c.08-.76.25-2.29.33-3.06.38.04 1.14.1 1.52.13.09-.79.29-2.37.39-3.16l1.08.21c-.08-.3-.24-.92-.31-1.23l1.21.07-.24-1.4c.38-.58 1.15-1.74 1.53-2.32l.73-.28-.42-1.13.97-.06c.42-1.28.91-2.54 1.37-3.8l1.1-.14-.2-1.21c.41-.84.83-1.68 1.25-2.52l1-.26-.27-1.23c.44-.83.89-1.65 1.34-2.46l.68-.06c.06-.79.2-2.37.27-3.16.39.04 1.16.11 1.54.15l.28-3.19h.9c.42-1.3.89-2.56 1.27-3.86l.79-.11c.39-1.32.81-2.61 1.16-3.93l.6-.03 1.12-2.56c-.04-.34-.14-1.04-.19-1.39l.94.08c.42-1.27.88-2.52 1.39-3.74-.03-.29-.07-.87-.1-1.16l1.08-.03c.07-.66.22-1.98.29-2.63 1.9-.76 1.63-2.94 2.04-4.56l1.04.14-.66-1.23 1.17.32c.05-.84.16-2.5.21-3.34l1.24.05-.32-1.27c.72-1.52 1.27-3.18 2.54-4.35.22-1.45.39-2.9.6-4.32l1.23.01c-.08-.32-.23-.96-.31-1.28.46-1.24.9-2.48 1.32-3.72h.98c-.14-.45-.41-1.34-.54-1.79l1.25-.49-.52-1.68 1.29.04c.11-1.38.23-2.74.36-4.1l1.17.12c-.2-.36-.6-1.07-.8-1.43l1.23.46c.13-1.74.28-3.47.44-5.19.37.03 1.1.1 1.46.13.13-1.72.27-3.45.44-5.15l1.28.05c-.19-.45-.56-1.34-.74-1.79l1.13.04c.1-1.44.22-2.86.36-4.26l1.45.04c.13-1.72.28-3.45.46-5.14.37 0 1.11 0 1.48.01.12-2.02.27-4.04.43-6.04l.83.37c.12-1.26.27-2.5.44-3.74.25-.85.75-2.55 1.01-3.4l.71.04c.03-1.39.08-2.78.15-4.15l1.22-.08c-.22-.43-.65-1.3-.87-1.74.34.01 1.01.01 1.35.02.1-1.76.21-3.51.34-5.25l1.28.04c-.22-.45-.67-1.35-.9-1.8.32 0 .97-.01 1.29-.01.06-1.76.12-3.5.21-5.24l1.18-.04-.76-1.89 1.25.1c.08-2.09.21-4.17.33-6.24l.89.37c.01-1.09.03-2.17.07-3.24l.71.02c.12-1.84.27-3.66.46-5.48.31.21.94.61 1.26.82-.3-1.3-.4-2.6-.3-3.92.63-1.8.82-3.71.98-5.59l.75.44c.09-2.07.22-4.15.33-6.2l.68-.01c.05-1.06.13-3.19.17-4.25l.85.51c.07-2.13.18-4.26.26-6.37l.8.18c-.02-.84-.07-2.52-.09-3.37.22.1.67.28.9.38.09-3.09.28-6.18.34-9.26l.77.29c0-1.46.01-2.91.04-4.35.21.08.64.25.86.33.05-2.78.19-5.55.24-8.32l.74.17c.12-2.7.28-5.39.37-8.07l.68.26c-.02-4.74.33-9.46.45-14.19l.79.46c0-2.59.12-5.19.67-7.72.39-6.14-.03-12.29.09-18.42.39 4.04.39 8.13.78 12.19 1.22-25.28.99-50.6.29-75.88l-.89.94c.01-4.51-.27-9.03-.21-13.54l-.58.04c-.11-3.35-.34-6.7-.45-10.04l-.74.32c-.05-3.46-.23-6.92-.23-10.37l-.77.24c-.01-1.82-.05-3.64-.04-5.45l-.82.55c-.07-2.81-.23-5.61-.25-8.41l-1.09.09c.25-.88.76-2.64 1.02-3.52-.38.23-1.13.69-1.51.92-.15-3.51-.35-7.02-.41-10.53-.2.07-.58.21-.78.28-.08-1.74-.15-3.47-.21-5.2l-.75.21c-.07-2.06-.18-4.11-.24-6.16l-2.32-.44 2.88-.76c-3.77-.79-1.81-5.34-2.49-7.97-.19.07-.58.22-.77.3-.16-2.17-.34-4.35-.94-6.44-.21-1.55-.38-3.12-.51-4.67l-.73.36c-.1-1.84-.26-3.71-1.32-5.27l1.38-.26c-2.95-.99-1.9-4.5-2.32-6.82-.19 0-.56.01-.75.02-.02-.79-.04-2.37-.06-3.16l-.89.39c-.07-1.8-.18-3.59-.23-5.37l-1.41-.1c.36-.43 1.09-1.29 1.45-1.71-.42.01-1.25.05-1.67.07-.16-2.08-.33-4.15-.48-6.21l-1.45.16c-.13-2.04-.29-4.07-.41-6.1l-.69.18c-.33-1.2-.67-2.37-1.02-3.54-.05-.71-.16-2.13-.22-2.84l-.77.32c-.18-1.21-.37-2.42-.56-3.62-.35-1.18-.66-2.36-.92-3.55l-.46.26c-.36-1.31-.75-2.6-1.18-3.88l.32-1.21c-.32.01-.96.01-1.28.02-.07-1.04-.22-3.11-.29-4.15l-1.13-.1c.16-.44.49-1.31.65-1.75l-1.24.07c-.11-1.43-.2-2.85-.28-4.27l-1.23.02c.16-.44.46-1.32.62-1.76l-1.17-.03c-.01-.81-.04-2.44-.05-3.25l-1.23-.04c.08-.28.25-.85.34-1.14-.63-1.23-1.08-2.52-1.34-3.86l-.95-.01c.14-.44.4-1.33.54-1.77l-1.17-.02-.12-3.23-.72.11c-.42-1.2-.84-2.39-1.28-3.56.07-.33.22-.98.29-1.3l-.99-.01c-.4-1.27-.82-2.52-1.26-3.75.06-.31.19-.94.25-1.25l-1.02.06c-.37-1.33-.7-2.65-1.16-3.93l-.07-.55c-.73-1.39-1.45-2.8-2.16-4.17.03-.31.07-.93.09-1.24l-1.24-.29c.1-.46.32-1.39.42-1.86l-1.25-.3c-.01-.28-.05-.86-.06-1.15-.49-1.19-.91-2.39-1.27-3.6l-.94.17c.09-.21.28-.61.37-.82-.63-1.3-1.26-2.59-1.87-3.87-.39-.72-.76-1.44-1.13-2.15l.05-.77c-1.12-1.66-1.83-3.53-2.46-5.4l-.94-.14c.08-.47.26-1.42.35-1.89l-1.28-.15.56-1.15c-.31.05-.93.14-1.25.19-.05-.77-.17-2.3-.23-3.07l-1.19.05.65-1.2-1.2.35c-.06-.8-.2-2.4-.26-3.21l-1.12.15.33-1.21-1.25.03.44-1.43c-.76-.98-1.51-1.95-2.24-2.92.01-.27.04-.79.06-1.06-.91-1.41-1.67-2.91-2.34-4.44l-.94-.28c.06-.34.2-1.03.27-1.38-.79-.95-1.56-1.9-2.32-2.85l.32-1.48-1.21.06.14-1.23-1.24.01c.08-.37.26-1.12.35-1.49-.78-.92-1.55-1.84-2.3-2.76.07-.39.2-1.15.27-1.54l-1.23.02.14-1.21-1.19-.02c.08-.33.22-.99.29-1.32-.94-1.3-1.78-2.64-2.59-4-.64-1.06-1.3-2.12-1.92-3.16-.9-1.36-1.83-2.71-2.76-4.02.07-.33.2-.98.27-1.31l-1.22.01.11-1.24-1.29.06c.13-.44.39-1.32.53-1.75l-1.27-.07.05-1.23-1.28-.07.56-1.76-1.3.07.09-1.25-1.24-.05c.12-.44.35-1.3.47-1.73l-1.29-.02.08-1.2-1.17-.02.36-1.75-1.46-.28.23-1.57c-.3-.07-.9-.19-1.2-.25l.22-1.17h-1.45l.57-1.64c-.33-.03-.99-.1-1.32-.14l.16-1.11-.76-.01c-1.15-1.99-2.4-3.96-4.06-5.56-.02-.25-.07-.76-.09-1.01-.34-.39-1.01-1.17-1.35-1.55l-.9-.08.4-1.71-1.31.11.15-1.25-1.18.01c.04-.34.11-1.03.15-1.37-1.28-1.31-2.43-2.73-3.36-4.29-1.13-1.59-2.41-3.07-3.72-4.49v-.51a60.494 60.494 0 0 1-3.79-4.55c-.84-1.2-1.73-2.36-2.56-3.55l-.72-.02v-.84c-1.18-1.31-2.28-2.68-3.25-4.13l-.36-.24c-1.34-2.11-3.24-3.77-4.67-5.81l-.4.01c-.24-.38-.74-1.15-.98-1.53-1.29-1.47-2.58-2.94-3.74-4.5l-.73-.03.32-1.15-.79.03c-1.94-2.87-4.75-5-6.66-7.89l-.74.01c.03-.32.09-.95.13-1.27l-1.04.4-.12-.81c-2.29-1.68-4.36-3.62-6.38-5.61-.36.1-1.08.28-1.44.38l.05-1.28-1.23.33.21-1.12c-.8-.07-2.4-.22-3.2-.29l.12-1.45c-1.94-.42-4.28-.2-5.51-2.05-1.54-.18-3.07-.34-4.58-.47.06-.24.2-.72.27-.96-.82.01-2.44.04-3.26.05l.08-.69c-6.1-.23-12.24-.37-18.25.84M454.36 394.59l-.05 1.03c-.49-.13-1.45-.4-1.93-.54l.19 1.1c-1.69.16-3.37.37-4.91 1.09l-1.01-.04-.06.94c-1.41.32-3.01.5-3.56 2.06-.63.08-1.9.22-2.53.3l-.05.69c-1.69 1.17-3.31 2.45-4.96 3.68v.76c-.35 0-1.05.01-1.4.02-1.35 1.58-2.76 3.12-3.98 4.81l-.22.09c-1.31 1.77-2.72 3.46-4.13 5.15-1.21 1.57-2.45 3.12-3.61 4.73l-.3.14c-1.24 1.77-2.67 3.41-4.09 5.03-.26.34-.79 1.01-1.05 1.35-.5.72-1.01 1.43-1.51 2.15-.24.29-.72.87-.97 1.16-1.23 1.63-2.49 3.25-3.84 4.78.1.33.31.97.42 1.29l-1.28.04.03 1.22-1.24.08c.11.43.33 1.3.45 1.73l-1.28-.05.08 1.24h-1.25c.13.43.38 1.3.5 1.73l-.96.03c-.33.43-1 1.29-1.33 1.72.04.33.11.98.14 1.31l-1.4.17.24 1.67c-.29.05-.87.15-1.16.21l.2 1.1h-.7c-.74 1.25-1.61 2.42-2.53 3.54l.46 1.12c-.34.04-1.02.11-1.36.15l.07 1.15-1.28.14c.12.45.36 1.34.49 1.79l-1.28-.16.14 1.24-1.21.07c.09.38.25 1.13.33 1.5-.76.93-1.52 1.86-2.27 2.8.08.37.22 1.13.3 1.5l-1.07.18c-.46 1.29-.95 2.57-1.38 3.87l-1.12.21.47 1.66-1.16.15c.06.31.19.91.26 1.21l-.85-.04c-.47 1.33-.98 2.65-1.47 3.98l-1.09.03c.1.38.28 1.13.37 1.51-.77.92-1.53 1.86-2.29 2.8.06.28.18.86.24 1.15-.77.94-1.54 1.88-2.29 2.84l.4 1.49-1.41.24c.1.43.31 1.3.41 1.73l-1.09.01c-.05.81-.14 2.41-.19 3.22l-1.21-.03.2 1.24c-.46 1.19-.88 2.39-1.28 3.6l-.65-.12c-.15 1.14-.3 2.29-.46 3.45-1.17 1.24-1.85 2.81-2.57 4.33.09.32.26.97.35 1.29l-1.28-.05c-.04.82-.13 2.45-.17 3.27l-1.17.03c.13.44.4 1.3.53 1.73h-1.22l-.12 3.24-1.25.01.68 1.76-1.17.02-.36 5.08-1.21-.06c.05.32.16.97.21 1.3-.53 1.27-.78 2.62-1 3.98l-.47-.27a88.43 88.43 0 0 1-1.01 3.53c-.13.9-.38 2.7-.51 3.6-.17-.06-.52-.19-.7-.25-.2 1.2-.42 2.4-.65 3.61-.43.98-.86 1.97-1.3 2.95-.49 2.3-1.08 4.57-1.4 6.9l-.64-.5c-.48 2.33.83 5.91-2.02 6.98.59.18 1.79.53 2.39.71l-2.28.64c-.13 2.34-.28 4.69-.38 7.05l-1.21-.09c.21.49.65 1.47.87 1.96l-1.25-.13c-.1 2.23-.25 4.46-.41 6.7-.3-.2-.89-.59-1.19-.78.22 1.43.42 2.87.57 4.33l-.98-.24c-.03 3.1-.19 6.19-.23 9.29-.19-.06-.56-.18-.75-.25.01 5.48-1.4 10.84-1.33 16.32l-.8-.43c.2 15.19-2.19 30.4-.46 45.55.28 7.28.37 14.58.33 21.86.65-2.05 1.13-4.1 1.43-6.17-.53 3.48-.46 7.05-.12 10.56 1 3.44.66 7.05.71 10.59.23-2.14.43-4.27.63-6.4.22 4.08.51 8.18.54 12.27l.67-.21c.05 1.76.12 3.52.19 5.29.2-.08.58-.25.77-.33.03 3.15.82 6.2 1.45 9.27.15-.06.45-.19.61-.25.07 2.08.19 4.17.28 6.27l1.3-.08c-.24.46-.71 1.39-.95 1.86.31 0 .95.02 1.27.03.07 2.09.19 4.18.3 6.29h1.51c.1 2.65.29 5.29.51 7.94l1.17-.14-.28 1.45c.52 1.53.93 3.1 1.23 4.72l.69-.34c.08.9.17 1.81.26 2.73.27.9.8 2.7 1.07 3.6l.53-.37c.2 1.66.46 3.32 1.15 4.89-.08.3-.25.91-.33 1.22.31 0 .94.01 1.25.02.12 1.73.25 3.46.38 5.21.36-.03 1.08-.07 1.43-.1.16 1.69.32 3.37.49 5.09l1.18-.06c-.08.32-.23.96-.31 1.28.7 1.41 1.39 2.83 2.14 4.22l-.22 1.11 1.26.5c-.08.3-.24.92-.32 1.23.8 1.32 1.51 2.68 2.24 4.07l-.4 1.39.99-.04c.4 1.26.83 2.51 1.3 3.77-.03.31-.11.91-.14 1.22l.92.07c.36 2.03 1.31 3.88 2.34 5.66l-.22.97c.79.97 1.6 1.97 2.39 2.97l-.57 1.36 1.44-.02-.36 1.2 1.05-.11.32 3.1H388c.39 1.61.48 3.53 2.1 4.45.13.65.38 1.94.51 2.59l1.15-.03c-.05.34-.17 1.02-.22 1.36.33.61 1 1.82 1.33 2.43l.95.21c-.11.45-.34 1.34-.46 1.78l1.24.1-.35 1.23 1.15-.15c.06.72.16 2.18.21 2.9l1.1-.03-.21 1.19 1.3.05c-.13.44-.4 1.33-.53 1.77l1.3-.07-.09 1.24 1.24.04-.44 1.72h1.28l-.07 1.17 1.06.09v1.3c1.12 1.24 2.07 2.6 3.07 3.94l-.24.7c.31.04.94.14 1.25.18l-.24 1.2c1.4 1.57 2.66 3.27 3.68 5.13.94 1.35 1.9 2.7 2.85 4.07.56 1.14 1.2 2.27 2.32 2.98.05.24.15.72.19.97 1.57 1.69 3.09 3.44 4.46 5.31l.26.17c1.28 1.88 2.79 3.6 4.35 5.27l-.04.46c1.26 1.24 2.4 2.6 3.39 4.1l.27.13c1.28 1.91 2.81 3.62 4.41 5.29l-.08.86 1.25-.09-.2 1.8c.49.08 1.47.25 1.96.33-.01.36-.02 1.08-.03 1.45 1.61 1.73 3.18 3.51 4.63 5.39l1.33-.11c-.02.32-.06.95-.07 1.27l1.09-.17.15.64c1.03.47 1.87 1.18 2.51 2.14.23.02.67.08.9.1 1.31.78 2.65 1.53 4.02 2.26.35-.13 1.06-.38 1.41-.51l-.03 1.34c.8.03 2.4.08 3.2.11l-.06.8c2.41.08 4.81.19 7.23.22l-.49.85c2.46-.08 4.91-.15 7.37-.4-.91-.47-1.82-.91-2.73-1.34 3.24.16 6.47-.04 9.71-.25l-.09-.79c.88-.37 1.77-.75 2.65-1.12l1.22.29.13-1.05c2.93-.55 5.33-2.34 7.36-4.44l1.39.04c.11-.51.31-1.52.42-2.02l1.71.33.05-1.33.71.11 1.47-1.27-.18-.74 1.18.07-.32-1.19.84-.03c.87-1.26 1.78-2.49 2.67-3.74l.38-.04c.25-.39.74-1.18.98-1.57 1.47-1.62 2.93-3.26 4.42-4.85l-.04-1.45 1.96-.32c-.05-.44-.14-1.34-.18-1.79l1.22.03-.06-1.18 1.16-.11c-.1-.44-.31-1.31-.41-1.75l1.08-.12c.43-1.32.92-2.62 1.36-3.92l.62-.06c.28-.64.85-1.92 1.13-2.55l-.24-1.4c.29 0 .87-.01 1.17-.01.11-1.72.23-3.43.35-5.13l1.16-.02c-.21-.46-.63-1.36-.84-1.81.33 0 .99.02 1.32.02.34-7.1.3-14.21.05-21.31l-.57.5c-.28-.93-.84-2.78-1.12-3.7-.13-1.23-.25-2.44-.35-3.64-.33-.02-1.01-.05-1.34-.06l.87-1.58c-.35-.12-1.05-.35-1.4-.46.06-.35.19-1.05.25-1.4-.73-.98-1.46-1.94-2.19-2.89.03-.26.1-.77.13-1.03-.91-1.46-1.68-3.02-2.97-4.17-.04-.31-.12-.95-.17-1.26l-.75.01c-.25-.39-.74-1.16-.98-1.55-1.23-1.42-2.48-2.82-3.76-4.17-.17-.39-.52-1.17-.7-1.56l-.42.03c-1.07-1.43-2.23-2.77-3.43-4.06l.01-.44c-.3-.27-.91-.8-1.22-1.07-1.73-2.09-3.59-4.06-5.23-6.21l-.36.12c-.27-.41-.8-1.22-1.06-1.63l-.01-.73-1.25.05c.1-.43.3-1.28.4-1.7l-.94-.03c-.34-.42-1.02-1.26-1.35-1.67.03-.33.1-.98.13-1.31l-.84-.12c-.79-1.26-1.64-2.47-2.5-3.66-.73-1.12-1.45-2.24-2.12-3.38l-.66-.03.12-1.16-1.26.04c.1-.43.29-1.29.39-1.72l-1.26-.04.1-1.19-1.18.04c.04-.36.13-1.09.18-1.45-1.02-1.33-2.04-2.67-2.4-4.33-.15-.01-.44-.01-.58-.01-.42-1.11-.83-2.22-1.24-3.32l-.62.1c-.46-1.32-.97-2.61-1.42-3.9l-.77.12c-.11-.63-.34-1.88-.45-2.51-1.94-1.18-1.48-3.94-3.4-5.12-.08-.66-.23-1.98-.31-2.64l-1.03-.02c.02-.28.06-.85.09-1.14-.56-1.22-.99-2.48-1.31-3.77l-.97.03.14-1.24c-.36-.91-.7-1.81-1.01-2.72l-.89-.17c.02-.31.05-.91.06-1.21-.46-1.26-.9-2.52-1.3-3.78l-.48.32c-.32-1.67-.72-3.27-1.31-4.83.1-.3.32-.9.43-1.2l-1.29.09c-.07-1.06-.2-3.17-.27-4.22l-1.11-.01.56-1.84-.97.02c-.36-2.09-.95-4.12-1.48-6.16l-.73.11c-.06-1.76-.11-3.51-.15-5.25-.23.08-.68.24-.91.31v-3.34l-.83.3c-.08-2.09-.2-4.17-.28-6.24l-.91.36-.04-3.32-.76.11c-.08-2.12-.19-4.22-.24-6.32l-.77.48c-.06-2.56-.14-5.14-.82-7.61a91.23 91.23 0 0 1-.31-5.94l-.79.41c-.27-6.68-.45-13.35-.46-20.03l-.57-.09c.01-3.13-.19-6.28.48-9.36.22-5.63.28-11.26.4-16.89l.8.54c.07-2.62.22-5.23.47-7.83.68-2.49.7-5.09.81-7.64l.76.47c.05-2.1.16-4.21.24-6.3l.77.09c.01-.83.02-2.49.03-3.32.22.1.68.29.91.39.08-2.1.2-4.19.28-6.27l.81.32c.01-.85.03-2.56.05-3.42l.83.44c.09-2.13.22-4.25.36-6.37.37.05 1.1.14 1.47.18.16-2.02.35-4.05.53-6.05l1.26.27c-.2-.35-.61-1.04-.81-1.39l1.13.22.24-4.21c.31.01.93.02 1.24.03-.08-.31-.24-.93-.33-1.25.55-1.56.98-3.15 1.28-4.77l.48.32c.41-1.3.85-2.57 1.33-3.83-.04-.3-.13-.91-.17-1.21l1.19.02c.03-.77.11-2.31.15-3.08l1.18-.06-.74-1.25 1.02.38c.31-1.33.75-2.62 1.31-3.85-.02-.28-.07-.85-.09-1.13l1.04-.04c.07-.66.22-1.98.29-2.64 1.55-.77 1.67-2.53 2.16-3.97 1.19-.87 1.57-2.27 1.88-3.63l.58.08c.46-1.3.98-2.57 1.44-3.86l1.03-.12c-.08-.44-.23-1.31-.31-1.75l1.16-.19-.3-1.24.83.16c.74-2.03 1.8-3.93 2.74-5.87l.68.01-.1-1.19 1.26-.03c-.1-.43-.3-1.29-.4-1.73l1.26.05-.08-1.17 1.09-.01c0-.34.01-1.02.01-1.35 2.4-2.49 4.01-5.58 6.02-8.35.74-1 1.48-1.99 2.3-2.92.18-.39.54-1.16.72-1.55l.4.08c1.25-1.62 2.59-3.18 3.86-4.79l.71-.03-.12-1.09h.66c.33-.35.98-1.03 1.31-1.37v-.42c1.21-1.3 2.37-2.64 3.42-4.07l.34-.01c.29-.39.88-1.17 1.17-1.56l-.06-.72.76.03c.87-1.28 1.8-2.52 2.68-3.79l.74-.02-.08-1.11 1.04-.01c.06-.35.19-1.05.25-1.4 1.38-1.09 2.04-2.73 2.93-4.18l.05-.67c.36-.84.71-1.68 1.05-2.52.28-.07.82-.22 1.09-.3l-.4-1.72 1.31-.36-.64-1.81 1.27.15c.1-1.74.21-3.48.32-5.21l.6.23c.33-1.5.73-2.99 1.11-4.46.3-5.65.13-11.3.06-16.94l-.58.18c-.39-2.6-1.07-5.12-1.56-7.69-.62-1.31-1.2-2.62-1.81-3.91l.25-1.21-1.1-.18c-.41-1.29-.86-2.57-1.29-3.84l-1.14-.21c.1-.44.29-1.3.39-1.73l-1.17-.14.07-1.17-1.21.05c.05-.45.13-1.35.17-1.8l-1.96-.32.08-1.45c-1.64-1.65-3.24-3.36-4.73-5.16-.36-.02-1.08-.05-1.44-.07l.14-1.22-1.18.24-.05-.69c-.96-.61-1.8-1.37-2.5-2.25l-1.33.04.03-1.15-2.6-.4c-.57-1.55-2.18-1.72-3.55-2.04l-.05-.89-1.09.04c-1.26-.58-2.58-.93-3.97-1.04l.22-.49c-8.12-2.57-16.81-1.31-25.17-1.18m334.2 4.8c-2.09.46-4.15.97-6.25 1.32.09.11.26.33.35.45-1.3.36-2.58.78-3.84 1.26l-1.19-.08-.03 1.16c-.61.1-1.85.3-2.47.4-1.31 1.29-3.11 1.96-4.29 3.39-.32.04-.95.11-1.26.14l-.03 1.09-1.12-.03-.01 1.15-1.24.04c-.72.75-1.44 1.5-2.17 2.24-1.36 1.34-2.62 2.77-3.82 4.25-.22.36-.67 1.07-.89 1.43l-.81.01c-.04.32-.13.95-.18 1.27-1.29 1.04-1.98 2.57-2.79 3.98-.45 1.14-.9 2.27-1.29 3.44l-1.01.3c.07.45.22 1.35.3 1.8l-1.33.32c.18.43.55 1.3.73 1.74-.33-.01-.98-.01-1.3-.02-.13 1.7-.24 3.4-.34 5.11l-1.12.05c.17.48.53 1.43.71 1.91l-1.24-.19c-.3 7.13-.32 14.26.02 21.39l1.31-.21c-.21.47-.63 1.41-.83 1.88l1.15.03c.11 1.72.23 3.44.36 5.17.3-.01.89-.04 1.19-.06-.08.35-.23 1.04-.31 1.39.29.65.88 1.96 1.17 2.61l.6.08c.41 1.31.89 2.61 1.34 3.93l1.1.05c-.08.37-.23 1.11-.31 1.47 1.58 1.72 3.09 3.52 4.42 5.45l.24.15c1.16 1.53 2.42 2.98 3.7 4.42.26.37.77 1.11 1.03 1.49l.74-.06-.16 1.18 1.24-.09v1.35c1.02.58 1.77 1.41 2.27 2.48l.75-.02-.25 1.19.76-.06c1.33 2.12 3.29 3.75 4.71 5.81l.68.05-.05 1.11 1.1.07c-.03.45-.1 1.34-.14 1.79l1.49.32c.51 1.24 1.09 2.45 1.71 3.67l.92.18-.25 1.16h1.45l-.43 1.28c1.44 1.67 2.84 3.37 4.3 5.03l-.36 1.32.92.03c.37.42 1.09 1.26 1.46 1.67-.06.22-.17.66-.22.88.96 1.23 1.79 2.57 2.53 3.95l.84 1.72.77.04c-.08.44-.24 1.3-.32 1.73l1.48.35-.31 1.3c.77.98 1.51 1.97 2.31 2.96-.08.36-.23 1.09-.31 1.46l1.16-.04-.14 1.22 1.37.04-.41 1.23c.45.83.89 1.67 1.34 2.53l.5.05c.26 1.61.21 3.49 1.71 4.56.43 1.09.88 2.18 1.35 3.27-.01.28-.05.85-.07 1.13l1.08.03.2 3.21 1.31-.03-.26 1.18c.49 1.21.9 2.46 1.28 3.72l.47-.18c.22.89.64 2.67.86 3.56.71 2.07 1.5 4.11 2.32 6.16-.09.36-.29 1.09-.38 1.45l1.25-.08c.06 1.04.19 3.13.25 4.17l1.12.12c-.16.44-.49 1.33-.66 1.78l1.27-.07c.09 2.05.22 4.11.32 6.18.22-.08.66-.25.87-.34.01.83.02 2.48.03 3.3l.83-.2c.03 1.77.08 3.53.14 5.31l.75-.35c.15 1.54.37 3.09.97 4.55.19 1.95.29 3.9.37 5.87l.77-.45c.05 2.07.16 4.15.22 6.23.16 0 .48 0 .64.01.04 2.39.15 4.8.2 7.21.21-.08.62-.22.83-.3.29 6.22.28 12.45.55 18.67.85 5.5.49 11.14-.2 16.65-.07 4.25-.21 8.51-.39 12.77l-.79-.33c-.12 3.55-.27 7.11-.35 10.67l-1.31-1.02c.18 1.17.53 3.51.71 4.69l-1.01-.35c-.07 2.11-.19 4.22-.25 6.34h-1.23c.22.48.66 1.45.88 1.93l-1.26-.12c-.14 2.38-.29 4.77-.39 7.16-.5.06-1.49.17-1.98.22.53.37 1.59 1.12 2.12 1.49l-1.76.14c-.08 1.74-.16 3.49-.22 5.26-.31 0-.94.01-1.25.02.18.44.55 1.32.73 1.76h-1.22c-.09 1.41-.17 2.84-.24 4.27l-.75-.28c-.49 2.11-1.05 4.19-1.45 6.32l-.46-.36c-.26.89-.8 2.69-1.06 3.58-.14.89-.25 1.78-.36 2.68l-.87-.24c-.13 1.35-.24 2.7-.35 4.07-.31 0-.93.01-1.24.01-.38 1.28-.82 2.55-1.34 3.8.05.28.14.84.18 1.12l-1.16.06c-.14 1.34-.26 2.68-.38 4.03h-1.55c-.04.8-.11 2.39-.15 3.19l-1.05.04.24 1.68-1.26.27c.06.37.2 1.12.26 1.5-.79.94-1.58 1.89-2.35 2.86l.45 1.3-1.53.36.26 1.7-1.09.12c.05.31.15.94.21 1.25l-.77-.04c-.28.6-.84 1.81-1.12 2.42-.09.19-.26.57-.34.76-.6 1.15-1.09 2.35-1.46 3.6l-1.16-.04c-.15.64-.44 1.92-.59 2.56-1.15 1.25-2.15 2.63-3.05 4.07-.72 1.11-1.55 2.14-2.48 3.08.01.34.02 1.02.03 1.36l-.95.01c-.5 1.01-.99 2.02-1.47 3.05l-.61-.12c-.48 1.02-.94 2.04-1.4 3.07l-.47.03c-.85 1.3-1.76 2.56-2.62 3.84l-.76.02.04 1.14-.69-.15c-.29.38-.86 1.14-1.15 1.52l-.02.69-.69.07c-.45 1.09-1.28 1.86-2.3 2.4l.04 1c-.36.33-1.07.99-1.43 1.32-1.85 2.21-3.82 4.32-5.83 6.39l.3.83-.81.06c-1.01 1.41-2.09 2.76-3.2 4.1-1.25 1.79-2.43 3.63-3.73 5.39-.12.63-.36 1.88-.49 2.5l-.76-.11c-.49 1.69-1.04 3.35-1.48 5.06l-.57-.29c-.25 1.74-.02 3.79-1.49 5.07l1.69.66c-.55.14-1.64.42-2.18.57-.37 7.01-.32 14.03-.1 21.05.22-.08.65-.23.86-.31.04.8.11 2.41.14 3.21l.81-.1c.03 1.07.1 3.2.13 4.26l.64-.42c.38 1.3.82 2.61 1.31 3.91l-.19 1.05 1.55.44-.23 1.17c.31.6.92 1.8 1.22 2.41.28.12.84.37 1.12.49l-.66 1.51c.33.04 1 .11 1.33.15l-.17 1.12.68-.06c1.35 1.89 2.89 3.65 4.51 5.34l-.36.81 1.29-.12c.03.47.1 1.4.13 1.87.44.01 1.31.02 1.75.03l-.14 1.21.78.01c.64.77 1.28 1.56 1.92 2.36 1.8 1.86 3.85 3.46 6.04 4.88l3.03 1.93c1.1.62 2.19 1.32 3.09 2.25 1.17.16 2.35.32 3.55.47l-.28.67c1.3.3 2.6.66 3.85 1.21l1.15-.38.04 1.34c2.72.09 5.45.23 8.19.29l-.27.77c2.41-.05 4.84-.09 7.27-.08l-.32-.68c2.44-.01 4.87-.1 7.32-.17-.06-.23-.17-.7-.23-.93.78-.04 2.33-.11 3.11-.14l-.08-.8c.8-.01 2.4-.05 3.2-.07v-1.31l1.64.41c.07-.3.2-.9.27-1.2l1.21.23-.08-.84c1.26-.48 2.51-.99 3.78-1.47l-.14-1.01 1.22.28-.04-1.15.71.07c.32-.35.98-1.03 1.31-1.38l-.02-.68.69.01c.33-.33 1.01-.99 1.34-1.32l-.05-.72.75.12c.24-.38.73-1.14.98-1.51 2.8-3.32 5.28-6.92 8.39-9.97-.02-.36-.05-1.07-.07-1.43l1.96-.32c-.03-.46-.11-1.37-.15-1.83l1.24.09-.19-1.15.7-.04c1.24-1.64 2.55-3.23 3.79-4.87l.31-.18c1.28-1.8 2.6-3.58 3.92-5.36.64-1 1.26-2.02 1.9-3.01.93-1.38 1.88-2.73 2.87-4.06.51-.95 1.03-1.89 1.57-2.81.78-1.13 1.59-2.23 2.39-3.33.74-1.28 1.51-2.52 2.28-3.77 1.27-1.72 2.46-3.49 3.54-5.33.65-.91 1.32-1.8 2.01-2.68l-.43-1.41c.33-.02 1-.05 1.33-.06l-.23-1.17 1.21.01c-.08-.38-.24-1.14-.32-1.53.73-.94 1.47-1.88 2.22-2.81-.04-.28-.11-.85-.15-1.13.72-.97 1.45-1.94 2.19-2.9-.01-.23-.02-.7-.03-.93.53-1.04 1.07-2.06 1.63-3.07.98-1.01 1.46-2.32 1.77-3.66l.81.14-.52-1.17 1.19.17c.07-.79.22-2.38.29-3.17l1.2.33-.63-1.2.92.04c.2-1.35.7-2.57 1.49-3.64l-.25-1.09 1.3-.42-.36-1.36c.84-1.46 1.68-2.91 2.52-4.36-.26-.1-.79-.32-1.06-.43 1.57-.96 2.03-2.81 2.83-4.34-.09-.32-.26-.95-.35-1.26l.94-.07 1.28-3.43v-1.41l1.37-.34-.39-1.26c.41-.87.82-1.74 1.23-2.6l.48-.02c.41-2.02 1.05-3.96 1.62-5.93l.65.02c.04-1.04.13-3.12.18-4.16l1.35-.04-.81-1.74 1.23-.03c0-1.8-.04-3.57.07-5.35.52.89 1.01 1.81 1.49 2.77-.93-2.6.31-5.12.77-7.65.18.06.54.19.72.25.15-2.02.35-4.02.49-6.02.36.01 1.09.01 1.46.02.15-2.01.32-4 .45-5.99.57-.16 1.72-.5 2.3-.67l-2.92-1 2.22-.4c.08-2.07.2-4.12.29-6.17l1.17.13c-.2-.5-.59-1.52-.79-2.02l1.22.12c.11-2.42.26-4.83.38-7.24.21.1.65.28.86.38.01-.82.02-2.47.03-3.29l.81.15c.07-2.37.23-4.74.36-7.09.19.06.55.18.74.25.61-4.16 1.16-8.33 1.11-12.54l.75.46c.09-2.56.1-5.15.79-7.63.28-2.91.42-5.83.51-8.74.21.11.61.33.82.43-.04-6.74.32-13.47.27-20.21l.55-.06c-.04-8.12.6-16.31-.47-24.38-.21-5.98-.32-11.95-.38-17.92l-.8.51c-.1-3.07-.32-6.14-.38-9.21l-.62-.03c-.04-1.75-.1-3.51-.1-5.25l-.84.36c.09-5.45-.86-10.81-1.4-16.21l-.75.39c-.06-1.82-.13-3.62-.17-5.42l-1.11.01c.19-.5.58-1.49.77-1.99l-1.29.2c-.12-2.39-.27-4.76-.37-7.14l-2.16-.42c.73-.25 2.18-.74 2.9-.99-.59-.17-1.77-.5-2.37-.67-.1-2.35-.26-4.69-.37-7.03l-1.22.14c.2-.5.62-1.48.83-1.97l-1.17.01c-.14-2.04-.32-4.07-.48-6.1l-1.21.12c.07-.35.22-1.03.3-1.38-.5-1.54-.91-3.09-1.23-4.66l-.71.18c-.08-.9-.15-1.8-.22-2.68l-1.08-3.56-.66.31c-.08-1.43-.15-2.85-.21-4.27l-1.16-.11.72-1.79-1.27.12c-.1-1.45-.18-2.9-.25-4.33l-1.2-.04.8-1.72-1.29-.04c-.09-1.06-.28-3.18-.37-4.24l-1.51.2c-.12-1.37-.23-2.74-.32-4.11l-1.32-.08.38-1.07a23.83 23.83 0 0 1-1.36-3.88l-1.02.05c.1-.33.31-.98.42-1.31-.73-1.39-1.48-2.78-2.23-4.12.06-.33.19-1 .26-1.33l-1.25-.42.53-1.68-1.04-.04c-.4-1.25-.82-2.49-1.26-3.71.04-.29.13-.88.17-1.17l-1.19.02c-.05-.81-.16-2.42-.21-3.23l-1.13.26.35-1.23-1.26-.05c.09-.37.26-1.13.34-1.5-.8-.98-1.55-1.96-2.32-2.93l.3-.98c-.81-1.01-1.57-2-2.34-3l.4-1.32-1.15-.13c-.46-1.31-.94-2.59-1.36-3.89l-.57.1c-.39-.94-.77-1.87-1.15-2.79-.73-1.27-1.44-2.55-2.12-3.81l.31-.7-1.06.17c-.1-.61-.31-1.84-.41-2.45-1.22-1.23-2.15-2.68-3.09-4.1-.96-1.53-1.93-3.03-2.82-4.59l-.43-.2c-1.19-2.33-2.64-4.52-4.43-6.42l.25-.82c-.36-.42-1.07-1.27-1.43-1.69l-1.05-.12.66-1.57-1.34-.14.09-1.16c-.35-.01-1.04-.03-1.38-.05l.55-1.25c-.39-.42-1.16-1.26-1.54-1.67-.24-.05-.73-.13-.97-.18l.47-1.18c-1.64-1.73-3.18-3.53-4.58-5.45l-.35-.1c-1.19-1.68-2.44-3.31-3.62-4.98l-.39-.06c-.87-1.28-1.77-2.52-2.63-3.78l-.4.02c-.38-.53-.75-1.06-1.11-1.59-.87-1.15-1.73-2.29-2.53-3.47l-.78.06.22-.87c-2.14-2.48-4.53-4.72-6.69-7.18-.33 0-.99-.01-1.32-.02l.08-1.17-1.15.09-.01-1.1c-.33-.03-.98-.09-1.31-.11-1.2-1.34-2.79-2.22-4.28-3.16-1.04-.51-2.06-1.03-3.05-1.57-.17-.05-.51-.16-.68-.21-1.26-.45-2.52-.86-3.79-1.22l.44-.47c-2.15-.31-4.26-.82-6.35-1.3.03-.19.11-.56.15-.74-6.07-.28-12.14-.27-18.2-.01l.16.75M616.5 536.05l.21 1.25c-2.46.07-4.91.2-7.35.33l.2 1.18c-.51-.16-1.52-.47-2.03-.63l.04 1.11c-1.75.07-3.49.18-5.22.27l.24.71c-2.73.68-5.36 1.66-8.01 2.59l-.2.72-1.74-.24-.24 1.48c-.45-.11-1.35-.33-1.79-.45l-.07 1.22-1.24-.39.25 1.18c-.78.07-2.34.22-3.11.3l.17 1.06-1.22-.36.15.76c-2.04.81-3.99 1.81-5.99 2.69l-.14.41c-1.3.84-2.56 1.72-3.83 2.59l-.05.81-1.17-.3.06.82c-1.26.88-2.49 1.82-3.73 2.74l-.1.7-.65.05c-.39.27-1.16.83-1.55 1.1l.04.31c-1.62 1.19-3.14 2.51-4.64 3.85-.89 1.15-1.79 2.29-2.64 3.47l-.37.01c-.22.4-.66 1.21-.88 1.61-1.28 1.33-2.53 2.71-3.83 4.03-.19.42-.58 1.25-.78 1.66l-.42-.04c-.84 1.15-1.71 2.3-2.53 3.47-.62 1.43-1.34 2.83-2.46 3.94-.13.64-.38 1.91-.51 2.55l-1.12-.06c.04.34.13 1.02.17 1.36-.36.52-1.08 1.54-1.45 2.06-.81 1.41-1.67 2.79-2.55 4.16.06.3.2.91.27 1.21l-1.32.48.61 1.66-1.34.01c-.1 1.36-.21 2.74-.3 4.12l-1.19.01c.17.45.52 1.34.69 1.79l-1.23-.13c-.1 1.78-.21 3.56-.28 5.36l-1.29-.07c.22.46.66 1.39.87 1.85-.31.01-.94.01-1.25.02-.08 2.1-.17 4.22-.21 6.34l-.75-.39c-.14 2.38-.31 4.77-.42 7.17l-.61-.16c-.14 8.12-.08 16.23 1.05 24.28l.69-.43c.06 2.39.19 4.76.29 7.16.61.15 1.82.46 2.43.62-.76.24-2.29.74-3.06.98l2.32.41c.07 1.7.16 3.4.26 5.12.33-.03 1-.1 1.33-.13l-.97 1.24 1.3-.23c.06 1.04.2 3.13.26 4.18.31-.01.93-.04 1.24-.05l-.52 1.76 1.28.3c-.08.37-.23 1.11-.3 1.48.75.92 1.51 1.85 2.27 2.79-.06.36-.17 1.09-.23 1.46l1.48.31-.41 1.64c.31.06.93.2 1.25.27l-.42 1.2.93-.15c.44 1.32.94 2.64 1.43 3.96l.61-.15c.32 1.44.62 3.01 2.14 3.68l.12 1.1c1.46 1.6 2.92 3.23 4.36 4.87l.93 1.21c1.1 1.31 2.18 2.64 3.17 4.05l.37.02c.29.39.88 1.17 1.18 1.57l-.12.74 1.22-.16.12 1.89c.46-.01 1.36-.02 1.82-.03l.08.73c1.56 1.14 3.05 2.39 4.54 3.64.38.25 1.13.75 1.51 1l-.02.36c1.63 1.25 3.21 2.57 4.87 3.81l.03.74 1.23-.37-.14.98c1.29.39 2.54.83 3.82 1.3l.19 1.18c.37-.08 1.12-.26 1.49-.34.92.76 1.85 1.53 2.78 2.31.38-.1 1.15-.29 1.53-.39l.01 1.31 1.26-.37-.27 1.13c.79.06 2.36.19 3.14.25l-.27 1.23 1.2-.55-.09 1.1c.82.04 2.44.14 3.26.18l-.07 1.31c.3-.08.9-.25 1.2-.33 1.25.42 2.52.83 3.81 1.22l-.14.57c2.13.37 4.23.87 6.37 1.25l-.34.66c1.55.13 3.11.3 4.66.51 1.86.51 3.79.68 5.72.82l-.54.72c9.13.46 18.27.41 27.4.08l-.44-.76c2.21-.1 4.44-.24 6.59-.87 1.55-.21 3.11-.37 4.69-.51l-.36-.8c1.84-.13 3.7-.25 5.55-.43 1.12-1.29 2.77-1.86 4.27-2.59.36.11 1.08.34 1.44.45l-.09-1.3c.81-.04 2.44-.13 3.25-.18l-.08-1.09 1.19.54-.26-1.23 3.13-.24-.25-1.14 1.25.37.01-1.31c.38.1 1.15.29 1.53.39.92-.78 1.84-1.55 2.78-2.31.37.09 1.13.25 1.5.34l.17-1.17c1.25-.48 2.56-.91 3.84-1.33l-.14-.98 1.23.4.01-.75c1.65-1.23 3.24-2.55 4.87-3.81v-.36c.37-.25 1.12-.75 1.49-1 1.49-1.25 2.97-2.49 4.54-3.63l.1-.74 1.8.04c.04-.48.1-1.43.13-1.9l1.23.15-.14-.73c.3-.39.9-1.17 1.19-1.56l.37-.03c.97-1.41 2.06-2.74 3.17-4.05l.94-1.22c1.43-1.64 2.88-3.26 4.35-4.86l.12-1.1c1.52-.67 1.8-2.24 2.13-3.68l.62.14c.48-1.33.98-2.65 1.44-3.97l.94.17-.44-1.2c.32-.07.94-.21 1.25-.27l-.4-1.62 1.1-.28c.44-1.24.92-2.48 1.4-3.7l1.09-.3c-.09-.44-.29-1.34-.39-1.79l1.28-.28-.52-1.83 1.22.2c.09-1.43.19-2.85.3-4.26l1.19.2c-.19-.37-.57-1.09-.76-1.45l1.21.44c.09-1.76.18-3.52.28-5.27l1.51-.11c-.41-.42-1.23-1.24-1.64-1.66.45.01 1.34.01 1.79.02.1-2.44.23-4.88.31-7.3.18.08.53.25.7.33 1.13-8.04 1.17-16.12 1.04-24.23l-.61.16c-.12-2.38-.29-4.76-.42-7.14-.19.07-.57.2-.76.27-.05-2.1-.14-4.18-.19-6.25-.32-.01-.97-.02-1.29-.03.23-.46.69-1.37.93-1.83l-1.31.07c-.11-1.8-.21-3.58-.29-5.37l-1.23.12c.18-.44.52-1.33.69-1.78h-1.19c-.11-1.39-.21-2.77-.3-4.13l-1.34-.01.62-1.66-1.33-.48c.07-.3.21-.91.27-1.21a74.28 74.28 0 0 1-2.55-4.14c-.36-.52-1.1-1.55-1.46-2.06.04-.35.13-1.04.18-1.38l-1.13.06c-.12-.64-.37-1.91-.49-2.55-1.17-1.09-1.84-2.53-2.47-3.94-.84-1.17-1.7-2.32-2.53-3.48l-.42.06c-.2-.42-.6-1.24-.79-1.65-1.4-1.39-2.7-2.86-3.86-4.44l-.4.07c-.19-.39-.57-1.19-.76-1.59-1.3-1.4-2.57-2.84-3.81-4.28-1.14-.92-2.29-1.82-3.46-2.68l-.05-.26c-2.01-1.43-3.87-3.03-5.62-4.75-.39-.22-1.17-.65-1.56-.87l.02-.42c-1.3-.87-2.57-1.75-3.86-2.59l.02-.69c-.78-.06-2.35-.2-3.13-.27l.12-1.56-3.23-.32.21-1.16-1.21.59.28-1.12c-.8-.09-2.41-.27-3.21-.37l.04-1.55-3.05-.24-.04-1.28c-.41.09-1.24.26-1.65.35l-.36-.8c-2.21-.64-4.34-1.46-6.45-2.35l-1.4.31.14-1.21c-1.76-.1-3.52-.22-5.27-.29l.08-1.2c-.48.2-1.42.61-1.9.81l.04-1.27c-2.38-.12-4.75-.24-7.12-.3l-.44-2.26c-.26.77-.77 2.33-1.03 3.11-.16-.61-.5-1.83-.67-2.43-8.65-.24-17.3-.25-25.95.01l.26 1.51c-.54-.31-1.6-.91-2.14-1.21z"/></svg>