<svg xmlns="http://www.w3.org/2000/svg" viewBox="0 0 299.99 299.99"><path d="M149.995 0C67.158 0 0 67.156 0 149.995S67.158 299.99 149.995 299.99c82.839 0 149.995-67.156 149.995-149.995S232.834 0 149.995 0zM89.481 211.219l-37.176 9.959 10.177-37.973a81.277 81.277 0 0 1-11.051-40.997c0-45.074 36.541-81.618 81.62-81.618 45.071 0 81.615 36.544 81.615 81.618s-36.544 81.62-81.615 81.62c-16.028.004-30.96-4.629-43.57-12.609zm158.279 25.757l-33.818-9.059a73.896 73.896 0 0 1-39.63 11.474 73.893 73.893 0 0 1-29.248-5.999c45.064-5.9 79.981-44.527 79.981-91.177a91.477 91.477 0 0 0-8.216-37.926c19.182 13.427 31.73 35.67 31.73 60.853a73.935 73.935 0 0 1-10.05 37.293l9.251 34.541z"/></svg>