<svg viewBox="0 0 1263 1263" xmlns="http://www.w3.org/2000/svg"><path d="M600.55 6.87c50.31-2.33 100.92.99 150.37 10.63 76.23 14.68 149.61 43.88 215.14 85.5 77.88 49.34 144.64 116.11 193.98 194 45.62 71.8 76.25 153.07 89.32 237.14 14.59 93.97 7.93 191.29-20.22 282.17-23.06 74.8-60.46 145.11-109.45 206.13-47.29 58.98-105.28 109.38-170.4 147.82-73.34 43.44-155.72 71.5-240.33 81.87-93.44 11.47-189.51 2.12-278.66-28.32-78.22-26.44-150.96-68.83-212.8-123.52-38.95-34.48-73.69-73.74-102.98-116.73-45.83-67.07-78.36-143.18-95.01-222.68-18.68-89-17.81-182.07 2.62-270.68 15.1-65.53 40.98-128.55 76.21-185.82 34.18-55.63 77.15-105.81 126.73-148.26C283.43 106.13 351.06 67 423.55 41.49c56.9-20.06 116.74-31.72 177-34.62M435.77 231c3 .25 8.99.73 11.98.98-2.89.44-5.79.6-8.69.49l.81 1.1c-1.58-.05-3.16-.09-4.73-.13l.72 1.12c-1.92-.05-3.83-.06-5.73-.11l.72 1.09c-.95-.02-2.86-.05-3.81-.07l1.02 2.24c-.96-.34-2.88-1.03-3.84-1.37.14.55.42 1.63.57 2.17-.92-.02-2.76-.08-3.68-.11l.75 1.16c-.92-.04-2.77-.13-3.69-.17l.63 1.19c-.84-.04-2.53-.13-3.37-.17 0 .75-.01 2.27-.01 3.02l-4.31-.06.7 1.09c-1.55.02-3.09.03-4.63.05l.52 1.87c-.88.05-2.63.15-3.5.21.16.47.48 1.43.64 1.9-.88-.01-2.64-.05-3.52-.07l.78 2.54-1.86-3.03.46 2.69-2.35-.24c.07.56.2 1.67.27 2.23l-3.97-.54 3.88 1.47c-.98-.03-2.94-.08-3.92-.11-.17.78-.52 2.33-.69 3.11l-.97-4.24-.54 4.62c-.46-.18-1.38-.53-1.84-.71l-.2 3.11c-1.38.08-2.76.15-4.13.23l.64 2.11-1.61-.56.4 1.64c-.57-.11-1.73-.33-2.31-.43.06.55.19 1.67.25 2.22-.61-.02-1.84-.06-2.45-.09l.79 2.44-3.07-2.61c.84 1.13 2.5 3.39 3.33 4.53l-4.14-3.32 3.05 4.15-3.83-2.84 2.85 3.81-3.79-2.71 2.5 3.3-2.54-1.5.64 2.01-1.6-.45.28 2.49c-.52-.1-1.56-.3-2.08-.41l-.12 3.29c-.52-.09-1.56-.25-2.08-.33l.39 3.17-1.47-2.97.28 4.21c-.52-.12-1.56-.36-2.07-.48v2.6l-2.3-.75 2.35 2.82-3.31-2.16 2.63 3.83-2.94-2.57c.22.95.67 2.84.89 3.78l-1.74-.46c.18.51.53 1.52.71 2.02-1.23.17-3.7.5-4.93.66l5.46 1-3.89.55.12 3.24-2.2-.51c.5.56 1.51 1.66 2.02 2.22l-2.02-.17c.07.59.22 1.77.29 2.36l-2.16-.36.16 3.53-1.13-.71c-.04 1.85-.04 3.71-.05 5.57l-3.25-.82 4.22 2.13-3.01-.77c.03.9.09 2.7.13 3.6l-1.51-.61c.23.61.68 1.82.9 2.42l-1.49-.49c.01 1.55.03 3.1.05 4.65l-1.03-.69c.01 2.51-.05 5.02 0 7.53l-3.01-3.26c1.43 1.76 2.17 3.76 2.21 5.99l-4.38.55c1.21.26 3.62.79 4.83 1.06l-5.46 1.06 2.96.38c-.23 2.43-.23 4.87-.16 7.31l-1.02-.6c.07 38.76-.05 77.51.06 116.27l-4.09.6 4.19.97c-3.82.89-7.75.37-11.61.47-42.28.06-84.55-.12-126.82.08l.72 1c-1.78-.07-3.54-.07-5.31-.12l-.57 3.86-1-5.42-.62 4.1c-.97-.43-2.92-1.28-3.89-1.71l3.38 4-3.97-3.02 1.1 2.2c-1.56.06-3.12.11-4.67.17.09.49.29 1.47.38 1.95-.6-.04-1.8-.14-2.4-.19l.45 3.17-1.72-3.94.62 3.19-3.55-.79 3.28 1.57c-1.02-.02-3.08-.04-4.11-.05.12.51.36 1.53.49 2.03-.6-.02-1.8-.07-2.4-.09.07.55.22 1.65.29 2.2l-2.34-.28c.1.57.29 1.72.39 2.3l-1.66-.45.63 1.58c-.55-.13-1.64-.4-2.19-.53l.08 2.54c-.5-.13-1.49-.39-1.98-.52l-.08 3.5-2.72-.65 2.91 1.95-3.47-.85c.47.53 1.43 1.58 1.9 2.11-.72.06-2.16.17-2.88.22.18.53.54 1.6.73 2.14l-1.48-.5c.02 1.51.04 3.03.07 4.56l-1.22-.58c.05.87.15 2.62.19 3.49-.77-.1-2.33-.29-3.11-.38-.6 9.89-.39 19.8-.42 29.7v87.01c.05 11.84-.24 23.69.51 35.51.83-.05 2.49-.17 3.32-.22-.16.6-.47 1.8-.62 2.4l1.37-.51-.16 3.55 1.29-.46c-.08.63-.25 1.88-.33 2.51l2.47-.63-2.3 2.07 3.18-1.6-3.04 2.81 4.01-2.27-2.59 2.73 2.56-.73c-.37 1.1-1.13 3.3-1.51 4.4l3.65-2.98-2.59 3.54 2.29-1.25-.2 2.03 1.38-.89-.64 3.4 1.81-4.04-.58 3.39 2.71-.61-2.79 2.05 3.23-1.34-2.8 2.68 3.64-2.17-2.56 3.46 3.34-2.64-1.09 2.29 1.92-.09-.67 2.36c.56-.46 1.67-1.38 2.23-1.84 0 .7.01 2.09.01 2.79.87-.15 2.6-.44 3.47-.59l-3.85 1.74 3.63-.59-.29 1.62c.57-.22 1.7-.65 2.26-.86l-.43 1.46c1.7.06 3.4.13 5.1.21.03.72.08 2.15.1 2.86 1.45-.05 2.9-.09 4.36-.12l-.61 1.16c1.56-.08 3.13-.14 4.7-.21l-.8 1.14c2.2-.04 4.41.02 6.61-.03l-.26 2.64c.53-.75 1.59-2.23 2.12-2.98l-.3 2.36c6.08.01 12.17.07 18.26-.05l.48 3.42 1.04-5.51.97 7.45c.27-1.33.81-3.99 1.08-5.33.28 2.11.44 4.23.49 6.37l1.01-.76c-.08 1.91-.09 3.83-.15 5.76l1.02-.75c-.02 2.93.08 5.86.03 8.8l.98-.79c0 2.26-.03 4.52 0 6.79l1.13-.83c-.04.95-.14 2.87-.18 3.82l1.41-.81c-.14.66-.41 1.99-.55 2.65l-1.56 1.56 2.71-1.23c-.01 3.26.11 6.52.09 9.79l.98-.69c-.04 1.91-.05 3.8-.08 5.73l1.1-.73c-.06 1.92-.09 3.84-.15 5.77l1.15-.77c-.07 1.58-.14 3.16-.2 4.75l1.15-.73c.01 2.23-.02 4.46 0 6.7l1.02-.79c-.04 2.91.07 5.83 0 8.76l.99-.74c-.04 2.59 0 5.19-.02 7.79l1.15-.82c-.07.96-.19 2.87-.25 3.82l1.23-.82-.18 4.75 1.13-.71c-.01 2.26-.08 4.51-.09 6.78l1.01-.8c-.06 2.9.08 5.82.03 8.73l1.04-.69c-.03 2.56.01 5.14-.03 7.71l1.13-.8c-.07 1.58-.13 3.17-.19 4.77l1.16-.77c-.04 1.88-.04 3.79-.08 5.69l1-.69c-.55 4.64 2.96 9.89-.21 14.02l2.19-1.03-.12 3.9 1.18-.83c-.05.95-.15 2.85-.19 3.8l1.15-.82c0 2.24-.06 4.49-.05 6.76l1.02-.72c-.06 2.86.04 5.73 0 8.6l1.04-.47c-.05 1.87-.06 3.73-.11 5.62l1.06-.8c-.02 2.6.03 5.21.04 7.82l1.09-.84c-.04 1.9-.05 3.83-.09 5.76l1.09-.78c-.03 1.95-.02 3.91-.01 5.88l1.94-1.07c-1.99 2.92-.58 6.71-.98 10.04l1.05-.84c-.06 1.59-.11 3.2-.16 4.81l1.19-.78c-.05 1.57-.09 3.14-.14 4.73l1.14-.79c-.05 1.91-.06 3.86-.12 5.79l1.05-.78c.01 2.24-.04 4.51-.04 6.77l1.01-.67c-.05 1.89-.07 3.78-.1 5.69l1.08-.67c-.06 2.89.05 5.8.01 8.7l1.14-.84c-.06.96-.17 2.88-.22 3.84l1.19-.82-.21 4.79 1.1-.75c-.04 2.56.03 5.15-.03 7.72l.99-.64c-.05 2.9.04 5.81 0 8.72l1.14-.82c-.06.95-.17 2.87-.23 3.82l1.24-.8c-.06.96-.2 2.89-.26 3.85l1.12-.88c.01 2.6.03 5.21 0 7.82l1-.79c-.03 2.58.02 5.17.01 7.77l1.03-.71c0 2.24-.07 4.47-.08 6.73l1.04-.75c0 2.23.05 4.48.09 6.73.46-.19 1.39-.55 1.86-.73-.03 1.93-.03 3.86-.06 5.82l1-.79c-.04 4.25.19 8.5.12 12.76l1.08-.78-.24 4.33 3.86.53c-1.48.25-4.44.75-5.92 1.01l4.31.58c-.1 1.43-.19 2.88-.28 4.34l1.13-.78c-.06 3.56.09 7.13.08 10.71l.92-.69c.02 3.34.15 6.7.2 10.06l2.55-2.24c-1.39 1.71-1.97 3.68-1.74 5.9l2.83-1.16c-1.73 1.53-2.31 3.56-1.74 6.08.63-.24 1.89-.71 2.52-.94-.44.99-1.32 2.96-1.76 3.95l1.26-.76c-.01 1.62 0 3.26.02 4.91l2.08-1.29c-.33 1.01-.99 3.04-1.31 4.05.53-.15 1.59-.45 2.11-.6.11 1.74.25 3.52.36 5.29.45-.07 1.34-.22 1.78-.29 0 .78-.01 2.34-.01 3.12 1.36.21 2.73.48 4.08.81l-4.07.95 6.63.97-4.6.99c.78.14 2.33.43 3.11.58-.11.5-.32 1.52-.43 2.03.59-.04 1.77-.11 2.36-.15-.09.52-.29 1.56-.39 2.08l3.39.04-.44 2.11c.51-.07 1.53-.2 2.03-.27l.84 3.29.89-3.57.87 5.2.86-2.82 1.09.36-1.92 2.81 3.72-2.77-2.35 3.13 2.29-1.06-.23 1.75c.58-.08 1.74-.24 2.31-.32-.07.51-.22 1.54-.3 2.06 1.77.01 3.55.04 5.33.07l-.12 2.56c.52-.77 1.56-2.33 2.08-3.11l-.43 2.45c1.6.14 4.82.43 6.42.58-2.44.25-7.34.76-9.79 1.01 6.35.73 12.76 1.1 19.16.99h561.03c10.53-.05 21.08.24 31.61-.49l-.36-3.1c.89.03 2.68.11 3.58.14l-.72-1.19c.82.07 2.48.2 3.3.26l.6-3.28c.25 1.21.75 3.62.99 4.83l.58-4.1c.4.18 1.21.54 1.61.72l.92-3.45.91 3.79.61-4.58c.6.59 1.82 1.78 2.43 2.37l-1.88-3.35 3.29 2.45-2.63-3.73 3.14 2.49-.96-2.29c.66-.01 1.97-.02 2.63-.03-.09-.51-.28-1.52-.38-2.02l2.42.16c-.09-.46-.25-1.39-.34-1.86.81-.21 2.44-.64 3.26-.86l-3.83-.92 4.15-.58c-.22-.48-.66-1.46-.88-1.94l1.69.44-.37-1.62c.53.12 1.58.34 2.11.46-.03-.89-.08-2.66-.1-3.54l1.29.56c-.09-.64-.28-1.91-.37-2.55l2.3.56-2.82-3.35 4.19 3.02-3.31-4.17 4.2 3.04c-.67-.78-2.01-2.32-2.68-3.1l2.28.48c-.03-1.83-.06-3.66-.08-5.47l1.11.55c-.02-1.73-.02-3.45 0-5.15l2.57 2.01-3.49-4.73 4.21 3.74c-.42-1.14-1.27-3.42-1.69-4.57l1.34.82c-.04-3.57.08-7.13.09-10.69l.95.61c-.03-2.19-.33-4.55.9-6.49.09-2.08.1-4.14.11-6.19l1.12.82-.24-3.85 1.17.83c-.06-1.94-.06-3.84-.1-5.76l1.05.76c-.04-3.26.1-6.51.06-9.76l.97.75c-.02-2.28-.08-4.54-.06-6.81l1.18.82-.28-3.76 1.24.75c-.07-1.6-.13-3.19-.18-4.77l1.09.76c-.25-6.54.89-13.12-.35-19.6.44 1.84.44 4.06 2.24 5.21.12-2.47.14-4.91.12-7.37l1.13.84-.24-3.88 1.2.84c-.07-1.62-.14-3.22-.19-4.82l1.15.79c-.06-1.93-.1-3.87-.14-5.78l1 .73c-.01-3.54.12-7.09.04-10.62l1.19.47c-.09-.89-.26-2.68-.35-3.57l1.3.71c-.07-.93-.2-2.79-.27-3.72l1.15.79c-.02-2.96.07-5.91.1-8.86l2.08 1.18c-1.97-1.9-.87-4.73-1.16-7.07l1.02.67c-.06-1.92-.06-3.82-.1-5.72l1.05.79c-.14-3.07.52-6.27-.78-9.18l2.68 4.97-1.31-4.43 1.45.53c-.08-1.59-.14-3.16-.2-4.72l1.09.75c-.05-4.24.17-8.48.13-12.72l1 .8c-.08-1.94-.07-3.86-.12-5.77l1.18.78c-.05-.95-.14-2.84-.19-3.79l1.21.8c-.09-1.61-.16-3.21-.23-4.8l1.13.8c-.03-2.29-.07-4.56-.08-6.83l1.08.76c-.32-1.99.44-4.37-1.2-5.92l2 .88c.08-2.9.19-5.79.11-8.67l1.14.67c-.08-1.6-.15-3.18-.21-4.75l1.09.85c0-2.98.11-5.95.35-8.9.59 3.16.54 6.43.63 9.66.52-3.49.19-7.02-.11-10.5.26.13.77.37 1.03.5.01-1.74.05-3.46.14-5.18l-2.54-.51c.84-.16 2.52-.46 3.36-.62 0-2.76.11-5.52.17-8.27l1.16.77c-.07-.94-.22-2.82-.29-3.77l1.15.81c-.04-2.6.01-5.21-.02-7.8l1.11.77c-.28-2.04.29-4.35-1.14-6.06l1.89 1.1c-.3-2.07 1.16-5.02-1.55-6.03.66.24 1.98.71 2.64.95-.36-2.41.86-5.34-1.32-7.18l2.35 1.26-.16-3.9 1.19.83c-.22-2.35.51-5.12-1.71-6.84l2.53 2.17c.06-2.72.1-5.44.05-8.15l.92.69c-.49-3.61 1.01-6.96 2.95-9.88l-5.06-.81 5.13-.8c.04-4.45.1-8.97.25-13.4l1.47 7.18c-.64-3.92-.81-7.88-.57-11.83h2.11c-1.13-.33-3.39-.98-4.52-1.31l4.37-.49c-.1-1.35-.19-2.69-.27-4.02l3.18-.36c-1.74-.23-5.2-.7-6.93-.93l6.36-2.04-1.6 1c.18-2.66.53-7.96.71-10.62l2.59 6.44c-1.99-5.43-.77-11.21-1.09-16.83l.93.89c.08-.59.24-1.77.31-2.36l-3.41-.54 4.34-.67-.32-3.23c.29.17.88.49 1.17.65.02-2.11.03-4.22.11-6.31.83.04 2.48.11 3.31.15l-.75-1.15c5.95.17 11.9.07 17.85.09l-.81-1.15c1.56.05 3.13.11 4.72.18l-.7-1.1c2.19-.02 4.39 0 6.6-.03-.14-.27-.43-.81-.58-1.08 1.71.01 3.47.03 5.22.07l.54-3.81 1.22 3.77c-.15-1.08-.43-3.24-.58-4.32l1.75 2.8c.19-.87.58-2.61.77-3.49l.97 3.74.53-3.74c.8.04 2.42.13 3.22.18l-.63-2.23c.89.69 2.66 2.08 3.55 2.77l-2.55-3 2.39.69c-.01-.63-.05-1.9-.06-2.54.55.15 1.65.44 2.2.58l-1.15-3.5 2.38 4.06-.79-3.12 1.58.64-.45-1.66 1.67.45-.78-1.68 2.07 1.28-2.21-2.64 3.26 2.02-2.48-3.4 3.48 2.56-1.77-2.61 2.15.69-.37-1.65 1.63.4-.9-2.89 1.81 2.36c-.17-1.26-.53-3.79-.71-5.05l1.91 4.1-.95-4.45 1.77 2.28-.71-2.69 1.48.41-.12-2.63 2.21.84-2.42-3.16 2.77 2.08c-.21-.94-.64-2.8-.86-3.74l1.37.73c-.03-.89-.08-2.65-.1-3.53.77.08 2.33.26 3.1.35.94-24.21.23-48.45.45-72.67-.22-26.23.48-52.48-.41-78.69l-3.08.36c-.01-1.49-.01-2.97-.01-4.44l-1.45.54 1.44-4.15-3.29 2.97 2.76-4.19-2.83 2.27.88-2.27-1.7.19.63-3.07-2.06 3.01c.38-.84 1.15-2.52 1.53-3.36l-2.04.6c.07-.62.23-1.86.31-2.48l-1.65.47.93-1.56-1.69.49c.1-.57.29-1.7.38-2.27-.58.04-1.74.13-2.32.18.09-.56.26-1.68.34-2.24-.58.07-1.75.2-2.33.27.08-.56.22-1.68.3-2.24-.57.06-1.69.19-2.26.25.06-.58.17-1.74.22-2.32-.57.1-1.72.32-2.3.43l.51-1.68-1.39.86-.12-2.05-2.66 2.14 2.39-3.76-2.88 2.53.68-2.39-3.53.26 3.53-1.22c-1.19 0-3.55.01-4.74.01l.88-1.17c-.84.07-2.51.22-3.35.29l-.58-4.86-1.01 4.93c-.28-1.4-.82-4.21-1.1-5.61-.22 1.52-.68 4.56-.91 6.08l-.99-6.63-.98 4.54c-.13-.64-.38-1.92-.5-2.57-2.17.01-4.32-.06-6.47-.06l1.1-2.05-1.68 1.04c-44.68.2-89.36 0-134.04.1.03-.82.1-2.47.14-3.3l-1.1.67c.06-39.26.18-78.54-.06-117.8l-2.25.94c.93-1.17 2.81-3.49 3.74-4.65l-2.45 2.46c.03-2.36-.01-4.7-.07-7.05l-2.75 2.19 3.41-4.72-4.15 3.63c2.3-1.7 1.43-4.42 1.66-6.74l-1.15.8c.04-1.6.1-3.2.17-4.79l-1.09.7c.02-1.55.03-3.09.06-4.62l-1.63.39c.33-.58.98-1.74 1.31-2.32l-1.78.57c.04-.89.11-2.68.14-3.57l-2.88.64 4.01-1.99c-.79.19-2.37.58-3.17.77-.05-2.19-.08-4.37-.14-6.55l-1.12.81c.04-.85.12-2.55.17-3.4-.76 0-2.28.01-3.05.01.06-.86.17-2.58.23-3.44l-1.15.73c-.03-1.57-.05-3.13-.06-4.69l-1.25.71.4-2.54-2.29.44.56-1.66-1.37.65c-.03-1.45-.06-2.9-.07-4.35-.51.06-1.54.16-2.05.21l.32-2.27-1.58.34.54-1.57c-.52.14-1.56.41-2.08.55-.04-1.45-.11-2.89-.14-4.33l-2.01.4c.03-.61.1-1.83.14-2.45-.52.11-1.55.32-2.06.42-.06-1.37-.11-2.74-.15-4.11l-3.01-.12c.09-.52.27-1.57.37-2.1-.61.05-1.83.14-2.44.19l.72-3.36-2 3.63.92-3.95-1.76 2.16.61-2.68-2.27.24c-.02-.76-.05-2.27-.07-3.03-.78-.02-2.35-.07-3.13-.1.11-.51.35-1.54.46-2.05-.63.02-1.9.06-2.53.09.13-.5.4-1.48.53-1.97-.87-.01-2.62-.04-3.49-.05.12-.51.35-1.52.47-2.03-.62.02-1.86.05-2.48.06.12-.5.36-1.5.48-2.01-.86 0-2.58-.01-3.43-.02.08-.51.26-1.54.35-2.05l-2.36.2.47-3.2-1.66 3.95.54-3.16-2.33.48.55-1.62-1.59.84.34-1.7c-.57.16-1.73.47-2.31.63l.38-1.55c-.59.07-1.76.22-2.35.29l.36-2.16c-.89.05-2.66.14-3.55.18l.69-1.02-2.39-.36-.46 2.61-.56-3.66-3.34.83 3.81-2.02-3.56.76.47-1.56-1.59.44.28-2.74c-.43.88-1.28 2.66-1.7 3.55l-.43-3.21c-1.18.55-3.55 1.65-4.73 2.19l2.64-2.73c-1.71-.11-3.4-.21-5.09-.32.16-.46.5-1.39.66-1.86-1.56-.01-3.11-.01-4.66 0l.63-1.05c-2.25-.01-4.47.06-6.69.04l.74-1.11c-1.52.03-3.03.06-4.52.1.09-.78.27-2.33.37-3.11-6.26.13-12.5-.53-18.75-.4h-328c-13.4.06-26.84-.34-40.2 1z"/><path d="M462.77 329.59l-.67-1.13c112.93.07 225.86.06 338.78 0l-.64 1.35c1.02-.36 3.05-1.07 4.07-1.43l-2.46 3.4 3.05-2.58-.74 2.41 3.73-.33-3.83 1.48 4.67-.4-.75 2.67 1.94-3.24-.74 2.86 1.7-.52-.77 1.25 3.57.65-4.36 1 4.54.67c-.69.73-2.05 2.19-2.74 2.92l2.66-2.49-.56 2.3 4.27.47c-1.16.33-3.49.98-4.66 1.31l2.76.09c-.04.87-.11 2.63-.15 3.5l1.07-.63c-.12 35.57-.07 71.14-.03 106.7l-1.08-.7c.04.83.11 2.49.14 3.32-123.02-.05-246.05-.05-369.07 0 .02-.82.08-2.47.1-3.29l-1.07.62c.1-35.42.06-70.84.02-106.26l3.08-.6c-1.17-.24-3.51-.72-4.68-.97l6.18-1.02c-1.41-.24-4.24-.73-5.65-.97l4.41-.59c-.18-.5-.55-1.5-.74-2l1.88.53-.96-1.3 4.15-.66c-1.33-.24-3.99-.73-5.32-.97 1.18-.17 3.53-.5 4.7-.66l-.28-2.04 3.27.34-3.63-1.35c1.67-.07 5-.22 6.67-.3l-6.05-.96 5.5-.72-1.5-2.32 4.06 2.93-3.32-3.83c1.64 1.15 3.47 1.65 5.48 1.49zm164.68 281.14c-.65-.77-1.96-2.3-2.61-3.07 4.01-.18 8.03-.15 12.05-.17l-.81 1.18c.94-.07 2.82-.22 3.76-.29l-.7 1.19c1.89-.04 3.77-.06 5.67-.08l-.62 1.11c.88-.04 2.66-.11 3.55-.14l-.58 2.97 1.9-3.5-1.07 4.57 2.03-4.13-.76 3.3 2.42-.32-.34 1.57 2.31-.76-.55 1.62 1.68-.62-.67 1.7 1.63-.74-.65 1.64 1.61-.49-.32 2.39c.57-.1 1.72-.31 2.3-.42l-.48 1.54 1.6-.54-.58 1.6 1.56-.52-.52 2.36 1.62-.34c-.19.58-.57 1.73-.75 2.31l1.64-.32c-.14.55-.43 1.64-.57 2.19l3.65.2-4.24 2.04 4.23-1.11-2.95 2.07 2.64-.44c-.03 1.51-.05 3.04-.06 4.57l.98-.68c.01 1.37.04 2.75.1 4.14.62 1.12 1.03 2.32.91 3.64-.12 69.33.06 138.67-.09 208l-2.05-1.26c2.32 2.34.01 5.88 1.91 8.42l-3.41-3 2.94 4.14-2.18-1.47c-.09 1.53-.18 3.06-.26 4.61-.7.02-2.11.05-2.82.06-.02 1.39-.03 2.79-.03 4.2l-2.1-.36c.06.56.19 1.66.25 2.21-.7.03-2.1.11-2.8.15.48.51 1.46 1.52 1.95 2.03l-2.38-.49c.03.63.08 1.87.1 2.49l-2.19-.52.47 1.4c-.88-.01-2.65-.02-3.53-.02.13.48.39 1.44.51 1.92l-2.68.04.95 2.31-3.21-2.57 2.32 3.16c-.98-.3-2.95-.91-3.93-1.22l.65 1.45c-.93-.06-2.8-.19-3.73-.25l.76 1.21c-.95-.05-2.84-.14-3.79-.18l.85 1.1c-5.3-.01-10.6.08-15.9.03l.86-1.13c-.96.07-2.88.22-3.85.29l.81-1.21c-1.57.02-3.14.06-4.7.1l.63-1.14c-.89.02-2.66.05-3.54.07.12-.51.36-1.53.48-2.03l-2.56.08c.13-.46.38-1.38.51-1.84-.54-.11-1.64-.35-2.18-.47l-.47 2.94-.74-4.18c-.8.55-2.4 1.64-3.2 2.18l2.7-3.03-2.38.68.18-3.84-1.25 4.18c.04-1.22.11-3.66.15-4.88-.52.12-1.55.37-2.06.5l.08-2.52c-.55.13-1.65.38-2.2.51l.67-1.66-1.5.61.12-3.55-1.28.6c.13-1.24.4-3.71.53-4.95l-1.82 4.43.73-4.05-1.38.58c.04-.92.13-2.75.17-3.67l-1.19.75c.08-1.59.16-3.16.25-4.72l-1.07.68c.04-70.24.13-140.48-.05-210.72l1 .7c-.03-1.78-.03-3.54-.03-5.3l3.03-.51c-1.2-.27-3.59-.81-4.78-1.08l4.06-.53c-.16-.54-.47-1.6-.63-2.13l1.51.45c-.06-.87-.19-2.62-.25-3.5l1.57.41c-.24-.56-.71-1.67-.95-2.23l1.62.29c-.08-.59-.23-1.76-.31-2.34l2.87.14-3.24-1.41 4.11.4-2.52-1.72c1.1-.13 3.29-.41 4.39-.54-.46-.49-1.39-1.45-1.85-1.93l2.4.46c.04-.68.12-2.05.17-2.74.75.49 2.25 1.48 3 1.97l-2.58-3.05 2.31.97.57-4.04 1.03 4.62.44-3.07c1.83-.11 3.66-.25 5.5-.43-1.73-.24-5.17-.71-6.9-.94l5.77-.72-2.86-.97c2.26.16 4.52.12 6.8.09l-.71-2.62 2 3.62-.7-2.94c2.37-.28 4.41.46 6.12 2.22zm-150.37-.27l-.89-2.93c3.52 0 7.04-.03 10.57-.02l-.43 2.97c.51-.92 1.53-2.77 2.05-3.7v2.73c2.12.02 4.24-.05 6.38-.01l-.55 1.09c.87-.03 2.6-.08 3.47-.11l-.4 2.11 2.43-.2-.36 2.06c1.45.02 2.89.04 4.35.07-.09.52-.26 1.57-.35 2.1.52-.08 1.56-.25 2.07-.33l.6 5.06c.24-1.42.71-4.28.94-5.71l.7 5.26 1.9-.91-1.34 1.95 1.76-.73-.67 1.57 2.77-.59-2.97 3.29 2.78-2.36-.74 2.56 1.39-.34c.03 1.67.09 3.36.13 5.05.71.01 2.15.04 2.86.05l-.03 5.37.98-.67c.23 57.97.04 115.93.1 173.9-.09 15.23.21 30.46-.21 45.69-.52-.15-1.56-.46-2.08-.61l2.88 3.64-3.25-2.68.97 2.34-4.24.57c1.33.25 3.99.75 5.33.99l-3.62.58c.04.8.12 2.41.15 3.21l-1.17-.69c.03.93.08 2.8.1 3.73l-1.21-.72c-.04 1.09-.1 3.29-.14 4.38-.24-1.18-.72-3.54-.97-4.72-.2.84-.61 2.51-.81 3.35l-2.04-1.13 2.71 3.49-3.95-2.94c.53.72 1.58 2.15 2.1 2.87-.71.05-2.15.14-2.86.19.12.47.36 1.42.49 1.9-1.47.02-2.92.06-4.37.11.08.32.25.97.33 1.29l-3.16.53c1.5.11 4.5.34 6 .46-1.85.26-3.7.5-5.55.73.19.44.58 1.31.77 1.74-1.91.01-3.81.04-5.71.07l.81 1.11c-.93-.05-2.8-.15-3.74-.21l.67 1.17-6.62-.06 6.31 1.76c-5.69-1.3-11.55-.6-17.33-.77-1.44-.53-2.62-1.53-3.92-2.29l.67-.75c-1.16.03-3.49.1-4.65.14.14-.3.43-.91.57-1.21-.81.04-2.43.11-3.24.15-.01-.73-.02-2.17-.02-2.89-1.96-.15-3.91-.34-5.85-.58l5.82-.96-5.32-.56 1.67-1.8-3.71 2.38 2.6-2.9-2.36.74.12-2.59c-.54.09-1.62.29-2.15.39.06-.58.2-1.75.27-2.33-.58.05-1.74.16-2.32.22.12-.6.38-1.8.5-2.39l-1.35.66.04-3.66-1.22.66c.11-1.22.34-3.68.45-4.91l-1.76 4.65.7-4.04-4.37-.53c1.37-.25 4.11-.74 5.48-.99l-3.47-.55c.07-1.44.15-2.87.23-4.29l-1.07.71c.08-71.26.07-142.52 0-213.78l1.05.72c-.06-1.58-.11-3.15-.15-4.71l1.17.74c-.03-.92-.08-2.75-.1-3.67l2.01.6c-.02-1.47-.05-2.93-.07-4.38l2.63.55-3.07-1.37c1.02-.14 3.06-.44 4.07-.59l-4.47-1.06 4.24-.51-.52-2 2.36.2c-.08-.57-.22-1.71-.29-2.29.57.08 1.72.25 2.3.33-.08-.57-.22-1.7-.29-2.26l2.27.24c-.06-.58-.19-1.74-.25-2.32l2.26.4-.6-3.08 1.66 3.58-.37-2.99c.51.14 1.54.42 2.05.55l.62-4.32.65 3.87.81-.2-.31-1.87 1.62.38-.45-2.56c.55.65 1.65 1.95 2.19 2.6l-.25-2.17c2.46-.05 4.93-.1 7.4-.03l-1.44-3.58 2.84 4.55zm291.78.1l-.69-1.02c2.58.01 5.15-.09 7.74-.13l-1.22-2.36 1.74 1.31c4.57-.53 9.98 1.57 13.72-1.78l-2.35 2.77c2.34.08 4.67.12 7.02.17l-.64 1.05c.91-.03 2.71-.07 3.61-.09l-.63 2.52 2.51-2.94-2.17 4.45 3.02-3.9-1.73 3.89 2.25-2.6-.87 2.56c.91.01 2.74.03 3.65.03l-.72 1.33 1.74-.51-.56 1.66 1.51-.72-.44 2.3c.61-.04 1.82-.12 2.43-.17-.12.53-.36 1.57-.48 2.1.64-.01 1.91-.02 2.55-.03l-.69 2.24 3.04-2.39c-.69.77-2.07 2.3-2.76 3.06l4.95.6c-1.27.25-3.8.77-5.06 1.03l3.46.56c-.1.53-.31 1.59-.41 2.13.53-.11 1.59-.31 2.12-.41 0 1.06.01 3.19.02 4.26l1.21-3.66-.31 4.65 3.04.34c-.96.3-2.89.91-3.86 1.21l1.94.28c.17 61.21.02 122.43.07 183.65-.05 12.63.13 25.27-.15 37.9-.43-.12-1.27-.36-1.7-.48-.1 1.49-.19 2.99-.27 4.49-.47-.14-1.42-.43-1.89-.58 0 .89-.02 2.66-.02 3.55l-1.14-.76c.02.9.07 2.7.09 3.61-.51-.1-1.53-.28-2.04-.37.03.58.1 1.74.13 2.33-.56-.07-1.68-.21-2.24-.27.09.57.28 1.72.37 2.29l-2.69-.65 3.19 1.81-2.98-.66.66 1.48-1.71-.32.6 2.62-1.89-2.88.75 2.56c-1.1-.14-3.29-.41-4.38-.54l3.09 1.55-3.08-.34.32 2.18c-.86-.03-2.59-.1-3.45-.13l.63 1.18c-1.56-.06-3.11-.11-4.65-.15l.71 1.17c-.94-.04-2.83-.13-3.77-.18l.83 1.12c-6.09 0-12.19.06-18.28-.09l-.52-3.35c-.34.91-1.01 2.73-1.34 3.63l-.1-2.4c-1.13.1-3.4.29-4.53.38l4.12-1.68-4.03.74.45-1.41c-.64.05-1.92.16-2.56.21l.83-2.39-2.92 2.4 2.43-3.62-3.84 2.93 2.91-4.02-3.31 2.87.49-2.42c-.58.08-1.73.25-2.31.34l.16-2.38c-.52.11-1.55.33-2.07.43-.01-.85-.01-2.56-.01-3.41-.52.09-1.55.29-2.06.39l.2-2.4-2.21.39 1.58-1.54-1.93.46c.2-.53.59-1.6.79-2.13l-1.74.09c.19-.56.58-1.67.77-2.23l-1.45.45c.04-.89.11-2.66.15-3.55l-1.42.51.78-3.35-1.67 3.18c.22-1.82.6-3.81-.76-5.28-.05-1.38-.07-2.76-.06-4.12l-.96.7c.13-12.79.16-25.58-.01-38.37l2.75-.49-2.75-.5c.15-6.5.17-13.01-.02-19.5l.93 1.01V787l-.96.98c.17-2.84.19-5.68.05-8.52l2.79-.46-2.79-.47c.16-6.36.15-12.72 0-19.07l2.82-.46-2.79-.45c.02-1.71.02-3.41 0-5.09l2.79-.46-2.82-.46c.15-6.85.18-13.7-.02-20.54l.92 1.01.03-2.97-.96.91c.2-4.82.18-9.64.02-14.45l2.77-.5-2.76-.49c.15-2.81.11-5.62-.06-8.41l.98.83-.01-2.88-.97.87c.3-14.14.18-28.29.06-42.43l2.77-.49-2.77-.49c.15-7.1.17-14.2-.02-21.29l1.01.49c-.07-2.7.04-5.39.03-8.08l3.82-.62-5.17-1.05 3.06-.29c0-2.36.21-6.61 3.49-6.27-.09-.5-.29-1.49-.38-1.99.58.04 1.74.11 2.32.15-.1-.55-.32-1.64-.43-2.19l1.47.36c-.04-.67-.11-2-.15-2.67.82.49 2.47 1.45 3.29 1.94l-2.66-2.69 2.62.37-.61-2.44 2.9 2.52c-.67-.97-2.02-2.93-2.69-3.91l3.53 2.6-1.93-2.78c.96-.04 2.86-.14 3.81-.18l-.6-1.25 2.55.4-.6-2.49 2.93 2.67c-.52-.81-1.56-2.42-2.08-3.22l3.85-.04z"/></svg>