<svg xmlns="http://www.w3.org/2000/svg" viewBox="0 0 300 300"><path d="M139.4 96.2c-22.7 0-41.1 18.4-41.1 41.1 0 22.7 18.4 41.1 41.1 41.1 22.7 0 41.1-18.4 41.1-41.1 0-22.7-18.4-41.1-41.1-41.1z"/><path d="M150 0C67.2 0 0 67.2 0 150s67.2 150 150 150 150-67.2 150-150S232.8 0 150 0zm75.4 221.3c-2.4 2.4-5.5 3.6-8.6 3.6s-6.2-1.2-8.6-3.6l-34.1-34.1c-9.8 6.9-21.8 10.9-34.7 10.9-33.5 0-60.7-27.2-60.7-60.7s27.2-60.7 60.7-60.7 60.7 27.2 60.7 60.7c0 11.9-3.4 22.9-9.3 32.3l34.6 34.6c4.8 4.5 4.8 12.2 0 17z"/></svg>