<?xml version="1.0" encoding="UTF-8" ?>
<!DOCTYPE svg PUBLIC "-//W3C//DTD SVG 1.1//EN" "http://www.w3.org/Graphics/SVG/1.1/DTD/svg11.dtd">
<svg viewBox="0 0 1263 1263" version="1.1" xmlns="http://www.w3.org/2000/svg">
<g id="#000000ff">
<path d=" M 600.56 6.87 C 689.97 2.49 780.35 17.18 863.48 50.54 C 963.45 90.33 1052.58 156.67 1119.77 240.66 C 1169.81 303.00 1207.74 375.03 1230.64 451.62 C 1258.54 544.43 1264.13 643.74 1247.65 739.20 C 1233.87 818.84 1204.34 895.71 1161.23 964.08 C 1119.15 1031.08 1064.19 1089.93 1000.33 1136.62 C 939.53 1181.16 870.57 1214.54 797.89 1234.52 C 703.46 1260.53 602.90 1263.83 506.91 1244.48 C 427.10 1228.42 350.57 1196.37 283.04 1150.93 C 208.11 1100.60 144.23 1033.90 97.25 956.82 C 55.02 887.71 26.49 810.27 13.86 730.26 C -1.51 632.81 6.01 531.68 36.67 437.85 C 60.32 364.91 97.72 296.48 146.14 237.04 C 193.48 178.83 251.32 129.18 316.10 91.31 C 402.26 40.76 500.78 11.56 600.56 6.87 M 267.76 239.51 C 266.66 239.55 264.45 239.63 263.34 239.67 C 263.39 239.85 263.49 240.23 263.54 240.41 C 262.27 240.72 261.03 241.08 259.78 241.44 C 258.64 242.07 257.52 242.74 256.38 243.35 C 255.55 243.77 254.73 244.19 253.91 244.62 C 250.44 247.33 247.33 250.44 244.62 253.90 C 243.62 255.87 242.65 257.85 241.51 259.73 C 241.06 260.95 240.66 262.19 240.38 263.47 L 239.66 263.50 C 239.60 264.93 239.54 266.36 239.48 267.80 C 239.25 267.68 238.80 267.42 238.57 267.30 C 238.36 271.19 238.04 275.09 238.00 279.00 C 238.00 500.34 238.00 721.68 238.00 943.02 C 238.23 960.45 237.48 977.91 238.51 995.32 C 238.80 995.37 239.38 995.45 239.66 995.50 C 239.60 996.22 239.49 997.65 239.43 998.37 C 239.69 998.47 240.22 998.68 240.49 998.78 C 240.41 1000.76 241.37 1002.50 242.58 1004.03 L 242.52 1004.89 C 243.30 1006.05 244.05 1007.24 244.78 1008.47 C 245.76 1009.70 246.75 1010.94 247.67 1012.24 C 248.62 1013.34 249.62 1014.41 250.70 1015.42 C 250.96 1015.62 251.48 1016.04 251.74 1016.25 C 253.19 1017.46 254.64 1018.66 256.14 1019.82 C 257.53 1020.52 258.94 1021.19 260.37 1021.83 L 260.50 1022.43 C 263.25 1023.20 265.87 1024.44 268.74 1024.75 L 268.25 1025.44 C 271.83 1025.59 275.41 1025.95 279.00 1026.00 C 507.35 1026.00 735.69 1026.00 964.03 1026.00 C 974.32 1025.91 984.63 1026.31 994.90 1025.46 L 994.02 1024.65 C 994.93 1024.57 996.76 1024.41 997.68 1024.34 L 997.47 1023.73 C 999.77 1023.26 1001.90 1022.25 1003.91 1021.05 C 1005.14 1020.23 1006.40 1019.46 1007.67 1018.71 C 1011.84 1015.57 1015.51 1011.80 1018.73 1007.70 C 1020.51 1004.46 1023.07 1001.46 1023.55 997.68 C 1023.78 997.62 1024.24 997.51 1024.47 997.46 C 1024.52 996.42 1024.61 994.35 1024.66 993.31 L 1025.58 995.15 C 1026.47 969.79 1025.78 944.39 1026.00 919.01 C 1026.00 716.34 1026.00 513.68 1026.00 311.01 C 1025.82 296.71 1026.46 282.39 1025.44 268.11 L 1024.66 268.92 C 1024.58 268.14 1024.42 266.58 1024.34 265.80 C 1023.45 264.11 1022.88 262.30 1022.43 260.47 L 1021.84 260.38 C 1021.19 258.95 1020.51 257.56 1019.83 256.18 C 1018.69 254.66 1017.48 253.21 1016.29 251.75 C 1015.17 250.42 1013.98 249.15 1012.62 248.09 L 1012.45 247.82 C 1011.08 246.83 1009.76 245.80 1008.44 244.78 C 1007.24 244.07 1006.08 243.29 1004.96 242.50 C 1004.73 242.52 1004.28 242.56 1004.06 242.58 C 1002.52 241.33 1000.71 240.47 998.71 240.42 C 998.65 240.19 998.52 239.72 998.45 239.49 C 997.66 239.52 996.06 239.58 995.27 239.60 L 995.77 238.67 C 990.51 238.12 985.23 237.91 979.96 238.00 C 746.31 238.01 512.66 238.00 279.00 238.00 C 275.11 238.04 271.23 238.38 267.34 238.53 C 267.45 238.78 267.66 239.27 267.76 239.51 Z" />
<path d=" M 316.63 316.63 C 526.88 316.59 737.12 316.59 947.37 316.63 C 947.45 447.94 947.34 579.24 947.43 710.55 C 737.14 710.64 526.86 710.64 316.57 710.55 C 316.66 579.24 316.55 447.94 316.63 316.63 M 554.36 406.50 L 553.64 406.38 C 553.11 421.25 553.53 436.15 553.40 451.04 C 553.40 483.68 553.40 516.33 553.40 548.97 C 553.55 572.15 553.08 595.34 553.65 618.51 L 554.44 618.47 C 554.78 619.68 555.16 620.89 555.51 622.11 C 558.00 625.06 560.45 628.78 564.48 629.63 L 564.50 630.38 C 568.39 630.72 572.30 630.80 576.20 630.43 C 577.83 629.52 579.51 628.67 581.07 627.63 C 581.32 627.60 581.80 627.55 582.05 627.53 C 583.34 626.46 584.67 625.45 585.96 624.39 C 586.21 624.40 586.70 624.42 586.94 624.43 C 587.69 623.38 588.74 622.69 589.89 622.15 C 590.40 621.81 591.43 621.15 591.94 620.82 C 593.96 619.49 596.04 618.23 597.86 616.62 C 598.14 616.58 598.71 616.50 598.99 616.46 C 600.50 615.14 602.18 614.05 603.90 613.02 C 606.61 611.14 609.59 609.62 612.04 607.38 C 612.27 607.43 612.72 607.53 612.94 607.58 C 613.67 606.47 614.76 605.76 615.95 605.22 C 618.56 603.34 621.52 601.92 623.89 599.70 C 624.19 599.66 624.79 599.59 625.09 599.55 C 626.36 598.48 627.67 597.46 628.96 596.40 C 629.18 596.42 629.62 596.47 629.84 596.50 C 632.34 594.21 635.49 592.82 638.02 590.56 C 638.26 590.55 638.75 590.53 639.00 590.51 C 640.21 589.47 641.50 588.52 642.83 587.63 C 645.90 585.74 648.94 583.79 651.94 581.78 C 653.01 581.13 654.02 580.37 654.97 579.55 C 655.21 579.52 655.69 579.48 655.93 579.46 C 658.52 577.32 661.54 575.79 664.08 573.60 C 664.32 573.60 664.81 573.60 665.05 573.60 C 666.37 572.50 667.71 571.43 669.02 570.31 C 669.24 570.38 669.68 570.53 669.90 570.61 C 670.62 569.47 671.71 568.74 672.90 568.18 C 676.23 566.02 679.55 563.85 682.85 561.64 C 684.19 560.79 685.53 559.94 686.89 559.12 C 688.30 558.14 689.74 557.20 691.24 556.35 C 692.52 555.43 693.79 554.48 695.01 553.46 C 695.24 553.48 695.70 553.52 695.93 553.54 C 698.40 551.34 701.33 549.78 704.03 547.90 C 705.78 546.88 707.48 545.77 709.00 544.43 C 709.26 544.44 709.78 544.48 710.04 544.49 C 710.48 543.97 711.36 542.93 711.81 542.41 C 712.08 542.43 712.61 542.47 712.88 542.49 C 715.37 540.27 718.46 538.88 720.91 536.62 C 721.19 536.59 721.74 536.53 722.02 536.50 C 723.24 535.48 724.54 534.58 725.87 533.70 C 730.60 530.80 735.17 527.65 739.83 524.63 C 740.95 523.88 742.08 523.11 743.24 522.39 C 743.61 521.96 744.36 521.10 744.73 520.67 C 747.70 517.65 749.81 513.70 749.80 509.38 L 750.45 509.59 C 750.45 508.80 750.44 507.22 750.44 506.42 L 749.79 506.56 C 749.68 503.87 749.26 501.08 747.44 498.97 C 747.49 498.63 747.58 497.96 747.63 497.63 L 746.53 497.62 L 746.56 496.52 L 745.89 496.52 C 744.43 493.76 741.55 492.39 739.13 490.63 C 737.12 489.33 735.06 488.14 733.01 486.92 C 731.78 486.13 730.50 485.37 729.26 484.62 C 727.84 483.82 726.44 482.99 725.02 482.23 C 723.66 481.36 722.31 480.46 721.06 479.47 C 720.81 479.48 720.31 479.50 720.06 479.51 C 718.71 478.45 717.34 477.45 716.01 476.40 C 715.77 476.43 715.27 476.50 715.03 476.53 C 713.68 475.46 712.32 474.43 711.00 473.37 C 710.77 473.41 710.31 473.50 710.08 473.55 C 708.75 472.46 707.35 471.48 706.02 470.42 C 705.76 470.45 705.24 470.51 704.97 470.54 C 703.69 469.42 702.33 468.41 700.99 467.39 L 700.03 467.57 C 699.39 467.00 698.75 466.44 698.12 465.90 C 697.57 465.54 696.47 464.84 695.91 464.48 C 695.64 464.49 695.08 464.52 694.80 464.53 C 694.36 464.00 693.47 462.94 693.03 462.41 C 692.77 462.48 692.27 462.62 692.02 462.69 C 690.61 461.67 689.22 460.65 687.92 459.52 C 687.69 459.55 687.23 459.59 687.01 459.62 C 685.88 458.68 684.65 457.90 683.37 457.23 L 683.36 456.41 C 683.01 456.46 682.32 456.57 681.97 456.62 C 680.88 455.65 679.64 454.88 678.35 454.26 L 678.35 453.41 C 678.00 453.45 677.32 453.53 676.97 453.57 C 675.84 452.66 674.60 451.90 673.33 451.24 L 673.29 450.85 C 671.69 450.15 670.19 449.28 668.69 448.42 C 667.43 447.63 666.16 446.91 664.95 446.08 C 662.87 444.83 660.79 443.61 658.71 442.38 C 655.37 440.34 652.00 438.34 648.65 436.34 C 645.08 434.25 641.59 432.03 638.02 429.95 C 636.78 429.15 635.51 428.39 634.25 427.64 C 632.55 426.68 630.87 425.68 629.22 424.65 C 627.83 423.80 626.44 422.97 625.01 422.23 C 623.62 421.35 622.26 420.44 621.00 419.42 C 620.77 419.46 620.31 419.53 620.08 419.57 C 618.73 418.49 617.36 417.45 616.01 416.38 C 615.77 416.43 615.27 416.51 615.02 416.55 C 613.68 415.47 612.32 414.43 611.00 413.37 C 610.76 413.41 610.30 413.50 610.06 413.55 C 608.75 412.46 607.37 411.49 606.05 410.44 C 605.75 410.45 605.16 410.47 604.86 410.48 C 603.62 409.40 602.32 408.41 601.02 407.42 C 600.74 407.44 600.18 407.50 599.90 407.53 C 599.46 407.09 598.57 406.23 598.13 405.80 C 597.01 405.30 595.90 404.79 594.81 404.29 C 594.36 403.84 593.48 402.93 593.04 402.48 C 592.77 402.51 592.25 402.58 591.98 402.62 C 590.32 401.42 588.60 400.33 586.86 399.27 C 585.69 398.57 584.52 397.89 583.34 397.25 L 583.35 396.41 C 583.01 396.46 582.32 396.56 581.97 396.61 C 580.75 395.38 579.15 394.80 577.53 394.38 L 577.54 393.57 C 574.27 393.36 570.99 393.28 567.72 393.58 C 561.91 396.00 556.08 400.11 554.36 406.50 Z" />
<path d=" M 395.56 789.56 C 421.85 789.50 448.15 789.50 474.44 789.56 C 474.49 802.63 474.51 815.70 474.43 828.77 C 486.28 828.98 498.13 829.27 510.00 829.03 C 515.66 829.12 521.33 828.75 527.00 829.00 C 540.32 829.07 553.65 829.08 566.98 828.92 C 571.37 829.55 575.79 828.50 580.20 828.95 C 588.79 829.05 597.39 829.35 605.98 828.88 C 608.90 829.28 611.86 829.18 614.80 828.95 C 622.19 828.44 629.59 829.53 636.98 828.97 C 644.59 829.32 652.21 828.43 659.82 829.05 C 668.55 829.61 677.29 828.38 686.01 829.10 C 717.03 828.96 748.03 828.82 779.04 829.10 C 785.36 828.37 791.68 829.45 798.01 829.09 C 826.02 828.74 854.00 829.29 882.02 828.90 C 883.32 828.98 884.64 829.02 885.97 829.04 C 889.64 828.68 893.32 829.35 897.01 829.12 C 903.60 829.00 910.21 828.54 916.80 829.06 C 927.02 828.98 937.22 828.75 947.45 829.24 C 947.35 855.34 947.38 881.45 947.43 907.55 C 789.79 907.68 632.15 907.56 474.51 907.61 C 474.41 920.86 474.53 934.11 474.45 947.36 C 448.15 947.42 421.85 947.42 395.55 947.36 C 395.47 934.11 395.59 920.86 395.49 907.61 C 369.18 907.56 342.88 907.68 316.57 907.55 C 316.61 881.47 316.67 855.39 316.54 829.31 C 321.66 828.32 326.85 829.61 332.00 828.95 C 341.00 829.19 349.98 828.73 358.98 829.17 C 365.97 828.67 372.98 828.78 379.97 829.13 C 385.17 828.72 390.39 828.93 395.60 828.75 C 395.45 815.69 395.53 802.62 395.56 789.56 Z" />
</g>
<g id="#ffffffff">
</g>
</svg>
