<?xml version="1.0" encoding="UTF-8" ?>
<!DOCTYPE svg PUBLIC "-//W3C//DTD SVG 1.1//EN" "http://www.w3.org/Graphics/SVG/1.1/DTD/svg11.dtd">
<svg viewBox="0 0 1263 1263" version="1.1" xmlns="http://www.w3.org/2000/svg">
<g id="#000000ff">
<path d=" M 600.55 6.87 C 650.86 4.54 701.47 7.86 750.92 17.50 C 827.15 32.18 900.53 61.38 966.06 103.00 C 1043.94 152.34 1110.70 219.11 1160.04 297.00 C 1205.66 368.80 1236.29 450.07 1249.36 534.14 C 1263.95 628.11 1257.29 725.43 1229.14 816.31 C 1206.08 891.11 1168.68 961.42 1119.69 1022.44 C 1072.40 1081.42 1014.41 1131.82 949.29 1170.26 C 875.95 1213.70 793.57 1241.76 708.96 1252.13 C 615.52 1263.60 519.45 1254.25 430.30 1223.81 C 352.08 1197.37 279.34 1154.98 217.50 1100.29 C 178.55 1065.81 143.81 1026.55 114.52 983.56 C 68.69 916.49 36.16 840.38 19.51 760.88 C 0.83 671.88 1.70 578.81 22.13 490.20 C 37.23 424.67 63.11 361.65 98.34 304.38 C 132.52 248.75 175.49 198.57 225.07 156.12 C 283.43 106.13 351.06 67.00 423.55 41.49 C 480.45 21.43 540.29 9.77 600.55 6.87 M 435.77 231.00 C 438.77 231.25 444.76 231.73 447.75 231.98 C 444.86 232.42 441.96 232.58 439.06 232.47 L 439.87 233.57 C 438.29 233.52 436.71 233.48 435.14 233.44 L 435.86 234.56 C 433.94 234.51 432.03 234.50 430.13 234.45 L 430.85 235.54 C 429.90 235.52 427.99 235.49 427.04 235.47 L 428.06 237.71 C 427.10 237.37 425.18 236.68 424.22 236.34 C 424.36 236.89 424.64 237.97 424.79 238.51 C 423.87 238.49 422.03 238.43 421.11 238.40 L 421.86 239.56 C 420.94 239.52 419.09 239.43 418.17 239.39 L 418.80 240.58 C 417.96 240.54 416.27 240.45 415.43 240.41 C 415.43 241.16 415.42 242.68 415.42 243.43 C 413.98 243.41 412.55 243.39 411.11 243.37 L 411.81 244.46 C 410.26 244.48 408.72 244.49 407.18 244.51 C 407.31 244.98 407.57 245.91 407.70 246.38 C 406.82 246.43 405.07 246.53 404.20 246.59 C 404.36 247.06 404.68 248.02 404.84 248.49 C 403.96 248.48 402.20 248.44 401.32 248.42 L 402.10 250.96 L 400.24 247.93 L 400.70 250.62 C 400.11 250.56 398.94 250.44 398.35 250.38 C 398.42 250.94 398.55 252.05 398.62 252.61 L 394.65 252.07 L 398.53 253.54 C 397.55 253.51 395.59 253.46 394.61 253.43 C 394.44 254.21 394.09 255.76 393.92 256.54 L 392.95 252.30 L 392.41 256.92 C 391.95 256.74 391.03 256.39 390.57 256.21 C 390.52 256.99 390.42 258.54 390.37 259.32 C 388.99 259.40 387.61 259.47 386.24 259.55 C 386.40 260.08 386.72 261.13 386.88 261.66 L 385.27 261.10 L 385.67 262.74 C 385.10 262.63 383.94 262.41 383.36 262.31 C 383.42 262.86 383.55 263.98 383.61 264.53 C 383.00 264.51 381.77 264.47 381.16 264.44 L 381.95 266.88 L 378.88 264.27 C 379.72 265.40 381.38 267.66 382.21 268.80 L 378.07 265.48 L 381.12 269.63 L 377.29 266.79 L 380.14 270.60 L 376.35 267.89 L 378.85 271.19 L 376.31 269.69 L 376.95 271.70 L 375.35 271.25 C 375.42 271.87 375.56 273.11 375.63 273.74 C 375.11 273.64 374.07 273.44 373.55 273.33 C 373.52 274.16 373.46 275.80 373.43 276.62 C 372.91 276.53 371.87 276.37 371.35 276.29 L 371.74 279.46 L 370.27 276.49 C 370.34 277.54 370.48 279.64 370.55 280.70 C 370.03 280.58 368.99 280.34 368.48 280.22 C 368.48 280.87 368.48 282.17 368.48 282.82 L 366.18 282.07 L 368.53 284.89 L 365.22 282.73 L 367.85 286.56 L 364.91 283.99 C 365.13 284.94 365.58 286.83 365.80 287.77 L 364.06 287.31 C 364.24 287.82 364.59 288.83 364.77 289.33 C 363.54 289.50 361.07 289.83 359.84 289.99 C 361.20 290.24 363.93 290.74 365.30 290.99 L 361.41 291.54 C 361.44 292.35 361.50 293.97 361.53 294.78 L 359.33 294.27 C 359.83 294.83 360.84 295.93 361.35 296.49 L 359.33 296.32 C 359.40 296.91 359.55 298.09 359.62 298.68 C 359.08 298.59 358.00 298.41 357.46 298.32 C 357.50 299.20 357.58 300.96 357.62 301.85 L 356.49 301.14 C 356.45 302.99 356.45 304.85 356.44 306.71 L 353.19 305.89 L 357.41 308.02 L 354.40 307.25 C 354.43 308.15 354.49 309.95 354.53 310.85 L 353.02 310.24 C 353.25 310.85 353.70 312.06 353.92 312.66 L 352.43 312.17 C 352.44 313.72 352.46 315.27 352.48 316.82 L 351.45 316.13 C 351.46 318.64 351.40 321.15 351.45 323.66 L 348.44 320.40 C 349.87 322.16 350.61 324.16 350.65 326.39 L 346.27 326.94 C 347.48 327.20 349.89 327.73 351.10 328.00 L 345.64 329.06 L 348.60 329.44 C 348.37 331.87 348.37 334.31 348.44 336.75 L 347.42 336.15 C 347.49 374.91 347.37 413.66 347.48 452.42 L 343.39 453.02 L 347.58 453.99 C 343.76 454.88 339.83 454.36 335.97 454.46 C 293.69 454.52 251.42 454.34 209.15 454.54 L 209.87 455.54 C 208.09 455.47 206.33 455.47 204.56 455.42 L 203.99 459.28 C 203.74 457.92 203.24 455.21 202.99 453.86 L 202.37 457.96 C 201.40 457.53 199.45 456.68 198.48 456.25 L 201.86 460.25 L 197.89 457.23 L 198.99 459.43 C 197.43 459.49 195.87 459.54 194.32 459.60 C 194.41 460.09 194.61 461.07 194.70 461.55 C 194.10 461.51 192.90 461.41 192.30 461.36 L 192.75 464.53 L 191.03 460.59 L 191.65 463.78 L 188.10 462.99 L 191.38 464.56 C 190.36 464.54 188.30 464.52 187.27 464.51 C 187.39 465.02 187.63 466.04 187.76 466.54 C 187.16 466.52 185.96 466.47 185.36 466.45 C 185.43 467.00 185.58 468.10 185.65 468.65 C 185.06 468.58 183.89 468.44 183.31 468.37 C 183.41 468.94 183.60 470.09 183.70 470.67 L 182.04 470.22 L 182.67 471.80 C 182.12 471.67 181.03 471.40 180.48 471.27 C 180.50 471.90 180.54 473.18 180.56 473.81 C 180.06 473.68 179.07 473.42 178.58 473.29 C 178.56 474.16 178.52 475.91 178.50 476.79 L 175.78 476.14 L 178.69 478.09 L 175.22 477.24 C 175.69 477.77 176.65 478.82 177.12 479.35 C 176.40 479.41 174.96 479.52 174.24 479.57 C 174.42 480.10 174.78 481.17 174.97 481.71 L 173.49 481.21 C 173.51 482.72 173.53 484.24 173.56 485.77 L 172.34 485.19 C 172.39 486.06 172.49 487.81 172.53 488.68 C 171.76 488.58 170.20 488.39 169.42 488.30 C 168.82 498.19 169.03 508.10 169.00 518.00 C 169.00 547.00 169.00 576.01 169.00 605.01 C 169.05 616.85 168.76 628.70 169.51 640.52 C 170.34 640.47 172.00 640.35 172.83 640.30 C 172.67 640.90 172.36 642.10 172.21 642.70 L 173.58 642.19 C 173.54 643.08 173.46 644.85 173.42 645.74 L 174.71 645.28 C 174.63 645.91 174.46 647.16 174.38 647.79 L 176.85 647.16 L 174.55 649.23 L 177.73 647.63 L 174.69 650.44 L 178.70 648.17 L 176.11 650.90 L 178.67 650.17 C 178.30 651.27 177.54 653.47 177.16 654.57 L 180.81 651.59 L 178.22 655.13 L 180.51 653.88 L 180.31 655.91 L 181.69 655.02 L 181.05 658.42 L 182.86 654.38 L 182.28 657.77 L 184.99 657.16 L 182.20 659.21 L 185.43 657.87 L 182.63 660.55 L 186.27 658.38 L 183.71 661.84 L 187.05 659.20 L 185.96 661.49 L 187.88 661.40 L 187.21 663.76 C 187.77 663.30 188.88 662.38 189.44 661.92 C 189.44 662.62 189.45 664.01 189.45 664.71 C 190.32 664.56 192.05 664.27 192.92 664.12 L 189.07 665.86 L 192.70 665.27 L 192.41 666.89 C 192.98 666.67 194.11 666.24 194.67 666.03 L 194.24 667.49 C 195.94 667.55 197.64 667.62 199.34 667.70 C 199.37 668.42 199.42 669.85 199.44 670.56 C 200.89 670.51 202.34 670.47 203.80 670.44 L 203.19 671.60 C 204.75 671.52 206.32 671.46 207.89 671.39 L 207.09 672.53 C 209.29 672.49 211.50 672.55 213.70 672.50 L 213.44 675.14 C 213.97 674.39 215.03 672.91 215.56 672.16 L 215.26 674.52 C 221.34 674.53 227.43 674.59 233.52 674.47 C 233.64 675.32 233.88 677.03 234.00 677.89 L 235.04 672.38 L 236.01 679.83 C 236.28 678.50 236.82 675.84 237.09 674.50 C 237.37 676.61 237.53 678.73 237.58 680.87 L 238.59 680.11 C 238.51 682.02 238.50 683.94 238.44 685.87 L 239.46 685.12 C 239.44 688.05 239.54 690.98 239.49 693.92 L 240.47 693.13 C 240.47 695.39 240.44 697.65 240.47 699.92 L 241.60 699.09 C 241.56 700.04 241.46 701.96 241.42 702.91 L 242.83 702.10 C 242.69 702.76 242.42 704.09 242.28 704.75 L 240.72 706.31 L 243.43 705.08 C 243.42 708.34 243.54 711.60 243.52 714.87 L 244.50 714.18 C 244.46 716.09 244.45 717.98 244.42 719.91 L 245.52 719.18 C 245.46 721.10 245.43 723.02 245.37 724.95 L 246.52 724.18 C 246.45 725.76 246.38 727.34 246.32 728.93 L 247.47 728.20 C 247.48 730.43 247.45 732.66 247.47 734.90 L 248.49 734.11 C 248.45 737.02 248.56 739.94 248.49 742.87 L 249.48 742.13 C 249.44 744.72 249.48 747.32 249.46 749.92 L 250.61 749.10 C 250.54 750.06 250.42 751.97 250.36 752.92 L 251.59 752.10 C 251.53 753.68 251.47 755.26 251.41 756.85 L 252.54 756.14 C 252.53 758.40 252.46 760.65 252.45 762.92 L 253.46 762.12 C 253.40 765.02 253.54 767.94 253.49 770.85 L 254.53 770.16 C 254.50 772.72 254.54 775.30 254.50 777.87 L 255.63 777.07 C 255.56 778.65 255.50 780.24 255.44 781.84 L 256.60 781.07 C 256.56 782.95 256.56 784.86 256.52 786.76 L 257.52 786.07 C 256.97 790.71 260.48 795.96 257.31 800.09 L 259.50 799.06 C 259.47 800.03 259.41 801.98 259.38 802.96 L 260.56 802.13 C 260.51 803.08 260.41 804.98 260.37 805.93 L 261.52 805.11 C 261.52 807.35 261.46 809.60 261.47 811.87 L 262.49 811.15 C 262.43 814.01 262.53 816.88 262.49 819.75 L 263.53 819.28 C 263.48 821.15 263.47 823.01 263.42 824.90 L 264.48 824.10 C 264.46 826.70 264.51 829.31 264.52 831.92 L 265.61 831.08 C 265.57 832.98 265.56 834.91 265.52 836.84 L 266.61 836.06 C 266.58 838.01 266.59 839.97 266.60 841.94 L 268.54 840.87 C 266.55 843.79 267.96 847.58 267.56 850.91 L 268.61 850.07 C 268.55 851.66 268.50 853.27 268.45 854.88 L 269.64 854.10 C 269.59 855.67 269.55 857.24 269.50 858.83 L 270.64 858.04 C 270.59 859.95 270.58 861.90 270.52 863.83 L 271.57 863.05 C 271.58 865.29 271.53 867.56 271.53 869.82 L 272.54 869.15 C 272.49 871.04 272.47 872.93 272.44 874.84 L 273.52 874.17 C 273.46 877.06 273.57 879.97 273.53 882.87 L 274.67 882.03 C 274.61 882.99 274.50 884.91 274.45 885.87 L 275.64 885.05 C 275.57 886.64 275.50 888.23 275.43 889.84 L 276.53 889.09 C 276.49 891.65 276.56 894.24 276.50 896.81 L 277.49 896.17 C 277.44 899.07 277.53 901.98 277.49 904.89 L 278.63 904.07 C 278.57 905.02 278.46 906.94 278.40 907.89 L 279.64 907.09 C 279.58 908.05 279.44 909.98 279.38 910.94 L 280.50 910.06 C 280.51 912.66 280.53 915.27 280.50 917.88 L 281.50 917.09 C 281.47 919.67 281.52 922.26 281.51 924.86 L 282.54 924.15 C 282.54 926.39 282.47 928.62 282.46 930.88 L 283.50 930.13 C 283.50 932.36 283.55 934.61 283.59 936.86 C 284.05 936.67 284.98 936.31 285.45 936.13 C 285.42 938.06 285.42 939.99 285.39 941.95 L 286.39 941.16 C 286.35 945.41 286.58 949.66 286.51 953.92 L 287.59 953.14 C 287.51 954.57 287.43 956.02 287.35 957.47 L 291.21 958.00 C 289.73 958.25 286.77 958.75 285.29 959.01 L 289.60 959.59 C 289.50 961.02 289.41 962.47 289.32 963.93 L 290.45 963.15 C 290.39 966.71 290.54 970.28 290.53 973.86 L 291.45 973.17 C 291.47 976.51 291.60 979.87 291.65 983.23 L 294.20 980.99 C 292.81 982.70 292.23 984.67 292.46 986.89 L 295.29 985.73 C 293.56 987.26 292.98 989.29 293.55 991.81 C 294.18 991.57 295.44 991.10 296.07 990.87 C 295.63 991.86 294.75 993.83 294.31 994.82 L 295.57 994.06 C 295.56 995.68 295.57 997.32 295.59 998.97 L 297.67 997.68 C 297.34 998.69 296.68 1000.72 296.36 1001.73 C 296.89 1001.58 297.95 1001.28 298.47 1001.13 C 298.58 1002.87 298.72 1004.65 298.83 1006.42 C 299.28 1006.35 300.17 1006.20 300.61 1006.13 C 300.61 1006.91 300.60 1008.47 300.60 1009.25 C 301.96 1009.46 303.33 1009.73 304.68 1010.06 L 300.61 1011.01 L 307.24 1011.98 L 302.64 1012.97 C 303.42 1013.11 304.97 1013.40 305.75 1013.55 C 305.64 1014.05 305.43 1015.07 305.32 1015.58 C 305.91 1015.54 307.09 1015.47 307.68 1015.43 C 307.59 1015.95 307.39 1016.99 307.29 1017.51 C 308.14 1017.52 309.83 1017.54 310.68 1017.55 C 310.57 1018.08 310.35 1019.13 310.24 1019.66 C 310.75 1019.59 311.77 1019.46 312.27 1019.39 C 312.48 1020.21 312.90 1021.86 313.11 1022.68 L 314.00 1019.11 L 314.87 1024.31 L 315.73 1021.49 L 316.82 1021.85 L 314.90 1024.66 L 318.62 1021.89 L 316.27 1025.02 L 318.56 1023.96 L 318.33 1025.71 C 318.91 1025.63 320.07 1025.47 320.64 1025.39 C 320.57 1025.90 320.42 1026.93 320.34 1027.45 C 322.11 1027.46 323.89 1027.49 325.67 1027.52 L 325.55 1030.08 C 326.07 1029.31 327.11 1027.75 327.63 1026.97 L 327.20 1029.42 C 328.80 1029.56 332.02 1029.85 333.62 1030.00 C 331.18 1030.25 326.28 1030.76 323.83 1031.01 C 330.18 1031.74 336.59 1032.11 342.99 1032.00 C 530.00 1032.00 717.01 1032.00 904.02 1032.00 C 914.55 1031.95 925.10 1032.24 935.63 1031.51 C 935.54 1030.73 935.36 1029.18 935.27 1028.41 C 936.16 1028.44 937.95 1028.52 938.85 1028.55 L 938.13 1027.36 C 938.95 1027.43 940.61 1027.56 941.43 1027.62 L 942.03 1024.34 C 942.28 1025.55 942.78 1027.96 943.02 1029.17 L 943.60 1025.07 C 944.00 1025.25 944.81 1025.61 945.21 1025.79 C 945.44 1024.93 945.90 1023.20 946.13 1022.34 L 947.04 1026.13 L 947.65 1021.55 C 948.25 1022.14 949.47 1023.33 950.08 1023.92 L 948.20 1020.57 L 951.49 1023.02 L 948.86 1019.29 L 952.00 1021.78 L 951.04 1019.49 C 951.70 1019.48 953.01 1019.47 953.67 1019.46 C 953.58 1018.95 953.39 1017.94 953.29 1017.44 C 953.90 1017.48 955.11 1017.56 955.71 1017.60 C 955.62 1017.14 955.46 1016.21 955.37 1015.74 C 956.18 1015.53 957.81 1015.10 958.63 1014.88 L 954.80 1013.96 L 958.95 1013.38 C 958.73 1012.90 958.29 1011.92 958.07 1011.44 L 959.76 1011.88 L 959.39 1010.26 C 959.92 1010.38 960.97 1010.60 961.50 1010.72 C 961.47 1009.83 961.42 1008.06 961.40 1007.18 L 962.69 1007.74 C 962.60 1007.10 962.41 1005.83 962.32 1005.19 L 964.62 1005.75 L 961.80 1002.40 L 965.99 1005.42 L 962.68 1001.25 L 966.88 1004.29 C 966.21 1003.51 964.87 1001.97 964.20 1001.19 C 964.77 1001.31 965.91 1001.55 966.48 1001.67 C 966.45 999.84 966.42 998.01 966.40 996.20 L 967.51 996.75 C 967.49 995.02 967.49 993.30 967.51 991.60 L 970.08 993.61 L 966.59 988.88 L 970.80 992.62 C 970.38 991.48 969.53 989.20 969.11 988.05 L 970.45 988.87 C 970.41 985.30 970.53 981.74 970.54 978.18 L 971.49 978.79 C 971.46 976.60 971.16 974.24 972.39 972.30 C 972.48 970.22 972.49 968.16 972.50 966.11 L 973.62 966.93 C 973.56 965.97 973.44 964.05 973.38 963.08 L 974.55 963.91 C 974.49 961.97 974.49 960.07 974.45 958.15 L 975.50 958.91 C 975.46 955.65 975.60 952.40 975.56 949.15 L 976.53 949.90 C 976.51 947.62 976.45 945.36 976.47 943.09 L 977.65 943.91 C 977.58 942.97 977.44 941.09 977.37 940.15 L 978.61 940.90 C 978.54 939.30 978.48 937.71 978.43 936.13 L 979.52 936.89 C 979.27 930.35 980.41 923.77 979.17 917.29 C 979.61 919.13 979.61 921.35 981.41 922.50 C 981.53 920.03 981.55 917.59 981.53 915.13 L 982.66 915.97 C 982.60 915.00 982.48 913.06 982.42 912.09 L 983.62 912.93 C 983.55 911.31 983.48 909.71 983.43 908.11 L 984.58 908.90 C 984.52 906.97 984.48 905.03 984.44 903.12 L 985.44 903.85 C 985.43 900.31 985.56 896.76 985.48 893.23 L 986.67 893.70 C 986.58 892.81 986.41 891.02 986.32 890.13 L 987.62 890.84 C 987.55 889.91 987.42 888.05 987.35 887.12 L 988.50 887.91 C 988.48 884.95 988.57 882.00 988.60 879.05 L 990.68 880.23 C 988.71 878.33 989.81 875.50 989.52 873.16 L 990.54 873.83 C 990.48 871.91 990.48 870.01 990.44 868.11 L 991.49 868.90 C 991.35 865.83 992.01 862.63 990.71 859.72 L 993.39 864.69 L 992.08 860.26 L 993.53 860.79 C 993.45 859.20 993.39 857.63 993.33 856.07 L 994.42 856.82 C 994.37 852.58 994.59 848.34 994.55 844.10 L 995.55 844.90 C 995.47 842.96 995.48 841.04 995.43 839.13 L 996.61 839.91 C 996.56 838.96 996.47 837.07 996.42 836.12 L 997.63 836.92 C 997.54 835.31 997.47 833.71 997.40 832.12 L 998.53 832.92 C 998.50 830.63 998.46 828.36 998.45 826.09 L 999.53 826.85 C 999.21 824.86 999.97 822.48 998.33 820.93 C 998.83 821.15 999.83 821.59 1000.33 821.81 C 1000.41 818.91 1000.52 816.02 1000.44 813.14 L 1001.58 813.81 C 1001.50 812.21 1001.43 810.63 1001.37 809.06 L 1002.46 809.91 C 1002.46 806.93 1002.57 803.96 1002.81 801.01 C 1003.40 804.17 1003.35 807.44 1003.44 810.67 C 1003.96 807.18 1003.63 803.65 1003.33 800.17 C 1003.59 800.30 1004.10 800.54 1004.36 800.67 C 1004.37 798.93 1004.41 797.21 1004.50 795.49 L 1001.96 794.98 C 1002.80 794.82 1004.48 794.52 1005.32 794.36 C 1005.32 791.60 1005.43 788.84 1005.49 786.09 L 1006.65 786.86 C 1006.58 785.92 1006.43 784.04 1006.36 783.09 L 1007.51 783.90 C 1007.47 781.30 1007.52 778.69 1007.49 776.10 L 1008.60 776.87 C 1008.32 774.83 1008.89 772.52 1007.46 770.81 L 1009.35 771.91 C 1009.05 769.84 1010.51 766.89 1007.80 765.88 C 1008.46 766.12 1009.78 766.59 1010.44 766.83 C 1010.08 764.42 1011.30 761.49 1009.12 759.65 L 1011.47 760.91 C 1011.43 759.94 1011.35 757.99 1011.31 757.01 L 1012.50 757.84 C 1012.28 755.49 1013.01 752.72 1010.79 751.00 L 1013.32 753.17 C 1013.38 750.45 1013.42 747.73 1013.37 745.02 L 1014.29 745.71 C 1013.80 742.10 1015.30 738.75 1017.24 735.83 L 1012.18 735.02 L 1017.31 734.22 C 1017.35 729.77 1017.41 725.25 1017.56 720.82 L 1019.03 728.00 C 1018.39 724.08 1018.22 720.12 1018.46 716.17 L 1020.57 716.17 C 1019.44 715.84 1017.18 715.19 1016.05 714.86 L 1020.42 714.37 C 1020.32 713.02 1020.23 711.68 1020.15 710.35 L 1023.33 709.99 C 1021.59 709.76 1018.13 709.29 1016.40 709.06 C 1017.99 708.55 1021.17 707.53 1022.76 707.02 L 1021.16 708.02 C 1021.34 705.36 1021.69 700.06 1021.87 697.40 L 1024.46 703.84 C 1022.47 698.41 1023.69 692.63 1023.37 687.01 L 1024.30 687.90 C 1024.38 687.31 1024.54 686.13 1024.61 685.54 L 1021.20 685.00 L 1025.54 684.33 C 1025.46 683.53 1025.30 681.91 1025.22 681.10 C 1025.51 681.27 1026.10 681.59 1026.39 681.75 C 1026.41 679.64 1026.42 677.53 1026.50 675.44 C 1027.33 675.48 1028.98 675.55 1029.81 675.59 L 1029.06 674.44 C 1035.01 674.61 1040.96 674.51 1046.91 674.53 L 1046.10 673.38 C 1047.66 673.43 1049.23 673.49 1050.82 673.56 L 1050.12 672.46 C 1052.31 672.44 1054.51 672.46 1056.72 672.43 C 1056.58 672.16 1056.29 671.62 1056.14 671.35 C 1057.85 671.36 1059.61 671.38 1061.36 671.42 L 1061.90 667.61 L 1063.12 671.38 C 1062.97 670.30 1062.69 668.14 1062.54 667.06 L 1064.29 669.86 C 1064.48 668.99 1064.87 667.25 1065.06 666.37 L 1066.03 670.11 L 1066.56 666.37 C 1067.36 666.41 1068.98 666.50 1069.78 666.55 L 1069.15 664.32 C 1070.04 665.01 1071.81 666.40 1072.70 667.09 L 1070.15 664.09 L 1072.54 664.78 C 1072.53 664.15 1072.49 662.88 1072.48 662.24 C 1073.03 662.39 1074.13 662.68 1074.68 662.82 L 1073.53 659.32 L 1075.91 663.38 L 1075.12 660.26 L 1076.70 660.90 L 1076.25 659.24 L 1077.92 659.69 L 1077.14 658.01 L 1079.21 659.29 L 1077.00 656.65 L 1080.26 658.67 L 1077.78 655.27 L 1081.26 657.83 L 1079.49 655.22 L 1081.64 655.91 L 1081.27 654.26 L 1082.90 654.66 L 1082.00 651.77 L 1083.81 654.13 C 1083.64 652.87 1083.28 650.34 1083.10 649.08 L 1085.01 653.18 L 1084.06 648.73 L 1085.83 651.01 L 1085.12 648.32 L 1086.60 648.73 C 1086.57 648.07 1086.51 646.76 1086.48 646.10 L 1088.69 646.94 L 1086.27 643.78 L 1089.04 645.86 C 1088.83 644.92 1088.40 643.06 1088.18 642.12 L 1089.55 642.85 C 1089.52 641.96 1089.47 640.20 1089.45 639.32 C 1090.22 639.40 1091.78 639.58 1092.55 639.67 C 1093.49 615.46 1092.78 591.22 1093.00 567.00 C 1092.78 540.77 1093.48 514.52 1092.59 488.31 C 1091.82 488.40 1090.28 488.58 1089.51 488.67 C 1089.50 487.18 1089.50 485.70 1089.50 484.23 L 1088.05 484.77 C 1088.41 483.73 1089.13 481.66 1089.49 480.62 L 1086.20 483.59 L 1088.96 479.40 L 1086.13 481.67 L 1087.01 479.40 L 1085.31 479.59 L 1085.94 476.52 L 1083.88 479.53 C 1084.26 478.69 1085.03 477.01 1085.41 476.17 L 1083.37 476.77 C 1083.44 476.15 1083.60 474.91 1083.68 474.29 L 1082.03 474.76 L 1082.96 473.20 L 1081.27 473.69 C 1081.37 473.12 1081.56 471.99 1081.65 471.42 C 1081.07 471.46 1079.91 471.55 1079.33 471.60 C 1079.42 471.04 1079.59 469.92 1079.67 469.36 C 1079.09 469.43 1077.92 469.56 1077.34 469.63 C 1077.42 469.07 1077.56 467.95 1077.64 467.39 C 1077.07 467.45 1075.95 467.58 1075.38 467.64 C 1075.44 467.06 1075.55 465.90 1075.60 465.32 C 1075.03 465.42 1073.88 465.64 1073.30 465.75 L 1073.81 464.07 L 1072.42 464.93 C 1072.39 464.42 1072.33 463.39 1072.30 462.88 L 1069.64 465.02 L 1072.03 461.26 L 1069.15 463.79 L 1069.83 461.40 L 1066.30 461.66 L 1069.83 460.44 C 1068.64 460.44 1066.28 460.45 1065.09 460.45 L 1065.97 459.28 C 1065.13 459.35 1063.46 459.50 1062.62 459.57 L 1062.04 454.71 L 1061.03 459.64 C 1060.75 458.24 1060.21 455.43 1059.93 454.03 C 1059.71 455.55 1059.25 458.59 1059.02 460.11 L 1058.03 453.48 L 1057.05 458.02 C 1056.92 457.38 1056.67 456.10 1056.55 455.45 C 1054.38 455.46 1052.23 455.39 1050.08 455.39 L 1051.18 453.34 L 1049.50 454.38 C 1004.82 454.58 960.14 454.38 915.46 454.48 C 915.49 453.66 915.56 452.01 915.60 451.18 L 914.50 451.85 C 914.56 412.59 914.68 373.31 914.44 334.05 L 912.19 334.99 C 913.12 333.82 915.00 331.50 915.93 330.34 L 913.48 332.80 C 913.51 330.44 913.47 328.10 913.41 325.75 L 910.66 327.94 L 914.07 323.22 L 909.92 326.85 C 912.22 325.15 911.35 322.43 911.58 320.11 L 910.43 320.91 C 910.47 319.31 910.53 317.71 910.60 316.12 L 909.51 316.82 C 909.53 315.27 909.54 313.73 909.57 312.20 L 907.94 312.59 C 908.27 312.01 908.92 310.85 909.25 310.27 L 907.47 310.84 C 907.51 309.95 907.58 308.16 907.61 307.27 L 904.73 307.91 L 908.74 305.92 C 907.95 306.11 906.37 306.50 905.57 306.69 C 905.52 304.50 905.49 302.32 905.43 300.14 L 904.31 300.95 C 904.35 300.10 904.43 298.40 904.48 297.55 C 903.72 297.55 902.20 297.56 901.43 297.56 C 901.49 296.70 901.60 294.98 901.66 294.12 L 900.51 294.85 C 900.48 293.28 900.46 291.72 900.45 290.16 L 899.20 290.87 C 899.30 290.24 899.50 288.97 899.60 288.33 C 899.03 288.44 897.88 288.66 897.31 288.77 L 897.87 287.11 L 896.50 287.76 C 896.47 286.31 896.44 284.86 896.43 283.41 C 895.92 283.47 894.89 283.57 894.38 283.62 C 894.46 283.05 894.62 281.92 894.70 281.35 L 893.12 281.69 L 893.66 280.12 C 893.14 280.26 892.10 280.53 891.58 280.67 C 891.54 279.22 891.47 277.78 891.44 276.34 C 890.94 276.44 889.93 276.64 889.43 276.74 C 889.46 276.13 889.53 274.91 889.57 274.29 C 889.05 274.40 888.02 274.61 887.51 274.71 C 887.45 273.34 887.40 271.97 887.36 270.60 C 886.61 270.57 885.10 270.51 884.35 270.48 C 884.44 269.96 884.62 268.91 884.72 268.38 C 884.11 268.43 882.89 268.52 882.28 268.57 C 882.46 267.73 882.82 266.05 883.00 265.21 L 881.00 268.84 L 881.92 264.89 L 880.16 267.05 L 880.77 264.37 C 880.20 264.43 879.07 264.55 878.50 264.61 C 878.48 263.85 878.45 262.34 878.43 261.58 C 877.65 261.56 876.08 261.51 875.30 261.48 C 875.41 260.97 875.65 259.94 875.76 259.43 C 875.13 259.45 873.86 259.49 873.23 259.52 C 873.36 259.02 873.63 258.04 873.76 257.55 C 872.89 257.54 871.14 257.51 870.27 257.50 C 870.39 256.99 870.62 255.98 870.74 255.47 C 870.12 255.49 868.88 255.52 868.26 255.53 C 868.38 255.03 868.62 254.03 868.74 253.52 C 867.88 253.52 866.16 253.51 865.31 253.50 C 865.39 252.99 865.57 251.96 865.66 251.45 C 865.07 251.50 863.89 251.60 863.30 251.65 L 863.77 248.45 L 862.11 252.40 L 862.65 249.24 C 862.07 249.36 860.90 249.60 860.32 249.72 L 860.87 248.10 L 859.28 248.94 L 859.62 247.24 C 859.05 247.40 857.89 247.71 857.31 247.87 L 857.69 246.32 C 857.10 246.39 855.93 246.54 855.34 246.61 C 855.43 246.07 855.61 244.99 855.70 244.45 C 854.81 244.50 853.04 244.59 852.15 244.63 L 852.84 243.61 C 852.24 243.52 851.05 243.34 850.45 243.25 L 849.99 245.86 L 849.43 242.20 L 846.09 243.03 L 849.90 241.01 C 849.01 241.20 847.23 241.58 846.34 241.77 L 846.81 240.21 L 845.22 240.65 L 845.50 237.91 C 845.07 238.79 844.22 240.57 843.80 241.46 L 843.37 238.25 C 842.19 238.80 839.82 239.90 838.64 240.44 L 841.28 237.71 C 839.57 237.60 837.88 237.50 836.19 237.39 C 836.35 236.93 836.69 236.00 836.85 235.53 C 835.29 235.52 833.74 235.52 832.19 235.53 L 832.82 234.48 C 830.57 234.47 828.35 234.54 826.13 234.52 L 826.87 233.41 C 825.35 233.44 823.84 233.47 822.35 233.51 C 822.44 232.73 822.62 231.18 822.72 230.40 C 816.46 230.53 810.22 229.87 803.97 230.00 C 694.64 230.00 585.30 230.00 475.97 230.00 C 462.57 230.06 449.13 229.66 435.77 231.00 Z" />
<path d=" M 462.77 329.59 L 462.10 328.46 C 575.03 328.53 687.96 328.52 800.88 328.46 L 800.24 329.81 C 801.26 329.45 803.29 328.74 804.31 328.38 L 801.85 331.78 L 804.90 329.20 L 804.16 331.61 L 807.89 331.28 L 804.06 332.76 C 805.23 332.66 807.56 332.46 808.73 332.36 L 807.98 335.03 L 809.92 331.79 L 809.18 334.65 L 810.88 334.13 L 810.11 335.38 L 813.68 336.03 C 812.59 336.28 810.41 336.78 809.32 337.03 L 813.86 337.70 C 813.17 338.43 811.81 339.89 811.12 340.62 L 813.78 338.13 L 813.22 340.43 L 817.49 340.90 C 816.33 341.23 814.00 341.88 812.83 342.21 L 815.59 342.30 C 815.55 343.17 815.48 344.93 815.44 345.80 L 816.51 345.17 C 816.39 380.74 816.44 416.31 816.48 451.87 L 815.40 451.17 C 815.44 452.00 815.51 453.66 815.54 454.49 C 692.52 454.44 569.49 454.44 446.47 454.49 C 446.49 453.67 446.55 452.02 446.57 451.20 L 445.50 451.82 C 445.60 416.40 445.56 380.98 445.52 345.56 L 448.60 344.96 C 447.43 344.72 445.09 344.24 443.92 343.99 L 450.10 342.97 C 448.69 342.73 445.86 342.24 444.45 342.00 L 448.86 341.41 C 448.68 340.91 448.31 339.91 448.12 339.41 L 450.00 339.94 L 449.04 338.64 L 453.19 337.98 C 451.86 337.74 449.20 337.25 447.87 337.01 C 449.05 336.84 451.40 336.51 452.57 336.35 C 452.50 335.84 452.36 334.82 452.29 334.31 L 455.56 334.65 L 451.93 333.30 C 453.60 333.23 456.93 333.08 458.60 333.00 C 457.09 332.76 454.06 332.28 452.55 332.04 L 458.05 331.32 L 456.55 329.00 L 460.61 331.93 L 457.29 328.10 C 458.93 329.25 460.76 329.75 462.77 329.59 Z" />
<path d=" M 627.45 610.73 C 626.80 609.96 625.49 608.43 624.84 607.66 C 628.85 607.48 632.87 607.51 636.89 607.49 L 636.08 608.67 C 637.02 608.60 638.90 608.45 639.84 608.38 L 639.14 609.57 C 641.03 609.53 642.91 609.51 644.81 609.49 L 644.19 610.60 C 645.07 610.56 646.85 610.49 647.74 610.46 L 647.16 613.43 L 649.06 609.93 L 647.99 614.50 L 650.02 610.37 L 649.26 613.67 C 649.86 613.59 651.08 613.43 651.68 613.35 L 651.34 614.92 C 651.92 614.73 653.07 614.35 653.65 614.16 L 653.10 615.78 L 654.78 615.16 L 654.11 616.86 L 655.74 616.12 L 655.09 617.76 L 656.70 617.27 C 656.62 617.87 656.46 619.07 656.38 619.66 C 656.95 619.56 658.10 619.35 658.68 619.24 L 658.20 620.78 L 659.80 620.24 L 659.22 621.84 L 660.78 621.32 C 660.65 621.91 660.39 623.09 660.26 623.68 L 661.88 623.34 C 661.69 623.92 661.31 625.07 661.13 625.65 L 662.77 625.33 C 662.63 625.88 662.34 626.97 662.20 627.52 L 665.85 627.72 C 664.79 628.23 662.67 629.25 661.61 629.76 L 665.84 628.65 L 662.89 630.72 L 665.53 630.28 C 665.50 631.79 665.48 633.32 665.47 634.85 L 666.45 634.17 C 666.46 635.54 666.49 636.92 666.55 638.31 C 667.17 639.43 667.58 640.63 667.46 641.95 C 667.34 711.28 667.52 780.62 667.37 849.95 L 665.32 848.69 C 667.64 851.03 665.33 854.57 667.23 857.11 L 663.82 854.11 L 666.76 858.25 L 664.58 856.78 C 664.49 858.31 664.40 859.84 664.32 861.39 C 663.62 861.41 662.21 861.44 661.50 861.45 C 661.48 862.84 661.47 864.24 661.47 865.65 C 660.94 865.56 659.89 865.38 659.37 865.29 C 659.43 865.85 659.56 866.95 659.62 867.50 C 658.92 867.53 657.52 867.61 656.82 867.65 C 657.30 868.16 658.28 869.17 658.77 869.68 L 656.39 869.19 C 656.42 869.82 656.47 871.06 656.49 871.68 C 655.94 871.55 654.85 871.29 654.30 871.16 L 654.77 872.56 C 653.89 872.55 652.12 872.54 651.24 872.54 C 651.37 873.02 651.63 873.98 651.75 874.46 C 651.08 874.47 649.74 874.49 649.07 874.50 L 650.02 876.81 L 646.81 874.24 L 649.13 877.40 C 648.15 877.10 646.18 876.49 645.20 876.18 L 645.85 877.63 C 644.92 877.57 643.05 877.44 642.12 877.38 L 642.88 878.59 C 641.93 878.54 640.04 878.45 639.09 878.41 L 639.94 879.51 C 634.64 879.50 629.34 879.59 624.04 879.54 L 624.90 878.41 C 623.94 878.48 622.02 878.63 621.05 878.70 L 621.86 877.49 C 620.29 877.51 618.72 877.55 617.16 877.59 L 617.79 876.45 C 616.90 876.47 615.13 876.50 614.25 876.52 C 614.37 876.01 614.61 874.99 614.73 874.49 C 614.09 874.51 612.81 874.55 612.17 874.57 C 612.30 874.11 612.55 873.19 612.68 872.73 C 612.14 872.62 611.04 872.38 610.50 872.26 L 610.03 875.20 L 609.29 871.02 C 608.49 871.57 606.89 872.66 606.09 873.20 L 608.79 870.17 L 606.41 870.85 L 606.59 867.01 L 605.34 871.19 C 605.38 869.97 605.45 867.53 605.49 866.31 C 604.97 866.43 603.94 866.68 603.43 866.81 C 603.45 866.18 603.49 864.92 603.51 864.29 C 602.96 864.42 601.86 864.67 601.31 864.80 L 601.98 863.14 L 600.48 863.75 C 600.51 862.86 600.57 861.09 600.60 860.20 L 599.32 860.80 C 599.45 859.56 599.72 857.09 599.85 855.85 L 598.03 860.28 L 598.76 856.23 L 597.38 856.81 C 597.42 855.89 597.51 854.06 597.55 853.14 L 596.36 853.89 C 596.44 852.30 596.52 850.73 596.61 849.17 L 595.54 849.85 C 595.58 779.61 595.67 709.37 595.49 639.13 L 596.49 639.83 C 596.46 638.05 596.46 636.29 596.46 634.53 L 599.49 634.02 C 598.29 633.75 595.90 633.21 594.71 632.94 L 598.77 632.41 C 598.61 631.87 598.30 630.81 598.14 630.28 L 599.65 630.73 C 599.59 629.86 599.46 628.11 599.40 627.23 L 600.97 627.64 C 600.73 627.08 600.26 625.97 600.02 625.41 L 601.64 625.70 C 601.56 625.11 601.41 623.94 601.33 623.36 L 604.20 623.50 L 600.96 622.09 L 605.07 622.49 C 604.44 622.06 603.18 621.20 602.55 620.77 C 603.65 620.64 605.84 620.36 606.94 620.23 C 606.48 619.74 605.55 618.78 605.09 618.30 L 607.49 618.76 C 607.53 618.08 607.61 616.71 607.66 616.02 C 608.41 616.51 609.91 617.50 610.66 617.99 L 608.08 614.94 L 610.39 615.91 L 610.96 611.87 L 611.99 616.49 C 612.10 615.72 612.32 614.19 612.43 613.42 C 614.26 613.31 616.09 613.17 617.93 612.99 C 616.20 612.75 612.76 612.28 611.03 612.05 L 616.80 611.33 L 613.94 610.36 C 616.20 610.52 618.46 610.48 620.74 610.45 L 620.03 607.83 L 622.03 611.45 L 621.33 608.51 C 623.70 608.23 625.74 608.97 627.45 610.73 Z" />
<path d=" M 477.08 610.46 L 476.19 607.53 C 479.71 607.53 483.23 607.50 486.76 607.51 L 486.33 610.48 C 486.84 609.56 487.86 607.71 488.38 606.78 L 488.38 609.51 C 490.50 609.53 492.62 609.46 494.76 609.50 L 494.21 610.59 C 495.08 610.56 496.81 610.51 497.68 610.48 C 497.58 611.01 497.38 612.06 497.28 612.59 C 497.89 612.54 499.10 612.44 499.71 612.39 C 499.62 612.91 499.44 613.94 499.35 614.45 C 500.80 614.47 502.24 614.49 503.70 614.52 C 503.61 615.04 503.44 616.09 503.35 616.62 C 503.87 616.54 504.91 616.37 505.42 616.29 C 505.57 617.56 505.87 620.09 506.02 621.35 C 506.26 619.93 506.73 617.07 506.96 615.64 L 507.66 620.90 L 509.56 619.99 L 508.22 621.94 L 509.98 621.21 L 509.31 622.78 L 512.08 622.19 C 511.34 623.01 509.85 624.66 509.11 625.48 L 511.89 623.12 L 511.15 625.68 L 512.54 625.34 C 512.57 627.01 512.63 628.70 512.67 630.39 C 513.38 630.40 514.82 630.43 515.53 630.44 C 515.52 632.23 515.51 634.01 515.50 635.81 L 516.48 635.14 C 516.71 693.11 516.52 751.07 516.58 809.04 C 516.49 824.27 516.79 839.50 516.37 854.73 C 515.85 854.58 514.81 854.27 514.29 854.12 C 515.01 855.03 516.45 856.85 517.17 857.76 L 513.92 855.08 L 514.89 857.42 L 510.65 857.99 C 511.98 858.24 514.64 858.74 515.98 858.98 L 512.36 859.56 C 512.40 860.36 512.48 861.97 512.51 862.77 L 511.34 862.08 C 511.37 863.01 511.42 864.88 511.44 865.81 L 510.23 865.09 C 510.19 866.18 510.13 868.38 510.09 869.47 C 509.85 868.29 509.37 865.93 509.12 864.75 C 508.92 865.59 508.51 867.26 508.31 868.10 L 506.27 866.97 L 508.98 870.46 L 505.03 867.52 C 505.56 868.24 506.61 869.67 507.13 870.39 C 506.42 870.44 504.98 870.53 504.27 870.58 C 504.39 871.05 504.63 872.00 504.76 872.48 C 503.29 872.50 501.84 872.54 500.39 872.59 C 500.47 872.91 500.64 873.56 500.72 873.88 L 497.56 874.41 C 499.06 874.52 502.06 874.75 503.56 874.87 C 501.71 875.13 499.86 875.37 498.01 875.60 C 498.20 876.04 498.59 876.91 498.78 877.34 C 496.87 877.35 494.97 877.38 493.07 877.41 L 493.88 878.52 C 492.95 878.47 491.08 878.37 490.14 878.31 L 490.81 879.48 L 484.19 879.42 L 490.50 881.18 C 484.81 879.88 478.95 880.58 473.17 880.41 C 471.73 879.88 470.55 878.88 469.25 878.12 L 469.92 877.37 C 468.76 877.40 466.43 877.47 465.27 877.51 C 465.41 877.21 465.70 876.60 465.84 876.30 C 465.03 876.34 463.41 876.41 462.60 876.45 C 462.59 875.72 462.58 874.28 462.58 873.56 C 460.62 873.41 458.67 873.22 456.73 872.98 C 458.19 872.74 461.10 872.26 462.55 872.02 L 457.23 871.46 L 458.90 869.66 L 455.19 872.04 L 457.79 869.14 L 455.43 869.88 C 455.46 869.23 455.52 867.93 455.55 867.29 C 455.01 867.38 453.93 867.58 453.40 867.68 C 453.46 867.10 453.60 865.93 453.67 865.35 C 453.09 865.40 451.93 865.51 451.35 865.57 C 451.47 864.97 451.73 863.77 451.85 863.18 L 450.50 863.84 C 450.51 862.92 450.53 861.09 450.54 860.18 L 449.32 860.84 C 449.43 859.62 449.66 857.16 449.77 855.93 L 448.01 860.58 L 448.71 856.54 L 444.34 856.01 C 445.71 855.76 448.45 855.27 449.82 855.02 L 446.35 854.47 C 446.42 853.03 446.50 851.60 446.58 850.18 L 445.51 850.89 C 445.59 779.63 445.58 708.37 445.51 637.11 L 446.56 637.83 C 446.50 636.25 446.45 634.68 446.41 633.12 L 447.58 633.86 C 447.55 632.94 447.50 631.11 447.48 630.19 C 447.98 630.34 448.99 630.64 449.49 630.79 C 449.47 629.32 449.44 627.86 449.42 626.41 L 452.05 626.96 L 448.98 625.59 C 450.00 625.45 452.04 625.15 453.05 625.00 L 448.58 623.94 L 452.82 623.43 C 452.69 622.93 452.43 621.93 452.30 621.43 C 452.89 621.48 454.07 621.58 454.66 621.63 C 454.58 621.06 454.44 619.92 454.37 619.34 C 454.94 619.42 456.09 619.59 456.67 619.67 C 456.59 619.10 456.45 617.97 456.38 617.41 C 456.95 617.47 458.08 617.59 458.65 617.65 C 458.59 617.07 458.46 615.91 458.40 615.33 C 458.97 615.43 460.10 615.63 460.66 615.73 L 460.06 612.65 L 461.72 616.23 L 461.35 613.24 C 461.86 613.38 462.89 613.66 463.40 613.79 L 464.02 609.47 L 464.67 613.34 L 465.48 613.14 L 465.17 611.27 L 466.79 611.65 L 466.34 609.09 C 466.89 609.74 467.99 611.04 468.53 611.69 L 468.28 609.52 C 470.74 609.47 473.21 609.42 475.68 609.49 L 474.24 605.91 L 477.08 610.46 Z" />
<path d=" M 768.86 610.56 L 768.17 609.54 C 770.75 609.55 773.32 609.45 775.91 609.41 L 774.69 607.05 L 776.43 608.36 C 781.00 607.83 786.41 609.93 790.15 606.58 L 787.80 609.35 C 790.14 609.43 792.47 609.47 794.82 609.52 L 794.18 610.57 C 795.09 610.54 796.89 610.50 797.79 610.48 L 797.16 613.00 L 799.67 610.06 L 797.50 614.51 L 800.52 610.61 L 798.79 614.50 L 801.04 611.90 L 800.17 614.46 C 801.08 614.47 802.91 614.49 803.82 614.49 L 803.10 615.82 L 804.84 615.31 L 804.28 616.97 L 805.79 616.25 C 805.68 616.83 805.46 617.98 805.35 618.55 C 805.96 618.51 807.17 618.43 807.78 618.38 C 807.66 618.91 807.42 619.95 807.30 620.48 C 807.94 620.47 809.21 620.46 809.85 620.45 L 809.16 622.69 L 812.20 620.30 C 811.51 621.07 810.13 622.60 809.44 623.36 L 814.39 623.96 C 813.12 624.21 810.59 624.73 809.33 624.99 L 812.79 625.55 C 812.69 626.08 812.48 627.14 812.38 627.68 C 812.91 627.57 813.97 627.37 814.50 627.27 C 814.50 628.33 814.51 630.46 814.52 631.53 L 815.73 627.87 L 815.42 632.52 L 818.46 632.86 C 817.50 633.16 815.57 633.77 814.60 634.07 L 816.54 634.35 C 816.71 695.56 816.56 756.78 816.61 818.00 C 816.56 830.63 816.74 843.27 816.46 855.90 C 816.03 855.78 815.19 855.54 814.76 855.42 C 814.66 856.91 814.57 858.41 814.49 859.91 C 814.02 859.77 813.07 859.48 812.60 859.33 C 812.60 860.22 812.58 861.99 812.58 862.88 L 811.44 862.12 C 811.46 863.02 811.51 864.82 811.53 865.73 C 811.02 865.63 810.00 865.45 809.49 865.36 C 809.52 865.94 809.59 867.10 809.62 867.69 C 809.06 867.62 807.94 867.48 807.38 867.42 C 807.47 867.99 807.66 869.14 807.75 869.71 L 805.06 869.06 L 808.25 870.87 L 805.27 870.21 L 805.93 871.69 L 804.22 871.37 L 804.82 873.99 L 802.93 871.11 L 803.68 873.67 C 802.58 873.53 800.39 873.26 799.30 873.13 L 802.39 874.68 L 799.31 874.34 C 799.39 874.88 799.55 875.98 799.63 876.52 C 798.77 876.49 797.04 876.42 796.18 876.39 L 796.81 877.57 C 795.25 877.51 793.70 877.46 792.16 877.42 L 792.87 878.59 C 791.93 878.55 790.04 878.46 789.10 878.41 L 789.93 879.53 C 783.84 879.53 777.74 879.59 771.65 879.44 C 771.52 878.60 771.26 876.93 771.13 876.09 C 770.79 877.00 770.12 878.82 769.79 879.72 L 769.69 877.32 C 768.56 877.42 766.29 877.61 765.16 877.70 L 769.28 876.02 L 765.25 876.76 L 765.70 875.35 C 765.06 875.40 763.78 875.51 763.14 875.56 L 763.97 873.17 L 761.05 875.57 L 763.48 871.95 L 759.64 874.88 L 762.55 870.86 C 761.72 871.58 760.07 873.01 759.24 873.73 L 759.73 871.31 C 759.15 871.39 758.00 871.56 757.42 871.65 C 757.46 871.05 757.54 869.87 757.58 869.27 C 757.06 869.38 756.03 869.60 755.51 869.70 C 755.50 868.85 755.50 867.14 755.50 866.29 C 754.98 866.38 753.95 866.58 753.44 866.68 C 753.49 866.08 753.59 864.88 753.64 864.28 L 751.43 864.67 L 753.01 863.13 L 751.08 863.59 C 751.28 863.06 751.67 861.99 751.87 861.46 L 750.13 861.55 C 750.32 860.99 750.71 859.88 750.90 859.32 L 749.45 859.77 C 749.49 858.88 749.56 857.11 749.60 856.22 L 748.18 856.73 L 748.96 853.38 L 747.29 856.56 C 747.51 854.74 747.89 852.75 746.53 851.28 C 746.48 849.90 746.46 848.52 746.47 847.16 L 745.51 847.86 C 745.64 835.07 745.67 822.28 745.50 809.49 L 748.25 809.00 L 745.50 808.50 C 745.65 802.00 745.67 795.49 745.48 789.00 L 746.41 790.01 L 746.41 787.00 L 745.45 787.98 C 745.62 785.14 745.64 782.30 745.50 779.46 L 748.29 779.00 L 745.50 778.53 C 745.66 772.17 745.65 765.81 745.50 759.46 L 748.32 759.00 L 745.53 758.55 C 745.55 756.84 745.55 755.14 745.53 753.46 L 748.32 753.00 L 745.50 752.54 C 745.65 745.69 745.68 738.84 745.48 732.00 L 746.40 733.01 L 746.43 730.04 L 745.47 730.95 C 745.67 726.13 745.65 721.31 745.49 716.50 L 748.26 716.00 L 745.50 715.51 C 745.65 712.70 745.61 709.89 745.44 707.10 L 746.42 707.93 L 746.41 705.05 L 745.44 705.92 C 745.74 691.78 745.62 677.63 745.50 663.49 L 748.27 663.00 L 745.50 662.51 C 745.65 655.41 745.67 648.31 745.48 641.22 L 746.49 641.71 C 746.42 639.01 746.53 636.32 746.52 633.63 L 750.34 633.01 L 745.17 631.96 L 748.23 631.67 C 748.23 629.31 748.44 625.06 751.72 625.40 C 751.63 624.90 751.43 623.91 751.34 623.41 C 751.92 623.45 753.08 623.52 753.66 623.56 C 753.56 623.01 753.34 621.92 753.23 621.37 L 754.70 621.73 C 754.66 621.06 754.59 619.73 754.55 619.06 C 755.37 619.55 757.02 620.51 757.84 621.00 L 755.18 618.31 L 757.80 618.68 L 757.19 616.24 L 760.09 618.76 C 759.42 617.79 758.07 615.83 757.40 614.85 L 760.93 617.45 L 759.00 614.67 C 759.96 614.63 761.86 614.53 762.81 614.49 L 762.21 613.24 C 762.85 613.34 764.12 613.54 764.76 613.64 L 764.16 611.15 L 767.09 613.82 C 766.57 613.01 765.53 611.40 765.01 610.60 C 765.97 610.59 767.90 610.57 768.86 610.56 Z" />
</g>
<g id="#ffffffff">
</g>
</svg>
