<?xml version="1.0" encoding="utf-8"?>
<!-- Generator: Adobe Illustrator 21.0.0, SVG Export Plug-In . SVG Version: 6.00 Build 0)  -->
<svg version="1.1" id="Capa_1" xmlns="http://www.w3.org/2000/svg" xmlns:xlink="http://www.w3.org/1999/xlink" x="0px" y="0px"
	 viewBox="0 0 512 512" style="enable-background:new 0 0 512 512;" xml:space="preserve">
<style type="text/css">
	.st0{fill:#91C7F9;}
	.st1{fill:#97DFFF;}
	.st2{fill:#474F70;}
	.st3{fill:#55CEED;}
	.st4{fill:#17A3BF;}
	.st5{fill:#FECD9C;}
	.st6{fill:#EAB689;}
	.st7{fill:#323B5B;}
	.st8{fill:#FFFFFF;}
	.st9{fill:#FF4F6F;}
</style>
<path class="st0" d="M508.9,256c0,15.7-1.4,31.1-4.1,46c0,0.2-0.1,0.4-0.1,0.5c-6.6,35.7-20.6,68.7-40.4,97.5
	c-6.3,9.2-13.3,18-20.8,26.3c-10.3,11.4-21.6,21.9-33.8,31.3c-14,10.8-29.1,20.1-45.1,27.8c-3.8,1.8-7.6,3.6-11.5,5.2
	c-3,1.3-6.1,2.5-9.2,3.7c-3.8,1.4-7.6,2.8-11.5,4c-7.8,2.5-15.7,4.6-23.8,6.4c-11.1,2.4-22.5,4.1-34.1,5c-6.5,0.5-13.2,0.8-19.8,0.8
	c-6.7,0-13.3-0.2-19.8-0.8c-1.7-0.1-3.4-0.3-5.1-0.4c-4.5-0.4-9-1-13.5-1.7C144.2,496.7,82.2,455.8,43.3,398
	c-4.2-6.3-8.2-12.8-11.9-19.5C11.4,342.2,0,300.4,0,256C0,115.5,113.9,1.5,254.5,1.5S508.9,115.5,508.9,256z"/>
<path class="st1" d="M460.8,207.8c0,12.7-1.2,25.2-3.4,37.3c0,0.1-0.1,0.3-0.1,0.4c-5.3,28.9-16.7,55.7-32.8,79
	c-5.1,7.5-10.8,14.6-16.8,21.3c-17.9,19.9-39.6,36.2-64,48c-5.5,2.6-11.1,5-16.8,7.2c-9.3,3.5-18.8,6.3-28.7,8.4
	c-9,1.9-18.3,3.3-27.7,4c-5.3,0.4-10.7,0.6-16.1,0.6c-5.4,0-10.7-0.2-16-0.6c-1.4-0.1-2.8-0.2-4.2-0.4c-3.7-0.4-7.3-0.8-10.9-1.4
	c-58.3-8.8-108.5-42-140.1-88.8c-3.4-5.1-6.7-10.4-9.7-15.8c-16.2-29.5-25.4-63.3-25.4-99.3C48.2,93.9,140.5,1.5,254.5,1.5
	S460.8,93.9,460.8,207.8z"/>
<path class="st2" d="M303.5,194.9H289v-57.1C289,70.6,234.4,16,167.2,16S45.4,70.6,45.4,137.8v57.1H31v-57.1
	C31,62.7,92.1,1.5,167.2,1.5s136.3,61.1,136.3,136.3V194.9z"/>
<path class="st3" d="M308.4,393.6v111.1c-11.1,2.4-22.5,4.1-34.1,5h-39.6c-1.7-0.1-3.4-0.3-5.1-0.4c-4.5-0.4-9-1-13.5-1.7
	c-79.7-12.1-147.3-61.1-184.7-129.1c2.1-2.6,4.7-4.8,7.8-6.3l65.8-33.4l62.2-8l8.6,1.1h0l53.6,6.9l65.8,33.4
	C303.3,376.3,308.4,384.6,308.4,393.6z"/>
<path class="st4" d="M175.8,331.9l-53.6,6.9l-65.8,33.4c-8.1,4.1-13.2,12.4-13.2,21.4v4.4c-4.2-6.3-8.2-12.8-11.9-19.5
	c2.1-2.6,4.7-4.8,7.8-6.3l65.8-33.4l62.2-8L175.8,331.9z"/>
<rect x="125" y="291.5" class="st5" width="87.3" height="56.1"/>
<g>
	<circle class="st6" cx="73" cy="197" r="27"/>
	<circle class="st6" cx="261.5" cy="197" r="27"/>
	<path class="st6" d="M148,291.5L148,291.5l-23,0v0h0v23.7c0,0,0,0,0,0v23.5h23l0,0c0-8,6.6-14.3,14.6-14c1.5,0.1,3.1,0.1,4.6,0.1
		c16.3,0,31.6-4,45.1-11.1v-22.3L148,291.5L148,291.5z"/>
</g>
<path class="st5" d="M264.4,120L70,109.6v108.4c0,53.7,43.5,97.2,97.2,97.2l0,0c53.7,0,97.2-43.5,97.2-97.2L264.4,120L264.4,120z"/>
<path class="st6" d="M181.1,65.4l-59.6,5.2c-9.1,0-17.5,3-24.2,8.1h-4v3.5c-7.3,7.3-11.8,17.3-11.8,28.4L66.2,165
	c0,7.1-2.9,13,3.8,14.2v38.9c0,53.7,43.5,97.2,97.2,97.2l0,0c3.6,0,7.2-0.2,10.7-0.6c-48.6-5.3-86.5-46.6-86.5-96.6v-57.4
	c0-9,7-16.6,15.9-16.9c0.3,0,0.6,0,0.9,0l0,0c9.1,0,18.1,3.1,25.2,8.8c9.2,7.4,21.1,13.5,33.8,11.9c25.3-3.1,24.5-19.8,33.8-27.3
	c7.1-5.7,16-8.8,25.2-8.8h0.4c11.7,0,20.8-4.4,20.8,7.3c0,7.9,6.2,43.8,14.1,44c4.1,0.1,7.8-1.5,10.5-4.2c2.6-2.6-0.7-6.2-0.7-10.2
	l-3.5-13.3"/>
<path class="st2" d="M276.2,116.3v49c0,4-1.6,7.6-4.2,10.2c-2.7,2.7-6.4,4.3-10.5,4.2c-7.9-0.2-14.1-6.8-14.1-14.7v-7.4
	c0-5.9-2.4-11.2-6.2-15s-9.1-6.2-15-6.2c-9.1,0-18,3.1-25.2,8.8c-9.2,7.4-21,11.9-33.8,11.9c-12.8,0-24.5-4.5-33.8-11.9
	c-1.2-1-2.5-1.9-3.8-2.7c0,0,0,0,0,0c-2.5-1.6-5.2-2.8-8-3.8c-4.3-1.5-8.8-2.3-13.4-2.3c-11.7,0-21.2,9.5-21.2,21.2v7.7
	c0,4-1.6,7.6-4.2,10.2c-2.6,2.6-6.2,4.2-10.2,4.2c-8,0-14.4-6.5-14.4-14.4v-49c0-42.9,34.8-77.6,77.6-77.6h62.8
	C241.5,38.7,276.2,73.4,276.2,116.3z"/>
<path class="st7" d="M112.3,116.3c0-42.9,34.8-77.6,77.6-77.6h-54.1c-42.9,0-77.6,34.8-77.6,77.6v49c0,8,6.5,14.4,14.4,14.4
	c4,0,7.6-1.6,10.2-4.2c2.6-2.6,4.2-6.2,4.2-10.2v-7.7c0-11.7,9.5-21.2,21.2-21.2c1.4,0,2.7,0.1,4.1,0.2
	C112.3,136.6,112.3,116.3,112.3,116.3z"/>
<path class="st6" d="M146.1,192.4c-0.5,4.5-4.5,7.8-9,7.8h-23.5c-2.4,0-4.7-1-6.3-2.6c-1.8-1.8-2.9-4.5-2.5-7.4
	c0.5-4.5,4.5-7.8,9-7.8h23.5c2.4,0,4.7,1,6.3,2.6C145.4,186.8,146.5,189.5,146.1,192.4z"/>
<path class="st8" d="M146.1,198.6c-0.5,4.5-4.5,7.8-9,7.8h-23.5c-2.4,0-4.7-1-6.3-2.6c-1.8-1.8-2.9-4.5-2.5-7.4
	c0.5-4.5,4.5-7.8,9-7.8h23.5c2.4,0,4.7,1,6.3,2.6C145.4,193,146.5,195.7,146.1,198.6z"/>
<path class="st6" d="M227,182.4h-23.7c-4.9,0-8.9,4-8.9,8.9l0,0c0,4.9,4,8.9,8.9,8.9H227c4.9,0,8.9-4,8.9-8.9l0,0
	C235.9,186.4,231.9,182.4,227,182.4z"/>
<path class="st8" d="M227,188.6h-23.7c-4.9,0-8.9,4-8.9,8.9l0,0c0,4.9,4,8.9,8.9,8.9H227c4.9,0,8.9-4,8.9-8.9l0,0
	C235.9,192.6,231.9,188.6,227,188.6z"/>
<path class="st6" d="M234.7,164.7h-39c-2.8,0-5,2.2-5,5l0,0c0,2.8,2.2,5,5,5h39c2.8,0,5-2.2,5-5l0,0
	C239.7,166.9,237.4,164.7,234.7,164.7z"/>
<g>
	<path class="st2" d="M137.3,194.5c0,6.5-5.3,11.8-11.8,11.8s-11.8-5.3-11.8-11.8c0-2.2,0.6-4.2,1.6-5.9h20.4
		C136.7,190.3,137.3,192.4,137.3,194.5z"/>
	<path class="st2" d="M227,194.5c0,6.5-5.3,11.8-11.8,11.8c-6.5,0-11.8-5.3-11.8-11.8c0-2.2,0.6-4.2,1.6-5.9h20.4
		C226.4,190.3,227,192.4,227,194.5z"/>
	<path class="st2" d="M259.5,276.5h-31.8v-9.6h31.8c7.9,0,14.4-6.4,14.4-14.4V222h9.6v30.5C283.5,265.7,272.7,276.5,259.5,276.5z"/>
</g>
<g>
	<path class="st6" d="M106.1,164.7c-2.8,0-5.1,2.2-5.2,4.9c-0.1,2.8,2.2,5.1,5,5.1h27.4c10.9,0,19.7,8.8,19.7,19.7v48.8h5
		c6.4,0,11.5-5.2,11.5-11.5v-51.9c0-8.3-6.7-15-15-15L106.1,164.7L106.1,164.7z"/>
	<path class="st6" d="M183.9,259.5c-10.8,3.6-22.5,3.6-33.4,0c-2.9-0.9-6.2,0.2-7.5,2.9l0,0c-1.3,2.7,0.5,6.2,4.1,7.4
		c13,4.3,27.1,4.3,40.1,0c3.6-1.2,5.4-4.7,4.1-7.4l0,0C190.1,259.7,186.8,258.6,183.9,259.5z"/>
	<path class="st6" d="M173.1,280.3h-11.7c-3,0-5.4,2.4-5.4,5.4l0,0c0,3,2.4,5.4,5.4,5.4h11.7c3,0,5.4-2.4,5.4-5.4l0,0
		C178.5,282.7,176.1,280.3,173.1,280.3z"/>
</g>
<g>
	<path class="st4" d="M119.2,321.2l43.1,18.5c4.4,1.9,6.3,7.2,3.9,11.5l-14,25.1c-2.7,4.9-9.4,5.7-13.2,1.5l-35.5-38.9
		c-3.3-3.6-2.7-9.2,1.2-12.1l6.4-4.6C113.5,320.4,116.5,320,119.2,321.2z"/>
	<path class="st4" d="M215.2,321.2l-43.1,18.5c-4.4,1.9-6.3,7.2-3.9,11.5l14,25.1c2.7,4.9,9.4,5.7,13.2,1.5l35.5-38.9
		c3.3-3.6,2.7-9.2-1.2-12.1l-6.4-4.6C220.9,320.4,217.9,320,215.2,321.2z"/>
</g>
<path class="st2" d="M289.1,155.4h-11.3c-7.4,0-13.3,6-13.3,13.3V221c0,7.4,6,13.3,13.3,13.3h11.3V155.4z"/>
<path class="st3" d="M291,155.4L291,155.4c-6.8,0-12.3,5.5-12.3,12.3V222c0,6.8,5.5,12.3,12.3,12.3l0,0c12.6,0,22.8-10.2,22.8-22.8
	v-33.3C313.8,165.6,303.6,155.4,291,155.4z"/>
<path class="st2" d="M45.4,155.4h11.3c7.4,0,13.3,6,13.3,13.3V221c0,7.4-6,13.3-13.3,13.3H45.4V155.4z"/>
<path class="st3" d="M43.4,155.4L43.4,155.4c6.8,0,12.3,5.5,12.3,12.3V222c0,6.8-5.5,12.3-12.3,12.3l0,0
	c-12.6,0-22.8-10.2-22.8-22.8v-33.3C20.6,165.6,30.8,155.4,43.4,155.4z"/>
<path class="st4" d="M31.7,211.5v-33.3c0-10.4,6.9-19.1,16.4-21.9c-1.4-0.6-3-0.9-4.7-0.9l0,0c-12.6,0-22.8,10.2-22.8,22.8v33.3
	c0,12.6,10.2,22.8,22.8,22.8l0,0c1.7,0,3.2-0.3,4.7-0.9C38.6,230.6,31.7,221.9,31.7,211.5z"/>
<circle class="st3" cx="227.8" cy="271.7" r="10.6"/>
<g>
	<circle class="st8" cx="167.2" cy="402.6" r="10.1"/>
	<circle class="st8" cx="167.2" cy="441" r="10.1"/>
</g>
<path class="st4" d="M411.2,383.3l-1.5,74.3c-14,10.8-29.1,20.1-45.1,27.8c-3.8,1.8-7.6,3.6-11.5,5.2c-3,1.3-6.1,2.5-9.2,3.7
	c-3.8,1.4-7.6,2.8-11.5,4L342.4,383l20.1,0.1L411.2,383.3z"/>
<path class="st3" d="M411.2,383.3l-1.5,74.3c-14,10.8-29.1,20.1-45.1,27.8c-3.8,1.8-7.6,3.6-11.5,5.2l9.5-107.6L411.2,383.3z"/>
<path class="st5" d="M405.2,323.9L373.8,311c-10.3-4.2-22,0.7-26.2,10.9l-10.2,24.9c-12,29.1,1.9,62.5,31,74.4l26,10.7l12.7-30.7"/>
<path class="st6" d="M384.3,421.2c-29.1-12-43-45.3-31-74.4l10.2-24.9c2.1-5,6-8.8,10.6-10.8l-0.3-0.1c-10.3-4.2-22,0.7-26.2,10.9
	l-10.2,24.9c-12,29.1,1.9,62.5,31,74.4l26,10.7l2.3-5.6L384.3,421.2z"/>
<rect x="382.3" y="257.2" class="st2" width="27.7" height="193.9"/>
<path class="st5" d="M382,358.3l32-13.3c5.8-2.4,8.6-9.1,6.2-14.9l0,0c-2.4-5.8-9.1-8.6-14.9-6.2l-32,13.3
	c-5.8,2.4-8.6,9.1-6.2,14.9l0,0C369.5,358,376.2,360.8,382,358.3z"/>
<path class="st6" d="M391.7,354c-5.8,2.4-12.5-0.3-14.9-6.2l0,0c-2.1-5.1-0.3-10.7,4-13.8l-7.5,3.1c-5.8,2.4-8.6,9.1-6.2,14.9l0,0
	c2.4,5.8,9.1,8.6,14.9,6.2L391.7,354z"/>
<g>
	<path class="st5" d="M390.8,379.4l32-13.3c5.8-2.4,8.6-9.1,6.2-14.9l0,0c-2.4-5.8-9.1-8.6-14.9-6.2l-32,13.3
		c-5.8,2.4-8.6,9.1-6.2,14.9l0,0C378.3,379.1,385,381.9,390.8,379.4z"/>
	<path class="st5" d="M399.6,400.5l32-13.3c5.8-2.4,8.6-9.1,6.2-14.9l0,0c-2.4-5.8-9.1-8.6-14.9-6.2l-32,13.3
		c-5.8,2.4-8.6,9.1-6.2,14.9l0,0C387.1,400.2,393.8,402.9,399.6,400.5z"/>
	<path class="st5" d="M408.4,421.6l22.8-9.5c5.8-2.4,8.6-9.1,6.2-14.9l0,0c-2.4-5.8-9.1-8.6-14.9-6.2l-22.8,9.5
		c-5.8,2.4-8.6,9.1-6.2,14.9l0,0C395.9,421.3,402.6,424,408.4,421.6z"/>
</g>
<g>
	<path class="st6" d="M400.5,375.1c-5.8,2.4-12.5-0.3-14.9-6.2l0,0c-2.1-5.1-0.3-10.7,4-13.8l-7.5,3.1c-5.8,2.4-8.6,9.1-6.2,14.9
		l0,0c2.4,5.8,9.1,8.6,14.9,6.2L400.5,375.1z"/>
	<path class="st6" d="M409.3,396.2c-5.8,2.4-12.5-0.3-14.9-6.2l0,0c-2.1-5.1-0.3-10.7,4-13.8l-7.5,3.1c-5.8,2.4-8.6,9.1-6.2,14.9
		l0,0c2.4,5.8,9.1,8.6,14.9,6.2L409.3,396.2z"/>
	<path class="st6" d="M418.1,417.3c-5.8,2.4-12.5-0.3-14.9-6.2l0,0c-2.1-5.1-0.3-10.7,4-13.8l-7.5,3.1c-5.8,2.4-8.6,9.1-6.2,14.9
		l0,0c2.4,5.8,9.1,8.6,14.9,6.2L418.1,417.3z"/>
</g>
<circle class="st9" cx="390.9" cy="163.2" r="121.1"/>
<g>
	<path class="st8" d="M337.8,182.3h-24.2v-14.2l21.1-30.3h22.1v30.5h6.1v14h-6.1v11.2h-18.9V182.3z M339.3,168.3v-8
		c0-1.5,0-2.7,0.1-3.7c0-1.1,0.3-2.6,0.7-4.7c-1.1,2.5-1.8,4.1-2.2,4.8c-0.5,1.1-1.3,2.4-2.4,4l-5.1,7.6H339.3z"/>
	<path class="st8" d="M374.3,145c4.3-5.2,10.2-7.8,17.8-7.8c7.6,0,13.5,2.6,17.7,7.7c4.2,5,6.3,12.1,6.3,21.1
		c0,9.1-2.1,16.2-6.3,21.3c-4.2,5.1-10.1,7.6-17.7,7.6c-7.6,0-13.5-2.6-17.8-7.8c-4.2-5.2-6.4-12.2-6.4-21.1
		C367.9,157.1,370,150.1,374.3,145z M388.4,175.3c0.8,2,2,2.9,3.6,2.9c1.6,0,2.8-1,3.5-2.9c0.7-2.1,1.1-5.2,1.1-9.2
		c0-4.1-0.4-7.1-1.1-9.3c-0.7-2-1.9-2.9-3.5-2.9c-1.6,0-2.9,1-3.6,2.9c-0.8,1.9-1.2,5-1.2,9.3C387.3,170.4,387.7,173.4,388.4,175.3z
		"/>
	<path class="st8" d="M446.1,182.3h-24.2v-14.2l21.1-30.3H465v30.5h6.1v14H465v11.2h-18.9V182.3z M447.5,168.3v-8
		c0-1.5,0-2.7,0.1-3.7c0-1.1,0.3-2.6,0.7-4.7c-1.1,2.5-1.8,4.1-2.2,4.8c-0.5,1.1-1.3,2.4-2.4,4l-5.1,7.6H447.5z"/>
</g>
</svg>
