<svg id="Capa_1" xmlns="http://www.w3.org/2000/svg" viewBox="0 0 512 512"><style>.st2{fill:#474f70}.st3{fill:#55ceed}.st4{fill:#17a3bf}.st5{fill:#fecd9c}.st6{fill:#eab689}.st8{fill:#fff}</style><path d="M508.9 256c0 15.7-1.4 31.1-4.1 46 0 .2-.1.4-.1.5-6.6 35.7-20.6 68.7-40.4 97.5-6.3 9.2-13.3 18-20.8 26.3-10.3 11.4-21.6 21.9-33.8 31.3-14 10.8-29.1 20.1-45.1 27.8-3.8 1.8-7.6 3.6-11.5 5.2-3 1.3-6.1 2.5-9.2 3.7-3.8 1.4-7.6 2.8-11.5 4-7.8 2.5-15.7 4.6-23.8 6.4-11.1 2.4-22.5 4.1-34.1 5-6.5.5-13.2.8-19.8.8-6.7 0-13.3-.2-19.8-.8-1.7-.1-3.4-.3-5.1-.4-4.5-.4-9-1-13.5-1.7-72.1-10.9-134.1-51.8-173-109.6-4.2-6.3-8.2-12.8-11.9-19.5C11.4 342.2 0 300.4 0 256 0 115.5 113.9 1.5 254.5 1.5s254.4 114 254.4 254.5z" fill="#91c7f9"/><path d="M460.8 207.8c0 12.7-1.2 25.2-3.4 37.3 0 .1-.1.3-.1.4-5.3 28.9-16.7 55.7-32.8 79-5.1 7.5-10.8 14.6-16.8 21.3-17.9 19.9-39.6 36.2-64 48-5.5 2.6-11.1 5-16.8 7.2-9.3 3.5-18.8 6.3-28.7 8.4-9 1.9-18.3 3.3-27.7 4-5.3.4-10.7.6-16.1.6-5.4 0-10.7-.2-16-.6-1.4-.1-2.8-.2-4.2-.4-3.7-.4-7.3-.8-10.9-1.4-58.3-8.8-108.5-42-140.1-88.8-3.4-5.1-6.7-10.4-9.7-15.8-16.2-29.5-25.4-63.3-25.4-99.3C48.2 93.9 140.5 1.5 254.5 1.5s206.3 92.4 206.3 206.3z" fill="#97dfff"/><path class="st2" d="M303.5 194.9H289v-57.1C289 70.6 234.4 16 167.2 16S45.4 70.6 45.4 137.8v57.1H31v-57.1C31 62.7 92.1 1.5 167.2 1.5s136.3 61.1 136.3 136.3v57.1z"/><path class="st3" d="M308.4 393.6v111.1c-11.1 2.4-22.5 4.1-34.1 5h-39.6c-1.7-.1-3.4-.3-5.1-.4-4.5-.4-9-1-13.5-1.7-79.7-12.1-147.3-61.1-184.7-129.1 2.1-2.6 4.7-4.8 7.8-6.3l65.8-33.4 62.2-8 8.6 1.1 53.6 6.9 65.8 33.4c8.1 4.1 13.2 12.4 13.2 21.4z"/><path class="st4" d="M175.8 331.9l-53.6 6.9-65.8 33.4c-8.1 4.1-13.2 12.4-13.2 21.4v4.4c-4.2-6.3-8.2-12.8-11.9-19.5 2.1-2.6 4.7-4.8 7.8-6.3l65.8-33.4 62.2-8 8.7 1.1z"/><path class="st5" d="M125 291.5h87.3v56.1H125z"/><circle class="st6" cx="73" cy="197" r="27"/><circle class="st6" cx="261.5" cy="197" r="27"/><path class="st6" d="M148 291.5h-23v47.2h23c0-8 6.6-14.3 14.6-14 1.5.1 3.1.1 4.6.1 16.3 0 31.6-4 45.1-11.1v-22.3l-64.3.1z"/><path class="st5" d="M264.4 120L70 109.6V218c0 53.7 43.5 97.2 97.2 97.2s97.2-43.5 97.2-97.2v-98z"/><path class="st6" d="M181.1 65.4l-59.6 5.2c-9.1 0-17.5 3-24.2 8.1h-4v3.5c-7.3 7.3-11.8 17.3-11.8 28.4L66.2 165c0 7.1-2.9 13 3.8 14.2v38.9c0 53.7 43.5 97.2 97.2 97.2 3.6 0 7.2-.2 10.7-.6-48.6-5.3-86.5-46.6-86.5-96.6v-57.4c0-9 7-16.6 15.9-16.9h.9c9.1 0 18.1 3.1 25.2 8.8 9.2 7.4 21.1 13.5 33.8 11.9 25.3-3.1 24.5-19.8 33.8-27.3 7.1-5.7 16-8.8 25.2-8.8h.4c11.7 0 20.8-4.4 20.8 7.3 0 7.9 6.2 43.8 14.1 44 4.1.1 7.8-1.5 10.5-4.2 2.6-2.6-.7-6.2-.7-10.2l-3.5-13.3"/><path class="st2" d="M276.2 116.3v49c0 4-1.6 7.6-4.2 10.2-2.7 2.7-6.4 4.3-10.5 4.2-7.9-.2-14.1-6.8-14.1-14.7v-7.4c0-5.9-2.4-11.2-6.2-15s-9.1-6.2-15-6.2c-9.1 0-18 3.1-25.2 8.8-9.2 7.4-21 11.9-33.8 11.9-12.8 0-24.5-4.5-33.8-11.9-1.2-1-2.5-1.9-3.8-2.7-2.5-1.6-5.2-2.8-8-3.8-4.3-1.5-8.8-2.3-13.4-2.3-11.7 0-21.2 9.5-21.2 21.2v7.7c0 4-1.6 7.6-4.2 10.2-2.6 2.6-6.2 4.2-10.2 4.2-8 0-14.4-6.5-14.4-14.4v-49c0-42.9 34.8-77.6 77.6-77.6h62.8c42.9 0 77.6 34.7 77.6 77.6z"/><path d="M112.3 116.3c0-42.9 34.8-77.6 77.6-77.6h-54.1c-42.9 0-77.6 34.8-77.6 77.6v49c0 8 6.5 14.4 14.4 14.4 4 0 7.6-1.6 10.2-4.2 2.6-2.6 4.2-6.2 4.2-10.2v-7.7c0-11.7 9.5-21.2 21.2-21.2 1.4 0 2.7.1 4.1.2v-20.3z" fill="#323b5b"/><path class="st6" d="M146.1 192.4c-.5 4.5-4.5 7.8-9 7.8h-23.5c-2.4 0-4.7-1-6.3-2.6-1.8-1.8-2.9-4.5-2.5-7.4.5-4.5 4.5-7.8 9-7.8h23.5c2.4 0 4.7 1 6.3 2.6 1.8 1.8 2.9 4.5 2.5 7.4z"/><path class="st8" d="M146.1 198.6c-.5 4.5-4.5 7.8-9 7.8h-23.5c-2.4 0-4.7-1-6.3-2.6-1.8-1.8-2.9-4.5-2.5-7.4.5-4.5 4.5-7.8 9-7.8h23.5c2.4 0 4.7 1 6.3 2.6 1.8 1.8 2.9 4.5 2.5 7.4z"/><path class="st6" d="M227 182.4h-23.7c-4.9 0-8.9 4-8.9 8.9s4 8.9 8.9 8.9H227c4.9 0 8.9-4 8.9-8.9s-4-8.9-8.9-8.9z"/><path class="st8" d="M227 188.6h-23.7c-4.9 0-8.9 4-8.9 8.9s4 8.9 8.9 8.9H227c4.9 0 8.9-4 8.9-8.9s-4-8.9-8.9-8.9z"/><path class="st6" d="M234.7 164.7h-39c-2.8 0-5 2.2-5 5s2.2 5 5 5h39c2.8 0 5-2.2 5-5s-2.3-5-5-5z"/><path class="st2" d="M137.3 194.5c0 6.5-5.3 11.8-11.8 11.8s-11.8-5.3-11.8-11.8c0-2.2.6-4.2 1.6-5.9h20.4c1 1.7 1.6 3.8 1.6 5.9zm89.7 0c0 6.5-5.3 11.8-11.8 11.8-6.5 0-11.8-5.3-11.8-11.8 0-2.2.6-4.2 1.6-5.9h20.4c1 1.7 1.6 3.8 1.6 5.9zm32.5 82h-31.8v-9.6h31.8c7.9 0 14.4-6.4 14.4-14.4V222h9.6v30.5c0 13.2-10.8 24-24 24z"/><path class="st6" d="M106.1 164.7c-2.8 0-5.1 2.2-5.2 4.9-.1 2.8 2.2 5.1 5 5.1h27.4c10.9 0 19.7 8.8 19.7 19.7v48.8h5c6.4 0 11.5-5.2 11.5-11.5v-51.9c0-8.3-6.7-15-15-15l-48.4-.1zm77.8 94.8c-10.8 3.6-22.5 3.6-33.4 0-2.9-.9-6.2.2-7.5 2.9-1.3 2.7.5 6.2 4.1 7.4 13 4.3 27.1 4.3 40.1 0 3.6-1.2 5.4-4.7 4.1-7.4-1.2-2.7-4.5-3.8-7.4-2.9zm-10.8 20.8h-11.7c-3 0-5.4 2.4-5.4 5.4 0 3 2.4 5.4 5.4 5.4h11.7c3 0 5.4-2.4 5.4-5.4 0-3-2.4-5.4-5.4-5.4z"/><path class="st4" d="M119.2 321.2l43.1 18.5c4.4 1.9 6.3 7.2 3.9 11.5l-14 25.1c-2.7 4.9-9.4 5.7-13.2 1.5l-35.5-38.9c-3.3-3.6-2.7-9.2 1.2-12.1l6.4-4.6c2.4-1.8 5.4-2.2 8.1-1z"/><path class="st4" d="M215.2 321.2l-43.1 18.5c-4.4 1.9-6.3 7.2-3.9 11.5l14 25.1c2.7 4.9 9.4 5.7 13.2 1.5l35.5-38.9c3.3-3.6 2.7-9.2-1.2-12.1l-6.4-4.6c-2.4-1.8-5.4-2.2-8.1-1z"/><path class="st2" d="M289.1 155.4h-11.3c-7.4 0-13.3 6-13.3 13.3V221c0 7.4 6 13.3 13.3 13.3h11.3v-78.9z"/><path class="st3" d="M291 155.4c-6.8 0-12.3 5.5-12.3 12.3V222c0 6.8 5.5 12.3 12.3 12.3 12.6 0 22.8-10.2 22.8-22.8v-33.3c0-12.6-10.2-22.8-22.8-22.8z"/><path class="st2" d="M45.4 155.4h11.3c7.4 0 13.3 6 13.3 13.3V221c0 7.4-6 13.3-13.3 13.3H45.4v-78.9z"/><path class="st3" d="M43.4 155.4c6.8 0 12.3 5.5 12.3 12.3V222c0 6.8-5.5 12.3-12.3 12.3-12.6 0-22.8-10.2-22.8-22.8v-33.3c0-12.6 10.2-22.8 22.8-22.8z"/><path class="st4" d="M31.7 211.5v-33.3c0-10.4 6.9-19.1 16.4-21.9-1.4-.6-3-.9-4.7-.9-12.6 0-22.8 10.2-22.8 22.8v33.3c0 12.6 10.2 22.8 22.8 22.8 1.7 0 3.2-.3 4.7-.9-9.5-2.8-16.4-11.5-16.4-21.9z"/><circle class="st3" cx="227.8" cy="271.7" r="10.6"/><circle class="st8" cx="167.2" cy="402.6" r="10.1"/><circle class="st8" cx="167.2" cy="441" r="10.1"/><path class="st4" d="M411.2 383.3l-1.5 74.3c-14 10.8-29.1 20.1-45.1 27.8-3.8 1.8-7.6 3.6-11.5 5.2-3 1.3-6.1 2.5-9.2 3.7-3.8 1.4-7.6 2.8-11.5 4l10-115.3 20.1.1 48.7.2z"/><path class="st3" d="M411.2 383.3l-1.5 74.3c-14 10.8-29.1 20.1-45.1 27.8-3.8 1.8-7.6 3.6-11.5 5.2l9.5-107.6 48.6.3z"/><path class="st5" d="M405.2 323.9L373.8 311c-10.3-4.2-22 .7-26.2 10.9l-10.2 24.9c-12 29.1 1.9 62.5 31 74.4l26 10.7 12.7-30.7"/><path class="st6" d="M384.3 421.2c-29.1-12-43-45.3-31-74.4l10.2-24.9c2.1-5 6-8.8 10.6-10.8l-.3-.1c-10.3-4.2-22 .7-26.2 10.9l-10.2 24.9c-12 29.1 1.9 62.5 31 74.4l26 10.7 2.3-5.6-12.4-5.1z"/><path class="st2" d="M382.3 257.2H410v193.9h-27.7z"/><path class="st5" d="M382 358.3l32-13.3c5.8-2.4 8.6-9.1 6.2-14.9-2.4-5.8-9.1-8.6-14.9-6.2l-32 13.3c-5.8 2.4-8.6 9.1-6.2 14.9 2.4 5.9 9.1 8.7 14.9 6.2z"/><path class="st6" d="M391.7 354c-5.8 2.4-12.5-.3-14.9-6.2-2.1-5.1-.3-10.7 4-13.8l-7.5 3.1c-5.8 2.4-8.6 9.1-6.2 14.9 2.4 5.8 9.1 8.6 14.9 6.2l9.7-4.2z"/><path class="st5" d="M390.8 379.4l32-13.3c5.8-2.4 8.6-9.1 6.2-14.9-2.4-5.8-9.1-8.6-14.9-6.2l-32 13.3c-5.8 2.4-8.6 9.1-6.2 14.9 2.4 5.9 9.1 8.7 14.9 6.2z"/><path class="st5" d="M399.6 400.5l32-13.3c5.8-2.4 8.6-9.1 6.2-14.9-2.4-5.8-9.1-8.6-14.9-6.2l-32 13.3c-5.8 2.4-8.6 9.1-6.2 14.9 2.4 5.9 9.1 8.6 14.9 6.2zm8.8 21.1l22.8-9.5c5.8-2.4 8.6-9.1 6.2-14.9-2.4-5.8-9.1-8.6-14.9-6.2l-22.8 9.5c-5.8 2.4-8.6 9.1-6.2 14.9 2.4 5.9 9.1 8.6 14.9 6.2z"/><path class="st6" d="M400.5 375.1c-5.8 2.4-12.5-.3-14.9-6.2-2.1-5.1-.3-10.7 4-13.8l-7.5 3.1c-5.8 2.4-8.6 9.1-6.2 14.9 2.4 5.8 9.1 8.6 14.9 6.2l9.7-4.2zm8.8 21.1c-5.8 2.4-12.5-.3-14.9-6.2-2.1-5.1-.3-10.7 4-13.8l-7.5 3.1c-5.8 2.4-8.6 9.1-6.2 14.9 2.4 5.8 9.1 8.6 14.9 6.2l9.7-4.2zm8.8 21.1c-5.8 2.4-12.5-.3-14.9-6.2-2.1-5.1-.3-10.7 4-13.8l-7.5 3.1c-5.8 2.4-8.6 9.1-6.2 14.9 2.4 5.8 9.1 8.6 14.9 6.2l9.7-4.2z"/><circle cx="390.9" cy="163.2" r="121.1" fill="#ff4f6f"/><path class="st8" d="M337.8 182.3h-24.2v-14.2l21.1-30.3h22.1v30.5h6.1v14h-6.1v11.2h-18.9v-11.2zm1.5-14v-8c0-1.5 0-2.7.1-3.7 0-1.1.3-2.6.7-4.7-1.1 2.5-1.8 4.1-2.2 4.8-.5 1.1-1.3 2.4-2.4 4l-5.1 7.6h8.9zm35-23.3c4.3-5.2 10.2-7.8 17.8-7.8 7.6 0 13.5 2.6 17.7 7.7 4.2 5 6.3 12.1 6.3 21.1 0 9.1-2.1 16.2-6.3 21.3-4.2 5.1-10.1 7.6-17.7 7.6s-13.5-2.6-17.8-7.8c-4.2-5.2-6.4-12.2-6.4-21.1 0-8.9 2.1-15.9 6.4-21zm14.1 30.3c.8 2 2 2.9 3.6 2.9s2.8-1 3.5-2.9c.7-2.1 1.1-5.2 1.1-9.2 0-4.1-.4-7.1-1.1-9.3-.7-2-1.9-2.9-3.5-2.9s-2.9 1-3.6 2.9c-.8 1.9-1.2 5-1.2 9.3.1 4.3.5 7.3 1.2 9.2zm57.7 7h-24.2v-14.2l21.1-30.3h22v30.5h6.1v14H465v11.2h-18.9v-11.2zm1.4-14v-8c0-1.5 0-2.7.1-3.7 0-1.1.3-2.6.7-4.7-1.1 2.5-1.8 4.1-2.2 4.8-.5 1.1-1.3 2.4-2.4 4l-5.1 7.6h8.9z"/></svg>