<svg xmlns="http://www.w3.org/2000/svg" viewBox="0 0 512 512"><path d="M512 256c0 88.357-44.774 166.264-112.859 212.25a241.644 241.644 0 0 1-11.306 7.231C349.33 498.667 304.222 512 256 512c-39.34 0-76.601-8.871-109.902-24.733a256.678 256.678 0 0 1-9.425-4.733 253.182 253.182 0 0 1-12.518-7.064 240.828 240.828 0 0 1-11.306-7.231C44.763 422.264 0 344.357 0 256 0 114.615 114.615 0 256 0s256 114.615 256 256z" fill="#fd7034"/><path d="M467.111 211.111c0 76.827-41.041 144.063-102.393 180.995-31.752 19.121-68.952 30.116-108.717 30.116-32.442 0-63.169-7.315-90.631-20.395a211.21 211.21 0 0 1-18.096-9.728C85.922 355.174 44.889 287.938 44.889 211.111 44.889 94.517 139.406 0 256 0s211.111 94.517 211.111 211.111z" fill="#fd8b59"/><path d="M246.638 64.592h18.717v86.779h-18.717zm-54.001 263.287h126.182v75.327H192.637z" fill="#474f70"/><path d="M346.446 345.591H165.539c-13.418 0-24.295-10.877-24.295-24.295v-159.24c0-13.418 10.877-24.295 24.295-24.295h180.907c13.418 0 24.295 10.877 24.295 24.295v159.239c0 13.418-10.876 24.296-24.295 24.296z" fill="#535e8a"/><path d="M163.366 321.296v-159.24c0-13.418 10.877-24.295 24.295-24.295h-22.12c-13.418 0-24.295 10.877-24.295 24.295v159.239c0 13.418 10.877 24.295 24.295 24.295h22.12c-13.418.001-24.295-10.877-24.295-24.294z" fill="#474f70"/><path d="M399.141 394.94v73.31a241.644 241.644 0 0 1-11.306 7.231C349.33 498.667 304.222 512 256 512c-39.34 0-76.601-8.871-109.902-24.733a255.44 255.44 0 0 1-21.943-11.797 240.828 240.828 0 0 1-11.306-7.231v-73.3c0-13.406 10.888-24.283 24.294-24.283h237.693c13.417.001 24.305 10.878 24.305 24.284z" fill="#535e8a"/><g fill="#474f70"><path d="M160.967 370.657c-13.406 0-24.294 10.877-24.294 24.283v87.594a253.182 253.182 0 0 1-12.518-7.064 240.828 240.828 0 0 1-11.306-7.231v-73.3c0-13.406 10.888-24.283 24.294-24.283l23.824.001zm255.862-142.445h-17.017v-67.376c0-79.301-64.516-143.818-143.818-143.818S112.176 81.534 112.176 160.836v67.376H95.159v-67.376C95.159 72.151 167.309.001 255.994.001s160.835 72.15 160.835 160.835v67.376zm-51.871 96.362h-37.489V313.23h37.489c9.353 0 16.962-7.609 16.962-16.963v-36.016h11.344v36.016c0 15.608-12.699 28.307-28.306 28.307z"/><path d="M399.826 181.631h-14.542c-8.031 0-14.542 6.511-14.542 14.542v64.077c0 8.031 6.511 14.542 14.542 14.542h14.542v-93.161z"/></g><path d="M402.134 181.631c-8.031 0-14.543 6.511-14.543 14.542v64.077c0 8.031 6.511 14.542 14.542 14.542 14.864 0 26.912-12.049 26.912-26.912v-39.337c.002-14.863-12.047-26.912-26.911-26.912z" fill="#55ceed"/><path d="M112.159 181.631h14.542c8.031 0 14.542 6.511 14.542 14.542v64.077c0 8.031-6.511 14.542-14.542 14.542h-14.542v-93.161z" fill="#474f70"/><path d="M109.852 181.631c8.031 0 14.542 6.511 14.542 14.542v64.077c0 8.031-6.511 14.542-14.542 14.542-14.864 0-26.912-12.049-26.912-26.912v-39.337c0-14.863 12.049-26.912 26.912-26.912z" fill="#55ceed"/><path d="M95.796 247.881v-39.337c0-12.28 8.226-22.63 19.466-25.861a14.487 14.487 0 0 0-5.412-1.051c-14.864 0-26.912 12.049-26.912 26.912v39.337c0 14.864 12.05 26.912 26.912 26.912 1.914 0 3.738-.379 5.412-1.052-11.238-3.229-19.466-13.581-19.466-25.86z" fill="#17a3bf"/><circle cx="327.471" cy="318.903" r="12.479" fill="#55ceed"/><circle cx="193.881" cy="216.033" r="36.582" fill="#474f70"/><path d="M193.885 237.872c-12.041 0-21.836-9.796-21.836-21.836 0-12.041 9.796-21.836 21.836-21.836s21.836 9.796 21.836 21.836-9.796 21.836-21.836 21.836z" fill="#fcc72e"/><circle cx="318.098" cy="216.033" r="36.582" fill="#474f70"/><path d="M318.102 237.872c-12.041 0-21.836-9.796-21.836-21.836 0-12.041 9.796-21.836 21.836-21.836s21.836 9.796 21.836 21.836-9.795 21.836-21.836 21.836z" fill="#fcc72e"/><path d="M294.28 301.116h-76.572c-7.518 0-13.613-6.095-13.613-13.613s6.095-13.613 13.613-13.613h76.572c7.518 0 13.613 6.095 13.613 13.613-.001 7.519-6.095 13.613-13.613 13.613z" fill="#474f70"/><path d="M169.665 408.69c0-2.953 3.063-4.484 6.234-4.484h21.105c11.373 0 21.979 3.718 21.979 19.246 0 8.966-3.499 14.872-9.295 17.386 6.671 2.625 11.263 6.889 11.263 17.824v2.297c0 17.059-9.514 23.182-21.87 23.182h-23.182c-3.827 0-6.234-2.078-6.234-4.374V408.69zm14.106 26.572h12.247c5.905 0 8.748-3.827 8.748-9.404 0-5.686-3.28-9.186-8.858-9.186H183.77l.001 18.59zm12.357 36.414c6.67 0 10.607-3.609 10.607-11.919v-1.749c0-8.53-3.937-11.591-10.607-11.591h-12.357v25.26h12.357v-.001zm34.113-11.92v-30.509c0-18.262 11.154-25.041 25.589-25.041 14.434 0 25.697 6.779 25.697 25.041v30.509c0 18.262-11.263 25.041-25.697 25.041s-25.589-6.779-25.589-25.041zm37.07-30.509c0-8.638-4.374-12.575-11.482-12.575-7.217 0-11.373 3.937-11.373 12.575v30.509c0 8.639 4.156 12.575 11.373 12.575 7.108 0 11.482-3.936 11.482-12.575v-30.509zm70.526-25.041c3.063 0 4.484 3.28 4.484 6.343 0 3.39-1.641 6.451-4.484 6.451h-15.965v62.657c0 2.953-3.608 4.484-7.107 4.484-3.609 0-7.108-1.531-7.108-4.484V417h-16.074c-2.843 0-4.484-2.953-4.484-6.451 0-3.063 1.421-6.343 4.484-6.343h46.254z" fill="#323b5b"/><circle cx="255.99" cy="64.592" r="28.076" fill="#ff4f6f"/><path d="M251.739 64.592c0-11.247 6.615-20.944 16.166-25.425a27.964 27.964 0 0 0-11.912-2.651c-15.506 0-28.076 12.57-28.076 28.076s12.57 28.076 28.076 28.076a27.96 27.96 0 0 0 11.912-2.651c-9.551-4.481-16.166-14.178-16.166-25.425z" fill="#e33958"/></svg>