<svg xmlns="http://www.w3.org/2000/svg" viewBox="0 0 299.998 299.998"><path d="M149.997 0C67.157 0 .001 67.158.001 149.995s67.156 150.003 149.995 150.003 150-67.163 150-150.003S232.836 0 149.997 0zm.456 220.761H85.466c0-46.856 41.15-46.845 50.284-59.095l1.603-8.554c-2.695-1.411-5.187-3.286-7.457-5.498-17.004-2.301-36.427-5.932-36.427-5.932 41.248-19.434-3.984-79.213 56.34-81.602v-.026c.062.003.122.01.184.013.062-.003.122-.01.184-.013v.026c60.324 2.389 15.089 62.168 56.34 81.602 0 0-19.418 3.631-36.422 5.932-2.173 2.122-4.56 3.924-7.125 5.312l1.751 9.352c10.022 11.653 49.802 12.415 49.802 58.483h-64.07z"/></svg>