<svg viewBox="0 0 992 1000" xmlns="http://www.w3.org/2000/svg"><g fill="#2ba7df"><path d="M58.17 110.56C315.82 73.86 573.47 37.19 831.11.49c14.77-1.82 30.13 3.33 41.06 13.38 10.4 9.42 16.79 23.14 17.11 37.19-.07 54.06-.01 108.12-.03 162.19C749.82 322.18 629.21 455.07 534 604.19c-13.81-13.36-27.94-26.42-40.84-40.67 25.23-18.81 43.57-46.73 50.45-77.47 3.94-18.25 1.43-37.37-4.85-54.79-7.03-19.84-17.8-38.01-27.35-56.68-7.96-15.17-18.57-29.47-32.98-39.05-11.18-7.5-24.97-11.16-38.38-9.54-15.26 1.7-30.66 8.4-40.02 20.96-10.53 13.87-12.88 32.22-10.97 49.12 1.48 15.08 7.29 29.19 13.05 43.05 11.5 27.67 25.26 54.39 41 79.89-30.88 17.63-65.36 27.85-100.03 34.91C230.05 576.2 112.53 574.14 0 549.9V161.37c1.4-19.23 13.89-37.17 31.59-44.91 8.31-3.98 17.61-4.53 26.58-5.9m381.34 122.51c-6.94 7.78-13.16 16.21-18.08 25.42-1.68 3.5-6.5 5.04-9.82 2.91-8.56-5.22-16.94-10.75-25.53-15.92-7.39 8.7-13.19 18.6-19.33 28.18-3.53 5.97-7.51 11.75-10.08 18.21 13.35 8.38 26.61 16.91 40 25.24 7.05-8.06 13.3-16.83 18.53-26.18 1.83-3.79 7.07-5.11 10.47-2.6 8.33 5.04 16.86 9.72 25.41 14.37 5.65-5.81 9.62-12.98 14.07-19.7 5.31-8.79 11.08-17.39 15.29-26.78-13.69-7.62-27.16-15.67-40.93-23.15zM956.87 65.26c6.85-2.13 14.62-1.71 20.81 2.09 7.06 4.05 11.56 11.88 11.9 19.98-.34 247.54-.67 495.08-1.03 742.62.59 10.49-5.24 21.23-14.8 25.81-9.06 4.46-20.83 2.56-27.83-4.77 9.77-2.69 18.08-10.29 21.18-20 1.93-5.15 1.31-10.7 1.4-16.07 0-242.63-.01-485.25 0-727.87.18-8.69-4.62-16.87-11.63-21.79z"/><path d="M563.05 663.46c88.59-138.19 199-262.4 326.2-366.17.01 173.91-.01 347.81 0 521.72-.19 11.1-3.41 22.06-8.64 31.83-6.95 12.87-17.95 24.38-32.21 28.82-6.59 2.2-13.59 1.49-20.41 1.59-108.96 0-217.91.01-326.87-.01-41.01 39.59-82 79.19-123.01 118.76h-2.97c-18.25-39.58-36.54-79.14-54.78-118.73-85.45-.05-170.9 0-256.35-.02-8.78-.2-17.81.92-26.28-2.02C17.19 873.25 1.67 853.89 0 832.6v-223c16.95 3.72 33.9 7.51 51.01 10.44 93.69 16.46 190.16 17.89 284.11 2.61 35.96-5.44 71.22-15.47 104.63-29.84 13.88-6.09 27.75-12.42 40.56-20.6 25.55 32.2 54.74 61.23 82.74 91.25z"/><path d="M452.91 394.76c15.85-5.66 34-4.37 48.89 3.49 6.32 3.44 10.48 10.56 10.22 17.78-.33 12.92-4.65 25.35-9.95 37.01-10.53 22.56-27.99 41.76-49.36 54.5-5.06-6.75-9.95-13.64-14.76-20.57-5.51-8.13-11.89-16.07-14.11-25.86-3.42-14.89-3.15-31.33 4.03-45.11 5.13-10.03 14.4-17.67 25.04-21.24z"/></g><g fill="#fff"><path d="M879.79 16.02c24.4 17.02 48.74 34.14 73.14 51.16 6.4 3.72 11.19 10.42 11.65 17.92.36 155.96-.02 311.92.29 467.88 0 90.69.02 181.39 0 272.08-.15 7.13-4.96 13.29-10.62 17.2-5.38 3.93-11.88 5.67-18.05 7.89-23.06 8.04-46.09 16.13-69.15 24.14 16.12-13.51 25.79-34.25 26.32-55.23.01-255.36.01-510.72 0-766.08-.27-13.39-5.34-26.46-13.58-36.96z"/><path d="M534 604.19c95.21-149.12 215.82-282.01 355.25-390.94v84.04c-127.2 103.77-237.61 227.98-326.2 366.17-28-30.02-57.19-59.05-82.74-91.25-12.81 8.18-26.68 14.51-40.56 20.6-33.41 14.37-68.67 24.4-104.63 29.84-93.95 15.28-190.42 13.85-284.11-2.61C33.9 617.11 16.95 613.32 0 609.6v-59.7c112.53 24.24 230.05 26.3 343.08 4.02 34.67-7.06 69.15-17.28 100.03-34.91-15.74-25.5-29.5-52.22-41-79.89-5.76-13.86-11.57-27.97-13.05-43.05-1.91-16.9.44-35.25 10.97-49.12 9.36-12.56 24.76-19.26 40.02-20.96 13.41-1.62 27.2 2.04 38.38 9.54 14.41 9.58 25.02 23.88 32.98 39.05 9.55 18.67 20.32 36.84 27.35 56.68 6.28 17.42 8.79 36.54 4.85 54.79-6.88 30.74-25.22 58.66-50.45 77.47 12.9 14.25 27.03 27.31 40.84 40.67m-81.09-209.43c-10.64 3.57-19.91 11.21-25.04 21.24-7.18 13.78-7.45 30.22-4.03 45.11 2.22 9.79 8.6 17.73 14.11 25.86 4.81 6.93 9.7 13.82 14.76 20.57 21.37-12.74 38.83-31.94 49.36-54.5 5.3-11.66 9.62-24.09 9.95-37.01.26-7.22-3.9-14.34-10.22-17.78-14.89-7.86-33.04-9.15-48.89-3.49zm-13.4-161.69c13.77 7.48 27.24 15.53 40.93 23.15-4.21 9.39-9.98 17.99-15.29 26.78-4.45 6.72-8.42 13.89-14.07 19.7-8.55-4.65-17.08-9.33-25.41-14.37-3.4-2.51-8.64-1.19-10.47 2.6-5.23 9.35-11.48 18.12-18.53 26.18-13.39-8.33-26.65-16.86-40-25.24 2.57-6.46 6.55-12.24 10.08-18.21 6.14-9.58 11.94-19.48 19.33-28.18 8.59 5.17 16.97 10.7 25.53 15.92 3.32 2.13 8.14.59 9.82-2.91 4.92-9.21 11.14-17.64 18.08-25.42z"/></g></svg>