<svg xmlns="http://www.w3.org/2000/svg" viewBox="0 0 512.001 512.001"><path d="M511.269 197.142a15.011 15.011 0 0 0-12.116-10.21l-159.028-22.969-70.678-143.188c-5.039-10.254-21.855-10.254-26.895 0l-70.679 143.188-159.027 22.969a15.004 15.004 0 0 0-12.114 10.21 15.002 15.002 0 0 0 3.794 15.366l115.36 111.475L92.889 481.38a14.99 14.99 0 0 0 5.962 14.663 14.984 14.984 0 0 0 15.806 1.143L256 422.874l141.343 74.312a14.967 14.967 0 0 0 15.806-1.143 14.99 14.99 0 0 0 5.962-14.663l-26.997-157.397 115.361-111.475a15.002 15.002 0 0 0 3.794-15.366z"/></svg>